<svg width="141" height="160" viewBox="0 0 141 160" fill="none" xmlns="http://www.w3.org/2000/svg">
<path d="M66.0177 1.19483C68.777 -0.398276 72.1767 -0.398277 74.936 1.19483L136.495 36.7357C139.254 38.3288 140.954 41.273 140.954 44.4592V115.541C140.954 118.727 139.254 121.671 136.495 123.264L74.936 158.805C72.1767 160.398 68.777 160.398 66.0177 158.805L4.45916 123.264C1.69982 121.671 0 118.727 0 115.541V44.4592C0 41.273 1.69982 38.3288 4.45916 36.7357L66.0177 1.19483Z" fill="#F58220"/>
<path d="M108.598 70.3115C108.598 63.0834 103.95 56.8504 97.3443 54.632C96.9457 46.4959 90.2015 40 81.9682 40C77.6373 40 73.6393 41.7959 70.799 44.7905C67.9587 41.7959 63.9607 40 59.6298 40C51.3965 40 44.6523 46.4959 44.254 54.632C37.6487 56.8506 33 63.0835 33 70.3115C33 74.0432 34.2423 77.5995 36.4887 80.4771C34.6856 83.1665 33.7194 86.3249 33.7194 89.6499C33.7194 96.6011 37.9867 102.641 44.2423 105.066C44.4864 113.343 51.2951 120 59.6299 120C63.9606 120 67.9588 118.204 70.7995 115.21C73.6393 118.204 77.6376 120 81.9682 120C90.3027 120 97.1117 113.343 97.3558 105.066C103.611 102.641 107.879 96.6013 107.879 89.6501C107.879 86.3248 106.913 83.1666 105.109 80.4773C107.355 77.5996 108.598 74.0431 108.598 70.3115ZM67.1629 107.631C65.9338 110.699 62.9713 112.727 59.6298 112.727C55.1515 112.727 51.5081 109.084 51.5081 104.605C51.5081 104.093 51.5581 103.573 51.6572 103.059C51.6581 103.053 51.6584 103.048 51.6597 103.042C51.9686 101.456 52.7379 100.012 53.887 98.8622C55.3071 97.4421 55.3071 95.1399 53.887 93.7197C52.4672 92.2996 50.1645 92.2996 48.7445 93.7197C47.5426 94.9219 46.5604 96.2968 45.8219 97.7935C42.9081 96.2122 40.992 93.1365 40.992 89.6501C40.992 87.0893 42.0162 84.7044 43.8761 82.9345C43.8876 82.9235 43.8975 82.9109 43.9087 82.8996C45.635 81.274 47.8895 80.3782 50.2634 80.3782H56.2534C58.2617 80.3782 59.8898 78.7501 59.8898 76.7418C59.8898 74.7335 58.2617 73.1054 56.2534 73.1054H50.2636C47.2514 73.1054 44.3484 73.9163 41.8134 75.4262C40.8187 73.9263 40.2726 72.1577 40.2726 70.3113C40.2726 65.597 43.7989 61.6384 48.4753 61.1034C49.4739 60.9892 50.3804 60.4668 50.98 59.6603C51.5797 58.8537 51.8187 57.8351 51.6406 56.8459C51.5526 56.3579 51.5082 55.8697 51.5082 55.3943C51.5079 50.9165 55.1514 47.2731 59.6296 47.2731C62.9715 47.2731 65.9337 49.3015 67.1627 52.3689V107.631H67.1629ZM85.3449 80.3785H91.3349C93.7085 80.3785 95.9625 81.2738 97.6883 82.8988C97.6999 82.9102 97.7102 82.9234 97.7221 82.9348C99.5819 84.7048 100.606 87.0899 100.606 89.6504C100.606 93.1366 98.6903 96.2121 95.7766 97.7933C95.038 96.2963 94.0558 94.9213 92.8536 93.7194C91.4335 92.2996 89.131 92.2996 87.7111 93.7197C86.2913 95.1399 86.2913 97.4424 87.7115 98.8622C88.8596 100.01 89.6291 101.454 89.9382 103.038C89.9394 103.045 89.9396 103.052 89.9411 103.058C90.0401 103.572 90.0902 104.093 90.0902 104.605C90.0902 109.084 86.4468 112.727 81.9685 112.727C78.6269 112.727 75.6648 110.698 74.4359 107.631V52.3684C75.6645 49.3011 78.6266 47.2726 81.9682 47.2726C86.4465 47.2726 90.0899 50.9161 90.0899 55.3943C90.0899 55.8704 90.0454 56.3589 89.9577 56.8459C89.7796 57.835 90.0185 58.8537 90.6183 59.6603C91.2179 60.4668 92.1246 60.9892 93.123 61.1037C97.7991 61.639 101.325 65.5975 101.325 70.3117C101.325 72.1579 100.779 73.9265 99.7847 75.4263C97.2499 73.9168 94.3472 73.1059 91.3347 73.1059H85.3447C83.3365 73.1059 81.7083 74.734 81.7083 76.7423C81.7085 78.7504 83.3366 80.3785 85.3449 80.3785Z" fill="white"/>
</svg>
