<svg width="141" height="160" viewBox="0 0 141 160" fill="none" xmlns="http://www.w3.org/2000/svg">
<path d="M66.0177 1.19483C68.777 -0.398276 72.1767 -0.398277 74.936 1.19483L136.495 36.7357C139.254 38.3288 140.954 41.273 140.954 44.4592V115.541C140.954 118.727 139.254 121.671 136.495 123.264L74.936 158.805C72.1767 160.398 68.777 160.398 66.0177 158.805L4.45916 123.264C1.69982 121.671 0 118.727 0 115.541V44.4592C0 41.273 1.69982 38.3288 4.45916 36.7357L66.0177 1.19483Z" fill="#F58220"/>
<path d="M108.592 89.321V79.6558C108.592 79.2078 108.474 78.7678 108.25 78.3796L101.245 66.2338C100.789 65.443 99.9454 64.956 99.0324 64.956H88.1883V61.5541C88.1883 60.1436 87.0447 59 85.6342 59H34.4958C33.0853 59 31.9417 60.1434 31.9417 61.5541V89.1246C30.8275 89.3991 30 90.4022 30 91.6013C30 93.0118 31.1436 94.1554 32.5541 94.1554H39.9052C40.5829 98.206 44.1113 101.304 48.3515 101.304C52.5917 101.304 56.1202 98.2062 56.7978 94.1554H87.2453C87.923 98.206 91.4515 101.304 95.6916 101.304C99.9318 101.304 103.46 98.2062 104.138 94.1554H107.446C108.856 94.1554 110 93.0119 110 91.6013C110 90.6032 109.427 89.7411 108.592 89.321ZM48.3518 96.1957C46.4451 96.1957 44.894 94.6446 44.894 92.7379C44.894 90.8311 46.4451 89.28 48.3518 89.28C50.2586 89.28 51.8097 90.8311 51.8097 92.7379C51.8095 94.6446 50.2584 96.1957 48.3518 96.1957ZM83.0805 89.0472H56.0805C54.6992 86.1664 51.754 84.172 48.3517 84.172C44.9493 84.172 42.004 86.1664 40.6229 89.0472H37.0499V64.108H83.0805V89.0472ZM88.1885 70.064H97.5571L101.064 76.1437H88.1885V70.064ZM95.6919 96.1957C93.7852 96.1957 92.2341 94.6446 92.2341 92.7379C92.2341 90.8311 93.7852 89.28 95.6919 89.28C97.5987 89.28 99.1498 90.8311 99.1498 92.7379C99.1498 94.6446 97.5985 96.1957 95.6919 96.1957ZM103.484 89.0472H103.421C102.039 86.1664 99.0943 84.172 95.6919 84.172C92.464 84.172 89.6483 85.9674 88.1883 88.6114V81.2515H103.484V89.0472Z" fill="white"/>
</svg>
