<svg width="141" height="160" viewBox="0 0 141 160" fill="none" xmlns="http://www.w3.org/2000/svg">
<path d="M66.0177 1.19483C68.777 -0.398276 72.1767 -0.398277 74.936 1.19483L136.495 36.7357C139.254 38.3288 140.954 41.273 140.954 44.4592V115.541C140.954 118.727 139.254 121.671 136.495 123.264L74.936 158.805C72.1767 160.398 68.777 160.398 66.0177 158.805L4.45916 123.264C1.69982 121.671 0 118.727 0 115.541V44.4592C0 41.273 1.69982 38.3288 4.45916 36.7357L66.0177 1.19483Z" fill="#F58220"/>
<path d="M108.209 73.035L104.233 72.0695C103.358 68.2614 101.877 64.6783 99.8134 61.3827L101.841 58.0039C102.394 57.0817 102.249 55.9012 101.488 55.1408L94.8594 48.5117C94.0989 47.7512 92.9186 47.6059 91.9963 48.1592L88.6172 50.1866C85.3219 48.1236 81.7388 46.6419 77.9305 45.7673L76.965 41.7908C76.7098 40.7398 75.7689 40 74.6875 40H65.3125C64.2311 40 63.2902 40.7398 63.0348 41.7908L62.0694 45.7673C58.2611 46.6419 54.678 48.1234 51.3825 50.1866L48.0036 48.1592C47.0814 47.6059 45.9009 47.7512 45.1405 48.5117L38.5117 55.1406C37.7512 55.9011 37.6059 57.0816 38.1592 58.0037L40.1864 61.3825C38.1233 64.6783 36.6417 68.2614 35.7672 72.0694L31.7906 73.0348C30.7398 73.29 30 74.2311 30 75.3125V84.6875C30 85.7689 30.7398 86.71 31.7908 86.965L35.7673 87.9305C36.6419 91.7388 38.1234 95.3217 40.1864 98.6172L38.1592 101.996C37.6058 102.918 37.7512 104.098 38.5116 104.859L45.1406 111.488C45.9012 112.249 47.0817 112.394 48.0037 111.841L51.3825 109.814C54.6781 111.877 58.2613 113.358 62.0694 114.233L63.0348 118.209C63.2902 119.26 64.2311 120 65.3125 120H74.6875C75.7689 120 76.7098 119.26 76.9652 118.209L77.9306 114.233C81.7388 113.358 85.322 111.877 88.6175 109.813L91.9963 111.841C92.9184 112.394 94.0991 112.249 94.8594 111.488L101.488 104.859C102.249 104.098 102.394 102.918 101.841 101.996L99.8134 98.6172C101.876 95.3217 103.358 91.7388 104.232 87.9305L108.209 86.965C109.26 86.71 110 85.7689 110 84.6875V75.3125C110 74.2311 109.26 73.29 108.209 73.035ZM105.312 82.8447L101.686 83.7252C100.789 83.9431 100.103 84.6678 99.9347 85.5761C99.1531 89.7984 97.5317 93.7206 95.1159 97.2337C94.5958 97.9902 94.5652 98.9805 95.0373 99.7677L96.8798 102.839L92.8387 106.88L89.768 105.037C88.9808 104.565 87.9906 104.596 87.2342 105.116C83.7209 107.532 79.7986 109.153 75.5762 109.935C74.668 110.103 73.9433 110.789 73.7253 111.686L72.8447 115.312H67.1553L66.2748 111.686C66.0569 110.789 65.332 110.103 64.4239 109.935C60.2017 109.153 56.2794 107.532 52.7659 105.116C52.0095 104.596 51.0192 104.565 50.2322 105.037L47.1614 106.88L43.1203 102.839L44.9628 99.7677C45.435 98.9805 45.4044 97.9902 44.8842 97.2337C42.4684 93.7208 40.8472 89.7986 40.0655 85.5761C39.8973 84.6678 39.2114 83.9431 38.3139 83.7252L34.6875 82.8447V77.1553L38.3138 76.2748C39.2114 76.0569 39.8972 75.3322 40.0653 74.4239C40.8469 70.2017 42.4681 66.2794 44.8841 62.7659C45.4042 62.0095 45.4348 61.0192 44.9625 60.232L43.1203 57.1613L47.1613 53.1202L50.2323 54.9628C51.0195 55.4352 52.0098 55.4044 52.7662 54.8842C56.2792 52.4684 60.2014 50.8472 64.4239 50.0655C65.3322 49.8973 66.0569 49.2114 66.2748 48.3139L67.1553 44.6875H72.8447L73.7252 48.3138C73.9431 49.2114 74.668 49.8972 75.5761 50.0653C79.7984 50.847 83.7206 52.4683 87.2336 54.8841C87.9898 55.4041 88.9802 55.435 89.7675 54.9627L92.8387 53.12L96.8797 57.1611L95.0372 60.232C94.565 61.0192 94.5956 62.0095 95.1156 62.7659C97.5316 66.2794 99.1528 70.2017 99.9344 74.4239C100.103 75.3322 100.788 76.057 101.686 76.2748L105.312 77.1553V82.8447Z" fill="white"/>
<path d="M70 54.2188C55.7842 54.2188 44.2188 65.7842 44.2188 80C44.2188 94.2158 55.7842 105.781 70 105.781C84.2158 105.781 95.7812 94.2158 95.7812 80C95.7812 65.7842 84.2158 54.2188 70 54.2188ZM70 101.094C58.3689 101.094 48.9062 91.6311 48.9062 80C48.9062 68.3689 58.3689 58.9062 70 58.9062C81.6311 58.9062 91.0938 68.3689 91.0938 80C91.0938 91.6311 81.6311 101.094 70 101.094Z" fill="white"/>
<path d="M83.51 70.7842L71.1662 63.7025C70.4398 63.2856 69.5464 63.2883 68.8225 63.7089L56.635 70.7906C55.925 71.2031 55.4688 71.9767 55.4688 72.817V86.9806C55.4688 87.8157 55.913 88.5878 56.635 89.0073L68.8225 96.0892C69.5417 96.5064 70.4412 96.5114 71.1662 96.0956L83.51 89.0137C84.2383 88.5959 84.6875 87.8204 84.6875 86.9808V72.8172C84.6875 71.9731 84.2273 71.1961 83.51 70.7842ZM67.6562 89.99L60.1562 85.632V76.8898L67.6562 81.2478V89.99ZM70.0075 77.1926L62.4775 72.8172L70.0075 68.4417L77.6341 72.8172L70.0075 77.1926ZM80 85.6234L72.3438 90.0159V81.2564L80 76.8639V85.6234Z" fill="white"/>
</svg>
