<svg width="141" height="160" viewBox="0 0 141 160" fill="none" xmlns="http://www.w3.org/2000/svg">
<path d="M66.0177 1.19483C68.777 -0.398276 72.1767 -0.398277 74.936 1.19483L136.495 36.7357C139.254 38.3288 140.954 41.273 140.954 44.4592V115.541C140.954 118.727 139.254 121.671 136.495 123.264L74.936 158.805C72.1767 160.398 68.777 160.398 66.0177 158.805L4.45916 123.264C1.69982 121.671 0 118.727 0 115.541V44.4592C0 41.273 1.69982 38.3288 4.45916 36.7357L66.0177 1.19483Z" fill="#F58220"/>
<path d="M102.969 73.1249C102.67 73.1249 102.377 73.1457 102.088 73.182L93.8174 56.8979C95.0321 55.6337 95.7811 53.9189 95.7811 52.0312C95.7811 48.1542 92.6269 45 88.7499 45C85.6944 45 83.0893 46.9597 82.1218 49.6875H57.8781C56.9106 46.9597 54.3054 45 51.25 45C47.3729 45 44.2187 48.1542 44.2187 52.0312C44.2187 53.9189 44.9678 55.6337 46.1825 56.8979L37.9115 73.182C37.6228 73.1457 37.3295 73.1249 37.0312 73.1249C33.1542 73.1249 30 76.2792 30 80.1562C30 84.0332 33.1542 87.1874 37.0312 87.1874C37.3295 87.1874 37.6228 87.1666 37.9115 87.1304L46.1826 103.414C44.9678 104.679 44.2187 106.393 44.2187 108.281C44.2187 112.158 47.3729 115.312 51.25 115.312C54.3054 115.312 56.9106 113.353 57.8781 110.625H82.1218C83.0893 113.353 85.6944 115.312 88.7499 115.312C92.6269 115.312 95.7811 112.158 95.7811 108.281C95.7811 106.393 95.0321 104.679 93.8174 103.414L102.088 87.1304C102.377 87.1666 102.67 87.1874 102.969 87.1874C106.846 87.1874 110 84.0332 110 80.1562C110 76.2792 106.846 73.1249 102.969 73.1249ZM97.8988 75.2848L86.3804 71.3601C86.396 71.169 86.4061 70.9764 86.4061 70.7812C86.4061 68.6643 85.4644 66.7643 83.9794 65.4742L88.6971 59.0611C88.7147 59.0612 88.7321 59.0625 88.7497 59.0625C89.048 59.0625 89.3413 59.0417 89.63 59.0054L97.8988 75.2848ZM77.2723 77.491C77.9365 77.6998 78.6427 77.8124 79.3749 77.8124C81.363 77.8124 83.1596 76.9818 84.4396 75.6509L95.8135 79.5263L71.1734 85.6527C71.1699 85.6474 71.1666 85.642 71.163 85.6366L77.2723 77.491ZM77.0312 70.7812C77.0312 69.4889 78.0826 68.4375 79.3749 68.4375C80.6672 68.4375 81.7187 69.4889 81.7187 70.7812C81.7187 72.0735 80.6672 73.1249 79.3749 73.1249C78.0826 73.1249 77.0312 72.0735 77.0312 70.7812ZM88.7499 49.6875C90.0422 49.6875 91.0936 50.7389 91.0936 52.0312C91.0936 53.3236 90.0422 54.375 88.7499 54.375C87.4575 54.375 86.4061 53.3236 86.4061 52.0312C86.4061 50.7389 87.4575 49.6875 88.7499 49.6875ZM82.1218 54.375C82.5319 55.5314 83.2366 56.5489 84.1454 57.3383L79.4277 63.7514C79.4101 63.7512 79.3926 63.75 79.3749 63.75C77.7958 63.75 76.3368 64.2734 75.1618 65.1556L58.9909 54.375H82.1218ZM72.559 69.054C72.4188 69.6068 72.3437 70.1856 72.3437 70.7812C72.3437 72.2207 72.7791 73.5599 73.5243 74.6757L67.4151 82.8213C66.7509 82.6127 66.0446 82.4999 65.3124 82.4999C65.2681 82.4999 65.2243 82.5024 65.1802 82.5032L55.9959 58.0119L72.559 69.054ZM67.6562 89.5312C67.6562 90.8235 66.6048 91.8749 65.3124 91.8749C64.0201 91.8749 62.9687 90.8235 62.9687 89.5312C62.9687 88.2388 64.0201 87.1874 65.3124 87.1874C66.6048 87.1874 67.6562 88.2388 67.6562 89.5312ZM51.25 49.6875C52.5423 49.6875 53.5937 50.7389 53.5937 52.0312C53.5937 53.3236 52.5423 54.375 51.25 54.375C49.9576 54.375 48.9062 53.3236 48.9062 52.0312C48.9062 50.7389 49.9576 49.6875 51.25 49.6875ZM50.3698 59.0054C50.6584 59.0417 50.9517 59.0625 51.25 59.0625C51.2943 59.0625 51.3381 59.06 51.3821 59.0592L60.7918 84.1513C60.4138 84.4696 60.0703 84.827 59.7663 85.217L44.0592 80.0234C44.0248 78.1884 43.2848 76.524 42.0987 75.2895L50.3698 59.0054ZM37.0312 82.4999C35.7389 82.4999 34.6875 81.4485 34.6875 80.1562C34.6875 78.8638 35.7389 77.8124 37.0312 77.8124C38.3236 77.8124 39.375 78.8638 39.375 80.1562C39.375 81.4485 38.3236 82.4999 37.0312 82.4999ZM51.25 110.625C49.9576 110.625 48.9062 109.573 48.9062 108.281C48.9062 106.989 49.9576 105.937 51.25 105.937C52.5423 105.937 53.5937 106.989 53.5937 108.281C53.5937 109.573 52.5423 110.625 51.25 110.625ZM53.3528 101.571C52.6884 101.363 51.9821 101.25 51.25 101.25C50.9517 101.25 50.6584 101.271 50.3696 101.307L42.0987 85.0229C42.2676 84.8471 42.4273 84.6627 42.5773 84.4704L58.2846 89.664C58.3106 91.0529 58.7398 92.3444 59.462 93.4257L53.3528 101.571ZM57.8781 105.937C57.6824 105.386 57.4204 104.866 57.1006 104.387L63.2098 96.241C63.874 96.4497 64.5802 96.5624 65.3124 96.5624C66.6734 96.5624 67.9445 96.1726 69.0221 95.5004L82.0685 105.937H57.8781ZM88.7499 110.625C87.4575 110.625 86.4061 109.573 86.4061 108.281C86.4061 106.989 87.4575 105.937 88.7499 105.937C90.0422 105.937 91.0936 106.989 91.0936 108.281C91.0936 109.573 90.0422 110.625 88.7499 110.625ZM89.6302 101.307C89.3414 101.271 89.0482 101.25 88.7499 101.25C87.389 101.25 86.1179 101.64 85.0402 102.312L71.952 91.8413C72.1341 91.3191 72.2571 90.7696 72.3112 90.1999L97.1078 84.0346C97.3424 84.3879 97.6085 84.7182 97.9013 85.0229L89.6302 101.307ZM102.969 82.4999C101.676 82.4999 100.625 81.4485 100.625 80.1562C100.625 78.8638 101.676 77.8124 102.969 77.8124C104.261 77.8124 105.312 78.8638 105.312 80.1562C105.312 81.4485 104.261 82.4999 102.969 82.4999Z" fill="white"/>
</svg>
