<svg width="141" height="160" viewBox="0 0 141 160" fill="none" xmlns="http://www.w3.org/2000/svg">
<path d="M66.0177 1.19483C68.777 -0.398276 72.1767 -0.398277 74.936 1.19483L136.495 36.7357C139.254 38.3288 140.954 41.273 140.954 44.4592V115.541C140.954 118.727 139.254 121.671 136.495 123.264L74.936 158.805C72.1767 160.398 68.777 160.398 66.0177 158.805L4.45916 123.264C1.69982 121.671 0 118.727 0 115.541V44.4592C0 41.273 1.69982 38.3288 4.45916 36.7357L66.0177 1.19483Z" fill="#F58220"/>
<path d="M109.235 100.759C108.364 99.8881 89.5207 81.0445 88.4762 80.0001L100.974 67.5023C106.068 62.4084 106.068 54.1202 100.974 49.0262C95.8801 43.9326 87.5917 43.9326 82.4979 49.0262L70.0002 61.5238C70.0001 61.5238 50.0176 41.5415 49.2412 40.7651C48.2213 39.7452 46.5663 39.7447 45.546 40.7651L30.7654 55.546C29.7449 56.5665 29.7449 58.2207 30.7654 59.2412L51.5244 80.0003L41.4655 90.0592C41.1502 90.3745 40.9082 90.787 40.7899 91.2282L35.3527 111.446C34.8308 113.386 36.6115 115.17 38.5546 114.648L58.7724 109.211C59.1988 109.096 59.619 108.857 59.9415 108.535L70.0004 98.4761L90.7595 119.235C91.7792 120.255 93.4343 120.255 94.4547 119.235L109.235 104.454C110.255 103.434 110.256 101.779 109.235 100.759ZM86.1931 52.7216C89.2495 49.6654 94.2223 49.6655 97.2787 52.7216C100.335 55.778 100.335 60.7509 97.2787 63.8073L95.8665 65.2195C95.5545 64.9074 85.0937 54.4466 84.7809 54.1338L86.1931 52.7216ZM36.3082 57.3934L47.3938 46.3077L51.089 50.0029L49.2415 51.8505C48.221 52.871 48.221 54.5252 49.2415 55.5457C50.2618 56.5662 51.9162 56.5663 52.9366 55.5457L54.7841 53.698L58.9148 57.8287L53.3719 63.3715C52.3515 64.3918 52.3515 66.0462 53.3719 67.0667C54.3924 68.087 56.0466 68.0873 57.0671 67.0667L62.6099 61.5238L66.3051 65.219L55.2194 76.3046L36.3082 57.3934ZM81.086 57.8287L84.7814 61.524L50.7035 95.6017L47.0083 91.9065C48.7865 90.1284 79.3365 59.5782 81.086 57.8287ZM41.5769 108.423L44.6622 96.9509L53.0494 105.338L41.5769 108.423ZM58.0938 102.992L54.3987 99.2969L88.4764 65.2192L92.1715 68.9145L58.0938 102.992ZM92.6068 113.692L73.6956 94.7808L84.7812 83.6951L88.4764 87.3904L82.9335 92.9333C81.9131 93.9537 81.9131 95.6079 82.9335 96.6284C83.9539 97.6489 85.6082 97.649 86.6287 96.6284L92.1715 91.0856L95.8668 94.7809L94.0192 96.6286C92.9987 97.649 92.9987 99.3033 94.0192 100.324C95.0395 101.344 96.6939 101.344 97.7143 100.324L99.562 98.4761L103.693 102.607L92.6068 113.692Z" fill="white"/>
</svg>
