<svg width="250" height="250" viewBox="0 0 250 250" fill="none" xmlns="http://www.w3.org/2000/svg">
<circle cx="125" cy="125" r="125" fill="white"/>
<path d="M116.016 110.547H86.7188V128.125H116.016V110.547ZM110.156 122.266H92.5781V116.406H110.156V122.266Z" fill="#F58220"/>
<path d="M110.156 133.984H116.016V139.844H110.156V133.984Z" fill="#F58220"/>
<path d="M98.4375 133.984H104.297V139.844H98.4375V133.984Z" fill="#F58220"/>
<path d="M86.7188 133.984H92.5781V139.844H86.7188V133.984Z" fill="#F58220"/>
<path d="M86.7188 157.422H92.5781V163.281H86.7188V157.422Z" fill="#F58220"/>
<path d="M98.4375 157.422H104.297V163.281H98.4375V157.422Z" fill="#F58220"/>
<path d="M98.4375 145.703H104.297V151.562H98.4375V145.703Z" fill="#F58220"/>
<path d="M86.7188 145.703H92.5781V151.562H86.7188V145.703Z" fill="#F58220"/>
<path d="M110.156 145.703H116.016V163.281H110.156V145.703Z" fill="#F58220"/>
<path d="M133.594 116.406H163.281V122.266H133.594V116.406Z" fill="#F58220"/>
<path d="M133.594 128.125H163.281V133.984H133.594V128.125Z" fill="#F58220"/>
<path d="M133.594 139.844H163.281V145.703H133.594V139.844Z" fill="#F58220"/>
<path d="M133.594 151.562H163.281V157.422H133.594V151.562Z" fill="#F58220"/>
<path d="M149.86 75H98.4436L98.4612 98.8281H75V175H175V100.558L149.86 75ZM151.562 85.0861L165.079 98.8281H151.562V85.0861ZM121.875 169.141H80.8594V104.688H121.875V169.141ZM169.141 169.141H127.734V98.8281H104.297L104.255 80.8594H145.703V104.688H169.141V169.141Z" fill="#F58220"/>
</svg>
