<svg width="250" height="250" viewBox="0 0 250 250" fill="none" xmlns="http://www.w3.org/2000/svg">
<circle cx="125" cy="125" r="125" fill="white"/>
<path d="M125 75C97.43 75 75 97.43 75 125C75 152.57 97.43 175 125 175C152.57 175 175 152.57 175 125C175 97.43 152.57 75 125 75ZM125 165.909C102.443 165.909 84.0909 147.557 84.0909 125C84.0909 102.443 102.443 84.0909 125 84.0909C147.557 84.0909 165.909 102.443 165.909 125C165.909 147.557 147.557 165.909 125 165.909Z" fill="#F58220"/>
<path d="M137.214 137.214C130.479 143.948 119.522 143.949 112.787 137.214C111.012 135.439 108.134 135.439 106.359 137.214C104.584 138.989 104.584 141.867 106.359 143.642C111.499 148.783 118.248 151.352 125.001 151.352C131.751 151.352 138.504 148.781 143.643 143.642C145.418 141.867 145.418 138.989 143.643 137.214C141.867 135.439 138.989 135.439 137.214 137.214Z" fill="#F58220"/>
<path d="M109.891 119.588C111.022 118.461 111.667 116.897 111.667 115.303C111.667 113.709 111.022 112.145 109.891 111.018C108.764 109.891 107.2 109.242 105.607 109.242C104.009 109.242 102.449 109.891 101.321 111.018C100.191 112.145 99.5459 113.709 99.5459 115.303C99.5459 116.897 100.191 118.461 101.321 119.588C102.449 120.718 104.013 121.364 105.607 121.364C107.2 121.364 108.764 120.718 109.891 119.588Z" fill="#F58220"/>
<path d="M144.394 109.242C142.8 109.242 141.236 109.891 140.108 111.018C138.981 112.145 138.333 113.706 138.333 115.303C138.333 116.9 138.981 118.461 140.108 119.588C141.236 120.718 142.8 121.364 144.394 121.364C145.988 121.364 147.551 120.718 148.678 119.588C149.806 118.461 150.454 116.9 150.454 115.303C150.454 113.709 149.805 112.145 148.678 111.018C147.551 109.891 145.988 109.242 144.394 109.242Z" fill="#F58220"/>
</svg>
