<svg width="250" height="250" viewBox="0 0 250 250" fill="none" xmlns="http://www.w3.org/2000/svg">
<circle cx="125" cy="125" r="125" fill="white"/>
<path d="M170.376 81.8787H143.937V78.7649C143.937 76.6857 142.252 75 140.172 75C138.092 75 136.407 76.6857 136.407 78.7649V81.8787H113.733V78.7649C113.733 76.6857 112.048 75 109.969 75C107.889 75 106.204 76.6857 106.204 78.7649V81.8787H79.7649C77.6852 81.8787 76 83.5644 76 85.6436V171.235C76 173.314 77.6852 175 79.7649 175H170.376C172.455 175 174.141 173.314 174.141 171.235V85.6436C174.141 83.5644 172.455 81.8787 170.376 81.8787ZM106.204 89.4086V95.2391C106.204 97.3184 107.889 99.0041 109.969 99.0041C112.048 99.0041 113.733 97.3184 113.733 95.2391V89.4086H136.407V95.2391C136.407 97.3184 138.092 99.0041 140.172 99.0041C142.252 99.0041 143.937 97.3184 143.937 95.2391V89.4086H166.611V104.532H83.5298V89.4086H106.204ZM83.5298 167.47V112.062H166.611V167.47H83.5298Z" fill="#F58220"/>
</svg>
