<svg width="250" height="250" viewBox="0 0 250 250" fill="none" xmlns="http://www.w3.org/2000/svg">
<circle cx="125" cy="125" r="125" fill="white"/>
<path d="M171.09 101.658C169.008 92.0796 160.679 85 150.685 85H96.5467C94.048 85 92.3823 86.6657 92.3823 89.1644V122.064L84.0533 159.127C83.6369 161.626 85.719 164.125 88.2177 164.125H113.204C115.287 164.125 116.952 162.875 117.369 160.793L119.451 151.631H129.862C132.361 151.631 134.027 149.965 134.027 147.467V134.973C134.027 132.475 132.361 130.809 129.862 130.809H124.032L124.865 126.645H150.685C160.679 126.645 169.008 119.565 171.09 109.987H184V101.658H171.09V101.658ZM109.873 155.796H93.2152L94.0482 151.631H100.711V143.302H96.1303L96.9633 139.138H104.876V130.809H99.0453L99.8783 126.645H116.536L109.873 155.796ZM125.698 139.138V143.302H121.117L121.95 139.138H125.698ZM142.356 118.316H100.711V93.329H142.356V118.316ZM150.685 118.316V93.329C157.764 93.329 163.178 98.7427 163.178 105.822C163.178 112.902 157.764 118.316 150.685 118.316Z" fill="#F58220"/>
<path d="M129.862 109.987C132.162 109.987 134.027 108.122 134.027 105.822C134.027 103.522 132.162 101.658 129.862 101.658C127.562 101.658 125.698 103.522 125.698 105.822C125.698 108.122 127.562 109.987 129.862 109.987Z" fill="#F58220"/>
<path d="M113.204 109.987C115.504 109.987 117.369 108.122 117.369 105.822C117.369 103.522 115.504 101.658 113.204 101.658C110.905 101.658 109.04 103.522 109.04 105.822C109.04 108.122 110.905 109.987 113.204 109.987Z" fill="#F58220"/>
</svg>
