<svg width="250" height="250" viewBox="0 0 250 250" fill="none" xmlns="http://www.w3.org/2000/svg">
<circle cx="125" cy="125" r="125" fill="white"/>
<path d="M168.198 134.599C168.198 123.104 150.339 96.9213 148.303 93.9732C147.568 92.9085 146.356 92.273 145.061 92.273C143.767 92.273 142.555 92.9085 141.82 93.9737C141.132 94.9695 138.639 98.6184 135.639 103.455C127.566 89.2985 118.984 76.842 118.886 76.7002C118.15 75.6355 116.938 75 115.644 75C114.35 75 113.138 75.6355 112.403 76.7007C109.188 81.3549 81 122.684 81 140.358C81 159.46 96.5413 175 115.644 175C127.983 175 139.485 168.292 145.636 157.712C158.129 157.406 168.198 147.16 168.198 134.599ZM115.645 167.122C100.886 167.122 88.8791 155.116 88.8791 140.358C88.8791 128.905 105.967 100.648 115.636 86.0016C119.305 91.5733 125.493 101.266 130.996 111.289C126.322 119.588 121.932 128.899 121.932 134.599C121.932 144.565 128.268 153.079 137.123 156.324C132.121 163.004 124.14 167.122 115.645 167.122ZM145.062 149.849C136.652 149.849 129.81 143.008 129.81 134.599C129.81 130.483 133.943 121.94 138.792 113.536C138.881 113.404 138.958 113.266 139.03 113.124C141.008 109.713 143.095 106.337 145.063 103.302C151.955 113.926 160.319 128.739 160.319 134.599C160.319 143.008 153.475 149.849 145.062 149.849Z" fill="#F58220"/>
</svg>
