<svg width="250" height="250" viewBox="0 0 250 250" fill="none" xmlns="http://www.w3.org/2000/svg">
<circle cx="125" cy="125" r="125" fill="white"/>
<path d="M172.071 139.648C170.453 139.648 169.141 140.96 169.141 142.578V150.075L157.778 145.832C157.57 145.726 157.351 145.642 157.123 145.587L126.025 133.974C125.364 133.727 124.636 133.727 123.975 133.974L92.8785 145.587C92.6498 145.641 92.4299 145.725 92.2213 145.832L80.8594 150.075V142.578C80.8594 140.96 79.5477 139.648 77.9297 139.648C76.3117 139.648 75 140.96 75 142.578V154.297C75 154.302 75.0008 154.306 75.0008 154.311C75.007 155.55 75.7943 156.623 76.8947 157.038L123.965 174.811C124.299 174.937 124.649 175 125 175C125.351 175 125.701 174.937 126.035 174.811L173.105 157.038C174.219 156.618 174.993 155.545 174.999 154.311C174.999 154.306 175 154.302 175 154.297V142.578C175 140.96 173.688 139.648 172.071 139.648ZM140.66 145.694L148.031 148.446L140.723 151.17L133.367 148.429L140.66 145.694ZM125 139.846L132.299 142.571L125 145.308L117.701 142.571L125 139.846ZM125 151.564L132.333 154.297L125 157.03L117.667 154.297L125 151.564ZM93.5074 157.047L86.2633 154.312L93.5883 151.577L100.888 154.297L93.5074 157.047ZM109.173 162.962L101.842 160.194L109.277 157.423L116.633 160.165L109.173 162.962ZM109.277 151.17L101.969 148.447L109.34 145.694L116.634 148.429L109.277 151.17ZM125 168.939L117.488 166.102L125 163.285L132.512 166.102L125 168.939ZM140.827 162.962L133.367 160.165L140.723 157.423L148.158 160.194L140.827 162.962ZM156.493 157.047L149.112 154.297L156.412 151.577L163.737 154.312L156.493 157.047Z" fill="#F58220"/>
<path d="M150.078 86.5179L126.25 75.2799C125.455 74.9053 124.535 74.9068 123.742 75.284L100.109 86.522C99.0844 87.0111 98.4377 88.0502 98.4377 89.1627C98.4377 89.1644 98.4375 89.166 98.4375 89.1678V115.855C98.4375 116.979 99.0809 118.005 100.094 118.494L123.726 129.904C124.508 130.282 125.446 130.299 126.265 129.908L150.094 118.498C151.111 118.011 151.758 116.983 151.758 115.855V89.1678C151.758 89.1668 151.758 89.166 151.758 89.165C151.758 88.0529 151.112 87.0056 150.078 86.5179ZM122.071 122.598L104.297 114.017V93.9193L122.071 102.853V122.598ZM125.005 97.7705L108.036 89.2406L125.005 81.1713L142.115 89.2408L125.005 97.7705ZM145.899 114.01L127.93 122.614V102.86L145.899 93.9015V114.01Z" fill="#F58220"/>
<path d="M77.9297 104.297C76.3117 104.297 75 105.609 75 107.227V113.086C75 114.704 76.3117 116.016 77.9297 116.016C79.5477 116.016 80.8594 114.704 80.8594 113.086V107.227C80.8594 105.609 79.5477 104.297 77.9297 104.297Z" fill="#F58220"/>
<path d="M77.9297 121.875C76.3117 121.875 75 123.187 75 124.805V130.664C75 132.282 76.3117 133.594 77.9297 133.594C79.5477 133.594 80.8594 132.282 80.8594 130.664V124.805C80.8594 123.187 79.5477 121.875 77.9297 121.875Z" fill="#F58220"/>
<path d="M77.9297 86.7188C76.3117 86.7188 75 88.0305 75 89.6484V95.5078C75 97.1258 76.3117 98.4375 77.9297 98.4375C79.5477 98.4375 80.8594 97.1258 80.8594 95.5078V89.6484C80.8594 88.0305 79.5477 86.7188 77.9297 86.7188Z" fill="#F58220"/>
<path d="M172.07 104.297C170.452 104.297 169.141 105.609 169.141 107.227V113.086C169.141 114.704 170.452 116.016 172.07 116.016C173.688 116.016 175 114.704 175 113.086V107.227C175 105.609 173.688 104.297 172.07 104.297Z" fill="#F58220"/>
<path d="M172.07 121.875C170.452 121.875 169.141 123.187 169.141 124.805V130.664C169.141 132.282 170.452 133.594 172.07 133.594C173.688 133.594 175 132.282 175 130.664V124.805C175 123.187 173.688 121.875 172.07 121.875Z" fill="#F58220"/>
<path d="M172.07 86.7188C170.452 86.7188 169.141 88.0305 169.141 89.6484V95.5078C169.141 97.1258 170.452 98.4375 172.07 98.4375C173.688 98.4375 175 97.1258 175 95.5078V89.6484C175 88.0305 173.688 86.7188 172.07 86.7188Z" fill="#F58220"/>
<path d="M89.6484 92.5781C88.0305 92.5781 86.7188 93.8898 86.7188 95.5078V101.367C86.7188 102.985 88.0305 104.297 89.6484 104.297C91.2664 104.297 92.5781 102.985 92.5781 101.367V95.5078C92.5781 93.8898 91.2664 92.5781 89.6484 92.5781Z" fill="#F58220"/>
<path d="M89.6484 110.156C88.0305 110.156 86.7188 111.468 86.7188 113.086V118.945C86.7188 120.563 88.0305 121.875 89.6484 121.875C91.2664 121.875 92.5781 120.563 92.5781 118.945V113.086C92.5781 111.468 91.2664 110.156 89.6484 110.156Z" fill="#F58220"/>
<path d="M89.6484 127.734C88.0305 127.734 86.7188 129.046 86.7188 130.664V136.719C86.7188 138.337 88.0305 139.648 89.6484 139.648C91.2664 139.648 92.5781 138.337 92.5781 136.719V130.664C92.5781 129.046 91.2664 127.734 89.6484 127.734Z" fill="#F58220"/>
<path d="M89.6484 75C88.0305 75 86.7188 76.3117 86.7188 77.9297V83.7891C86.7188 85.407 88.0305 86.7188 89.6484 86.7188C91.2664 86.7188 92.5781 85.407 92.5781 83.7891V77.9297C92.5781 76.3117 91.2664 75 89.6484 75Z" fill="#F58220"/>
<path d="M160.352 92.5781C158.734 92.5781 157.422 93.8898 157.422 95.5078V101.367C157.422 102.985 158.734 104.297 160.352 104.297C161.97 104.297 163.281 102.985 163.281 101.367V95.5078C163.281 93.8898 161.97 92.5781 160.352 92.5781Z" fill="#F58220"/>
<path d="M160.352 110.156C158.734 110.156 157.422 111.468 157.422 113.086V118.945C157.422 120.563 158.734 121.875 160.352 121.875C161.97 121.875 163.281 120.563 163.281 118.945V113.086C163.281 111.468 161.97 110.156 160.352 110.156Z" fill="#F58220"/>
<path d="M160.352 127.734C158.734 127.734 157.422 129.046 157.422 130.664V136.719C157.422 138.337 158.734 139.648 160.352 139.648C161.97 139.648 163.281 138.337 163.281 136.719V130.664C163.281 129.046 161.97 127.734 160.352 127.734Z" fill="#F58220"/>
<path d="M160.352 75C158.734 75 157.422 76.3117 157.422 77.9297V83.7891C157.422 85.407 158.734 86.7188 160.352 86.7188C161.97 86.7188 163.281 85.407 163.281 83.7891V77.9297C163.281 76.3117 161.97 75 160.352 75Z" fill="#F58220"/>
</svg>
