<svg width="250" height="250" viewBox="0 0 250 250" fill="none" xmlns="http://www.w3.org/2000/svg">
<circle cx="125" cy="125" r="125" fill="white"/>
<path d="M186.946 105.216H172.081V101.162C172.081 98.9232 170.266 97.108 168.027 97.108H155.865V93.0541C155.865 90.8152 154.05 89 151.811 89H95.0541C92.8152 89 91 90.8152 91 93.0541V157.919C91 160.158 92.8152 161.973 95.0541 161.973H113.973C116.212 161.973 118.027 160.158 118.027 157.919V145.757H130.189C132.428 145.757 134.243 143.941 134.243 141.703V129.541H151.811C154.05 129.541 155.865 127.725 155.865 125.486V121.432H168.027C170.266 121.432 172.081 119.617 172.081 117.378V113.324H186.946C189.185 113.324 191 111.509 191 109.27C191 107.031 189.185 105.216 186.946 105.216ZM126.135 137.649H118.027V129.541H126.135V137.649ZM131.541 121.432H130.189H113.973C111.734 121.432 109.919 123.248 109.919 125.486V141.703V153.865H99.108V97.1082H131.54V121.432H131.541ZM147.757 101.162V117.378V121.432H139.649V97.1082H147.757V101.162ZM163.973 113.324H155.865V105.216H163.973V113.324Z" fill="#F58220"/>
</svg>
