<svg width="250" height="250" viewBox="0 0 250 250" fill="none" xmlns="http://www.w3.org/2000/svg">
<circle cx="125" cy="125" r="125" fill="white"/>
<path d="M145.806 91.6786C144.131 91.6786 142.875 91.6786 141.2 92.0973C139.107 80.7923 128.221 73.2557 116.916 75.3493C108.123 77.024 101.424 83.7234 100.168 92.0973C88.8627 94.1909 81.326 105.077 83.4196 116.382C85.0943 126.431 93.8871 133.549 103.936 133.549H145.806C157.53 133.549 166.741 124.337 166.741 112.614C166.741 100.89 157.53 91.6786 145.806 91.6786ZM145.806 125.175H103.936C96.8179 125.175 91.3749 119.732 91.3749 112.614C91.3749 105.496 96.8179 100.053 103.936 100.053C106.448 100.053 108.123 98.3778 108.123 95.8656C108.123 88.7476 113.566 83.3045 120.684 83.3045C127.802 83.3045 133.245 88.7476 133.245 95.8656C133.245 97.9592 132.408 99.2153 134.082 100.89C135.339 102.565 137.851 102.984 139.525 101.727C141.619 100.471 143.712 100.053 145.806 100.053C152.924 100.053 158.367 105.496 158.367 112.614C158.367 119.732 152.924 125.175 145.806 125.175Z" fill="#F58220"/>
<path d="M157.11 146.947C155.436 145.272 152.923 145.272 151.248 146.947C149.155 149.041 141.618 156.577 141.618 162.439C141.618 169.557 147.061 175 154.179 175C161.297 175 166.74 169.557 166.74 162.439C166.74 156.577 159.204 149.041 157.11 146.947ZM154.179 166.626C151.667 166.626 149.992 164.951 149.992 162.439C150.83 159.927 152.505 157.833 154.179 155.74C155.854 157.415 157.529 159.927 158.366 162.439C158.366 164.951 156.692 166.626 154.179 166.626Z" fill="#F58220"/>
<path d="M127.802 138.573C126.127 136.898 123.615 136.898 121.94 138.573C119.846 140.667 112.31 148.203 112.31 154.065C112.31 161.183 117.753 166.626 124.871 166.626C131.989 166.626 137.432 161.183 137.432 154.065C137.432 148.203 129.895 140.667 127.802 138.573ZM124.871 158.252C122.358 158.252 120.684 156.577 120.684 154.065C121.521 151.553 123.196 149.46 124.871 147.366C126.545 149.041 128.22 151.553 129.058 154.065C129.058 156.577 127.383 158.252 124.871 158.252Z" fill="#F58220"/>
<path d="M98.4921 146.947C96.8174 145.272 94.3051 145.272 92.6302 146.947C90.5366 149.041 83 156.577 83 162.439C83 169.557 88.4431 175 95.5611 175C102.679 175 108.122 169.557 108.122 162.439C108.122 156.577 100.586 149.041 98.4921 146.947ZM95.5612 166.626C93.049 166.626 91.3743 164.951 91.3743 162.439C92.2118 159.927 93.8865 157.833 95.5612 155.74C97.236 157.415 98.9109 159.927 99.7482 162.439C99.7482 164.951 98.0735 166.626 95.5612 166.626Z" fill="#F58220"/>
</svg>
