<svg width="250" height="250" viewBox="0 0 250 250" fill="none" xmlns="http://www.w3.org/2000/svg">
<circle cx="125" cy="125" r="125" fill="white"/>
<path d="M125 116.211C120.154 116.211 116.211 120.154 116.211 125C116.211 129.846 120.154 133.789 125 133.789C129.846 133.789 133.789 129.846 133.789 125C133.789 120.154 129.846 116.211 125 116.211ZM125 127.93C123.385 127.93 122.07 126.615 122.07 125C122.07 123.385 123.385 122.07 125 122.07C126.615 122.07 127.93 123.385 127.93 125C127.93 126.615 126.615 127.93 125 127.93Z" fill="#F58220"/>
<path d="M83.9844 75H77.9297C76.3117 75 75 76.3117 75 77.9297V83.9844C75 85.6023 76.3117 86.9141 77.9297 86.9141C79.5477 86.9141 80.8594 85.6023 80.8594 83.9844V80.8594H83.9844C85.6023 80.8594 86.9141 79.5477 86.9141 77.9297C86.9141 76.3117 85.6023 75 83.9844 75Z" fill="#F58220"/>
<path d="M77.9297 92.7734C76.3117 92.7734 75 94.0852 75 95.7031V101.562C75 103.18 76.3117 104.492 77.9297 104.492C79.5477 104.492 80.8594 103.18 80.8594 101.562V95.7031C80.8594 94.0852 79.5477 92.7734 77.9297 92.7734Z" fill="#F58220"/>
<path d="M77.9297 145.508C76.3117 145.508 75 146.82 75 148.438V154.297C75 155.915 76.3117 157.227 77.9297 157.227C79.5477 157.227 80.8594 155.915 80.8594 154.297V148.438C80.8594 146.82 79.5477 145.508 77.9297 145.508Z" fill="#F58220"/>
<path d="M172.07 145.508C170.452 145.508 169.141 146.82 169.141 148.438V154.297C169.141 155.915 170.452 157.227 172.07 157.227C173.688 157.227 175 155.915 175 154.297V148.438C175 146.82 173.688 145.508 172.07 145.508Z" fill="#F58220"/>
<path d="M172.07 92.7734C170.452 92.7734 169.141 94.0852 169.141 95.7031V101.562C169.141 103.18 170.452 104.492 172.07 104.492C173.688 104.492 175 103.18 175 101.562V95.7031C175 94.0852 173.688 92.7734 172.07 92.7734Z" fill="#F58220"/>
<path d="M101.562 75H95.7031C94.0852 75 92.7734 76.3117 92.7734 77.9297C92.7734 79.5477 94.0852 80.8594 95.7031 80.8594H101.562C103.18 80.8594 104.492 79.5477 104.492 77.9297C104.492 76.3117 103.18 75 101.562 75Z" fill="#F58220"/>
<path d="M101.562 169.141H95.7031C94.0852 169.141 92.7734 170.452 92.7734 172.07C92.7734 173.688 94.0852 175 95.7031 175H101.562C103.18 175 104.492 173.688 104.492 172.07C104.492 170.452 103.18 169.141 101.562 169.141Z" fill="#F58220"/>
<path d="M154.297 75H148.438C146.82 75 145.508 76.3117 145.508 77.9297C145.508 79.5477 146.82 80.8594 148.438 80.8594H154.297C155.915 80.8594 157.227 79.5477 157.227 77.9297C157.227 76.3117 155.915 75 154.297 75Z" fill="#F58220"/>
<path d="M154.297 169.141H148.438C146.82 169.141 145.508 170.452 145.508 172.07C145.508 173.688 146.82 175 148.438 175H154.297C155.915 175 157.227 173.688 157.227 172.07C157.227 170.452 155.915 169.141 154.297 169.141Z" fill="#F58220"/>
<path d="M172.07 75H166.016C164.398 75 163.086 76.3117 163.086 77.9297C163.086 79.5477 164.398 80.8594 166.016 80.8594H169.141V83.9844C169.141 85.6023 170.452 86.9141 172.07 86.9141C173.688 86.9141 175 85.6023 175 83.9844V77.9297C175 76.3117 173.688 75 172.07 75Z" fill="#F58220"/>
<path d="M83.9844 169.141H80.8594V166.016C80.8594 164.398 79.5477 163.086 77.9297 163.086C76.3117 163.086 75 164.398 75 166.016V172.07C75 173.688 76.3117 175 77.9297 175H83.9844C85.6023 175 86.9141 173.688 86.9141 172.07C86.9141 170.452 85.6023 169.141 83.9844 169.141Z" fill="#F58220"/>
<path d="M172.07 163.086C170.452 163.086 169.141 164.398 169.141 166.016V169.141H166.016C164.398 169.141 163.086 170.452 163.086 172.07C163.086 173.688 164.398 175 166.016 175H172.07C173.688 175 175 173.688 175 172.07V166.016C175 164.398 173.688 163.086 172.07 163.086Z" fill="#F58220"/>
<path d="M125 81.0547C100.713 81.0547 81.0547 100.71 81.0547 125C81.0547 149.287 100.71 168.945 125 168.945C149.287 168.945 168.945 149.29 168.945 125C168.945 100.713 149.29 81.0547 125 81.0547ZM125 86.9141C143.499 86.9141 158.957 100.172 162.378 117.684C152.014 109.472 138.906 104.492 125 104.492C111.118 104.492 97.9977 109.463 87.6219 117.684C91.0432 100.172 106.501 86.9141 125 86.9141ZM141.623 113.005C149.337 115.552 156.536 119.97 161.901 125C156.549 130.018 149.353 134.443 141.623 136.995C144.066 133.62 145.508 129.475 145.508 125C145.508 120.525 144.066 116.38 141.623 113.005ZM139.648 125C139.648 133.077 133.077 139.648 125 139.648C116.923 139.648 110.352 133.077 110.352 125C110.352 116.923 116.923 110.352 125 110.352C133.077 110.352 139.648 116.923 139.648 125ZM108.377 136.995C100.663 134.448 93.4637 130.03 88.099 125C93.4512 119.982 100.647 115.557 108.377 113.005C105.934 116.38 104.492 120.525 104.492 125C104.492 129.475 105.934 133.62 108.377 136.995ZM125 163.086C106.501 163.086 91.0432 149.828 87.6219 132.316C97.9857 140.528 111.094 145.508 125 145.508C138.882 145.508 152.002 140.537 162.378 132.316C158.957 149.828 143.499 163.086 125 163.086Z" fill="#F58220"/>
</svg>
