<svg width="250" height="250" viewBox="0 0 250 250" fill="none" xmlns="http://www.w3.org/2000/svg">
<circle cx="125" cy="125" r="125" fill="white"/>
<path d="M170.833 75H125C122.699 75 120.833 76.8654 120.833 79.1666V87.5H91.6666C89.3654 87.5 87.5 89.3654 87.5 91.6666V120.833H79.1666C76.8654 120.833 75 122.699 75 125V170.833C75 173.135 76.8654 175 79.1666 175H170.833C173.134 175 175 173.135 175 170.833V79.1666C175 76.8654 173.135 75 170.833 75ZM95.8334 95.8334H104.167V104.167H95.8334V95.8334ZM95.8334 112.5H104.167V120.833H95.8334V112.5ZM120.833 166.667H83.3334V129.167H120.833V166.667ZM120.833 120.833H112.5V112.5H120.833V120.833ZM120.833 104.167H112.5V95.8332H120.833V104.167ZM166.667 166.667H129.167V129.167H166.667V166.667ZM166.667 120.833H129.167V83.3334H166.667V120.833Z" fill="#F58220"/>
</svg>
