<svg width="250" height="250" viewBox="0 0 250 250" fill="none" xmlns="http://www.w3.org/2000/svg">
<circle cx="125" cy="125" r="125" fill="white"/>
<path d="M95.5078 131.555C97.402 131.555 98.9375 130.019 98.9375 128.125C98.9375 126.231 97.402 124.695 95.5078 124.695C93.6136 124.695 92.0781 126.231 92.0781 128.125C92.0781 130.019 93.6136 131.555 95.5078 131.555Z" fill="#F58220" stroke="#F58220"/>
<path d="M128.125 74.5C121.387 74.5 115.906 79.9809 115.906 86.7188C115.906 93.4566 121.387 98.9375 128.125 98.9375C134.863 98.9375 140.344 93.4566 140.344 86.7188C140.344 79.9809 134.863 74.5 128.125 74.5ZM128.125 92.0781C125.17 92.0781 122.766 89.6735 122.766 86.7188C122.766 83.764 125.17 81.3594 128.125 81.3594C131.08 81.3594 133.484 83.764 133.484 86.7188C133.484 89.6735 131.08 92.0781 128.125 92.0781Z" fill="#F58220" stroke="#F58220"/>
<path d="M149.951 155.303L149.593 154.954C152.201 152.275 154.231 149.005 155.464 145.5C156.431 142.749 156.922 139.861 156.922 136.914C156.922 122.65 145.316 111.008 131.055 111.008L111.481 111.047L111.48 111.047C108.843 111.047 106.338 109.924 104.608 107.964L104.608 107.964C103.052 106.2 100.803 105.188 98.4375 105.188H94.0105L96.3229 114.712C96.6219 115.856 96.3157 117.104 95.455 117.981M149.951 155.303L95.098 117.631M149.951 155.303L149.593 154.954C146.766 157.859 145.203 161.629 145.203 165.571V168.641H137.414V168.624V168.606V168.588V168.569V168.551V168.533V168.515V168.497V168.479V168.461V168.443V168.425V168.407V168.389V168.371V168.353V168.335V168.317V168.299V168.281V168.263V168.245V168.227V168.21V168.192V168.174V168.156V168.138V168.121V168.103V168.085V168.067V168.05V168.032V168.014V167.997V167.979V167.961V167.944V167.926V167.909V167.891V167.873V167.856V167.838V167.821V167.803V167.786V167.768V167.751V167.733V167.716V167.698V167.681V167.664V167.646V167.629V167.612V167.594V167.577V167.559V167.542V167.525V167.508V167.49V167.473V167.456V167.439V167.421V167.404V167.387V167.37V167.352V167.335V167.318V167.301V167.284V167.267V167.25V167.232V167.215V167.198V167.181V167.164V167.147V167.13V167.113V167.096V167.079V167.062V167.045V167.028V167.011V166.994V166.977V166.96V166.943V166.926V166.909V166.892V166.876V166.859V166.842V166.825V166.808V166.791V166.774V166.758V166.741V166.724V166.707V166.69V166.674V166.657V166.64V166.623V166.606V166.59V166.573V166.556V166.539V166.523V166.506V166.489V166.473V166.456V166.439V166.423V166.406V166.389V166.373V166.356V166.339V166.323V166.306V166.29V166.273V166.256V166.24V166.223V166.207V166.19V166.173V166.157V166.14V166.124V166.107V166.091V166.074V166.058V166.041V166.024V166.008V165.991V165.975V165.958V165.942V165.925V165.909V165.893V165.876V165.86V165.843V165.827V165.81V165.794V165.777V165.761V165.744V165.728V165.712V165.695V165.679V165.662V165.646V165.629V165.613V165.597V165.58V165.564V165.547V165.531V165.515V165.498V165.482V165.466V165.449V165.433V165.416V165.4V165.384V165.367V165.351V165.335V165.318V165.302V165.285V165.269V165.253V165.236V165.22V165.204V165.187V165.171V165.155V165.138V165.122V165.106V165.089V165.073V165.057V165.04V165.024V165.008V164.991V164.975V164.959V164.942V164.926V164.91V164.893V164.877V164.861V164.844V164.828V164.812V164.795V164.779V164.763V164.746V164.73V164.714V164.697V164.681V164.665V164.648V164.632V164.616V164.599V164.583V164.567V164.55V164.534V164.518V164.501V164.485V164.469V164.452V164.436V164.42V164.403V164.387V164.371V164.354V164.338V164.321V164.305V164.289V164.272V164.256V164.24V164.223V164.207V164.19V164.174V164.158V164.141V164.125V164.108V164.092V164.076V164.059V164.043V164.026V164.01V163.993V163.977V163.961V163.944V163.928V163.911V163.895V163.878V163.862V163.845V163.829V163.812V163.796V163.779V163.763V163.746V163.73V163.713V163.697V163.68V163.664V163.647V163.631V163.614V163.598V163.581V163.564V163.548V163.531V163.515V163.498V163.481V163.465V163.448V163.432V163.415V163.398V163.382V163.365V163.348V163.332V163.315V163.298V163.282V163.265V163.248V163.232V163.215V163.198V163.182V163.165V163.148V163.131V163.115V163.098V163.081V163.064V163.047V163.031V163.014V162.997V162.98V162.963V162.946V162.93V162.913V162.896V162.879V162.862V162.845V162.828V162.811V162.794V162.778V162.761V162.744V162.727V162.71V162.693V162.676V162.659V162.642V162.625V162.608V162.591V162.573V162.556V162.539V162.522V162.505V162.488V162.471V162.454V162.437V162.419V162.402V162.385V162.368V162.351V162.334V162.316V162.299V162.282V162.265V162.247V162.23V162.213V162.195V162.178V162.161V162.143V162.126V162.109V162.091V162.074V162.056V162.039V162.022V162.004V161.987V161.969V161.952V161.934V161.917V161.899V161.882V161.864V161.846V161.829V161.811V161.794V161.776V161.758V161.741V161.723V161.705V161.688V161.67V161.652V161.635V161.617V161.599V161.581V161.563V161.546V161.528V161.51V161.492V161.474V161.456V161.438V161.42V161.403V161.385V161.367V161.349V161.331V161.313V161.295V161.277V161.258V161.24V161.222V161.204V161.186V161.168V161.15V161.131V161.113V161.095V161.077V161.059V161.04V161.022V161.004V160.985V160.967V160.949V160.93V160.912V160.894V160.875V160.857V160.838V160.82V160.801V160.783V160.764V160.746V160.727V160.708V160.69V160.671V160.653V160.634V160.615V160.596V160.578V160.559V160.54V160.521V160.503V160.484V160.465V160.446V160.427V160.408V160.389V160.371V160.352C137.414 158.457 135.878 156.922 133.984 156.922C132.09 156.922 130.555 158.457 130.555 160.352V162.781H113.586V160.352C113.586 158.457 112.05 156.922 110.156 156.922C108.262 156.922 106.727 158.457 106.727 160.352V160.382V160.412V160.442V160.472V160.502V160.532V160.561V160.591V160.62V160.65V160.679V160.708V160.737V160.766V160.794V160.823V160.852V160.88V160.908V160.937V160.965V160.993V161.021V161.049V161.076V161.104V161.131V161.159V161.186V161.213V161.24V161.267V161.294V161.321V161.348V161.375V161.401V161.427V161.454V161.48V161.506V161.532V161.558V161.584V161.61V161.635V161.661V161.686V161.712V161.737V161.762V161.787V161.812V161.837V161.862V161.886V161.911V161.936V161.96V161.984V162.009V162.033V162.057V162.081V162.105V162.129V162.152V162.176V162.199V162.223V162.246V162.269V162.293V162.316V162.339V162.362V162.385V162.407V162.43V162.453V162.475V162.498V162.52V162.542V162.564V162.586V162.608V162.63V162.652V162.674V162.696V162.717V162.739V162.76V162.782V162.803V162.824V162.845V162.867V162.888V162.908V162.929V162.95V162.971V162.991V163.012V163.032V163.053V163.073V163.093V163.114V163.134V163.154V163.174V163.194V163.213V163.233V163.253V163.272V163.292V163.311V163.331V163.35V163.369V163.389V163.408V163.427V163.446V163.465V163.484V163.502V163.521V163.54V163.558V163.577V163.595V163.614V163.632V163.65V163.669V163.687V163.705V163.723V163.741V163.759V163.777V163.794V163.812V163.83V163.847V163.865V163.883V163.9V163.917V163.935V163.952V163.969V163.986V164.003V164.02V164.037V164.054V164.071V164.088V164.105V164.122V164.138V164.155V164.171V164.188V164.204V164.221V164.237V164.253V164.27V164.286V164.302V164.318V164.334V164.35V164.366V164.382V164.398V164.414V164.429V164.445V164.461V164.476V164.492V164.508V164.523V164.539V164.554V164.569V164.585V164.6V164.615V164.63V164.645V164.661V164.676V164.691V164.706V164.721V164.735V164.75V164.765V164.78V164.795V164.809V164.824V164.839V164.853V164.868V164.882V164.897V164.911V164.926V164.94V164.954V164.969V164.983V164.997V165.012V165.026V165.04V165.054V165.068V165.082V165.096V165.11V165.124V165.138V165.152V165.166V165.18V165.193V165.207V165.221V165.235V165.248V165.262V165.276V165.289V165.303V165.317V165.33V165.344V165.357V165.371V165.384V165.398V165.411V165.424V165.438V165.451V165.464V165.478V165.491V165.504V165.517V165.531V165.544V165.557V165.57V165.583V165.596V165.61V165.623V165.636V165.649V165.662V165.675V165.688V165.701V165.714V165.727V165.74V165.753V165.766V165.779V165.791V165.804V165.817V165.83V165.843V165.856V165.869V165.881V165.894V165.907V165.92V165.933V165.945V165.958V165.971V165.984V165.996V166.009V166.022V166.034V166.047V166.06V166.073V166.085V166.098V166.111V166.123V166.136V166.149V166.161V166.174V166.187V166.199V166.212V166.225V166.237V166.25V166.263V166.275V166.288V166.301V166.313V166.326V166.339V166.352V166.364V166.377V166.39V166.402V166.415V166.428V166.44V166.453V166.466V166.479V166.491V166.504V166.517V166.53V166.542V166.555V166.568V166.581V166.594V166.606V166.619V166.632V166.645V166.658V166.671V166.683V166.696V166.709V166.722V166.735V166.748V166.761V166.774V166.787V166.8V166.813V166.826V166.839V166.852V166.865V166.878V166.891V166.904V166.918V166.931V166.944V166.957V166.97V166.984V166.997V167.01V167.024V167.037V167.05V167.064V167.077V167.09V167.104V167.117V167.131V167.144V167.158V167.171V167.185V167.199V167.212V167.226V167.24V167.253V167.267V167.281V167.295V167.308V167.322V167.336V167.35V167.364V167.378V167.392V167.406V167.42V167.434V167.448V167.463V167.477V167.491V167.505V167.52V167.534V167.548V167.563V167.577V167.592V167.606V167.621V167.635V167.65V167.664V167.679V167.694V167.709V167.723V167.738V167.753V167.768V167.783V167.798V167.813V167.828V167.843V167.859V167.874V167.889V167.904V167.92V167.935V167.95V167.966V167.981V167.997V168.013V168.028V168.044V168.06V168.075V168.091V168.107V168.123V168.139V168.155V168.171V168.187V168.203V168.22V168.236V168.252V168.269V168.285V168.302V168.318V168.335V168.351V168.368V168.385V168.402V168.418V168.435V168.452V168.469V168.486V168.503V168.521V168.538V168.555V168.573V168.59V168.607V168.625V168.641H98.9375V163.096C98.9375 160.45 97.7777 157.955 95.7002 156.068C93.0078 153.622 90.8183 150.576 89.3697 147.26L89.3697 147.26C89.1191 146.686 88.7164 146.192 88.2052 145.831L82.3876 141.723M149.951 155.303L82.3876 141.723M95.455 117.981L95.098 117.631M95.455 117.981C95.4551 117.981 95.4552 117.981 95.4553 117.981L95.098 117.631M95.455 117.981C95.4225 118.015 95.3897 118.047 95.3568 118.078L95.3566 118.078L95.325 118.108L94.9816 117.744M95.098 117.631C95.0703 117.66 95.042 117.687 95.0133 117.714L94.9816 117.744M94.9816 117.744L95.3249 118.108M94.9816 117.744C92.3818 120.201 90.3406 123.099 88.9145 126.361M95.3249 118.108L82.099 142.131C81.3229 141.583 80.8594 140.688 80.8594 139.738V131.055C80.8594 129.439 82.1736 128.125 83.7891 128.125C84.172 128.125 84.5114 128.127 84.8141 128.129C86.3652 128.139 86.9545 128.142 87.523 127.823C87.9498 127.652 88.5842 127.112 88.9086 126.375C88.9096 126.372 88.9105 126.371 88.9113 126.368M95.3249 118.108C92.774 120.518 90.7721 123.361 89.373 126.56M95.3249 118.108L89.373 126.56M88.9145 126.361L88.9113 126.368M88.9145 126.361L89.0282 126.411M88.9145 126.361L89.0366 126.414L89.3812 126.539L89.0282 126.411M88.9113 126.368L89.0282 126.411M88.9113 126.368L89.3703 126.567L89.3726 126.561L89.0282 126.411M82.3876 141.723C82.3875 141.723 82.3875 141.723 82.3874 141.723C81.7439 141.268 81.3594 140.526 81.3594 139.738V131.055C81.3594 129.715 82.4498 128.625 83.7891 128.625C84.1583 128.625 84.4908 128.627 84.791 128.629C85.4265 128.633 85.9173 128.636 86.3057 128.617C86.8859 128.587 87.3145 128.507 87.7403 128.274M82.3876 141.723L87.7403 128.274M87.7403 128.274C88.2895 128.041 88.9967 127.414 89.3646 126.58L89.3655 126.578L87.7403 128.274ZM89.373 126.56C89.3729 126.561 89.3728 126.561 89.3727 126.561L89.373 126.56ZM131.055 104.187L131.054 104.188L111.48 104.226C111.48 104.226 111.48 104.226 111.48 104.226C110.82 104.226 110.186 103.918 109.752 103.426L109.752 103.426C106.894 100.186 102.77 98.3281 98.4375 98.3281H89.6484C88.5964 98.3281 87.6025 98.811 86.9523 99.638L87.3344 99.9385L86.9523 99.638C86.302 100.465 86.0674 101.545 86.3155 102.567L86.3155 102.567L89.2181 114.521C87.1705 116.699 85.4465 119.125 84.0682 121.766H83.7891C78.6666 121.766 74.5 125.932 74.5 131.055V139.738C74.5 142.752 75.9691 145.588 78.4307 147.326L83.4898 150.899C85.3271 154.788 87.8804 158.232 91.0882 161.145C91.4892 161.509 92.0781 162.206 92.0781 163.096V170.004C92.0781 173.035 94.5432 175.5 97.5742 175.5H108.09C111.121 175.5 113.586 173.035 113.586 170.004V169.641H130.555V170.004C130.555 173.035 133.02 175.5 136.051 175.5H146.566C149.597 175.5 152.062 173.035 152.062 170.004V165.571C152.062 163.437 152.925 161.365 154.508 159.739L154.15 159.39L154.508 159.739C157.806 156.351 160.373 152.215 161.935 147.776C163.16 144.291 163.781 140.636 163.781 136.914C163.781 136.095 163.749 135.284 163.689 134.482C165.951 134.41 168.146 133.716 170.08 132.42L169.802 132.004L170.08 132.42C173.473 130.144 175.5 126.348 175.5 122.266V119.336C175.5 117.442 173.964 115.906 172.07 115.906C170.176 115.906 168.641 117.442 168.641 119.336V122.266C168.641 124.057 167.751 125.722 166.26 126.722C165.546 127.201 164.212 127.838 162.419 127.562C158.386 114.06 145.853 104.188 131.055 104.187Z" fill="#F58220" stroke="#F58220"/>
<path d="M131.054 115.906H117.34C115.446 115.906 113.91 117.442 113.91 119.336C113.91 121.23 115.446 122.766 117.34 122.766H131.054C132.948 122.766 134.484 121.23 134.484 119.336C134.484 117.442 132.948 115.906 131.054 115.906Z" fill="#F58220" stroke="#F58220"/>
</svg>
