<svg width="250" height="250" viewBox="0 0 250 250" fill="none" xmlns="http://www.w3.org/2000/svg">
<circle cx="125" cy="125" r="125" fill="white"/>
<path d="M164.898 146.432L164.893 79.5449C164.893 77.0348 162.858 75 160.348 75H79.5455C77.0352 75 75 77.0352 75 79.5455V160.353C75 168.429 81.5703 175 89.6461 175H160.353C168.429 175 175 168.429 175 160.353C175 153.864 170.756 148.349 164.898 146.432ZM155.802 84.0908L155.808 145.707H144.701L144.696 84.0908H155.802ZM135.605 84.0908L135.61 145.707H124.498L124.492 84.0908H135.605ZM115.401 84.0908L115.407 145.707H104.294L104.288 84.0908H115.401ZM89.6461 165.909C86.583 165.909 84.091 163.417 84.091 160.353C84.091 157.29 86.5832 154.798 89.6461 154.798C92.7094 154.798 95.2018 157.29 95.2018 160.353C95.2018 163.417 92.7094 165.909 89.6461 165.909ZM89.6461 145.707C87.6803 145.707 85.8053 146.099 84.091 146.804V84.0908H95.1977L95.2033 145.707H89.6461ZM160.353 165.909H103.195C103.901 164.195 104.293 162.319 104.293 160.354C104.293 158.388 103.901 156.512 103.195 154.798H160.353C163.417 154.798 165.909 157.29 165.909 160.354C165.909 163.417 163.417 165.909 160.353 165.909Z" fill="#F58220"/>
</svg>
