<svg width="250" height="250" viewBox="0 0 250 250" fill="none" xmlns="http://www.w3.org/2000/svg">
<circle cx="125" cy="125" r="125" fill="white"/>
<path d="M145.806 91.6786C144.131 91.6786 142.875 91.6786 141.2 92.0973C139.106 80.7923 128.22 73.2557 116.915 75.3493C108.122 77.024 101.423 83.7234 100.167 92.0973C88.8622 94.1909 81.3255 105.077 83.4191 116.382C85.0938 126.431 93.8866 133.549 103.935 133.549H145.806C157.529 133.549 166.741 124.337 166.741 112.614C166.741 100.89 157.529 91.6786 145.806 91.6786ZM145.806 125.175H103.935C96.8174 125.175 91.3744 119.732 91.3744 112.614C91.3744 105.496 96.8174 100.053 103.935 100.053C106.448 100.053 108.122 98.3778 108.122 95.8656C108.122 88.7476 113.565 83.3045 120.683 83.3045C127.801 83.3045 133.244 88.7476 133.244 95.8656C133.244 97.9592 132.407 99.2153 134.082 100.89C135.338 102.565 137.85 102.984 139.525 101.727C141.619 100.471 143.712 100.053 145.806 100.053C152.924 100.053 158.367 105.496 158.367 112.614C158.367 119.732 152.924 125.175 145.806 125.175Z" fill="#F58220"/>
<path d="M157.11 146.947C155.436 145.272 152.923 145.272 151.248 146.947C149.155 149.041 141.618 156.577 141.618 162.439C141.618 169.557 147.061 175 154.179 175C161.297 175 166.74 169.557 166.74 162.439C166.74 156.577 159.204 149.041 157.11 146.947ZM154.179 166.626C151.667 166.626 149.992 164.951 149.992 162.439C150.83 159.927 152.505 157.833 154.179 155.74C155.854 157.415 157.529 159.927 158.366 162.439C158.366 164.951 156.692 166.626 154.179 166.626Z" fill="#F58220"/>
<path d="M127.801 138.573C126.126 136.898 123.614 136.898 121.939 138.573C119.846 140.667 112.309 148.203 112.309 154.065C112.309 161.183 117.752 166.626 124.87 166.626C131.988 166.626 137.431 161.183 137.431 154.065C137.431 148.203 129.895 140.667 127.801 138.573ZM124.87 158.252C122.358 158.252 120.683 156.577 120.683 154.065C121.521 151.553 123.195 149.46 124.87 147.366C126.545 149.041 128.22 151.553 129.057 154.065C129.057 156.577 127.382 158.252 124.87 158.252Z" fill="#F58220"/>
<path d="M98.4921 146.947C96.8174 145.272 94.3051 145.272 92.6302 146.947C90.5366 149.041 83 156.577 83 162.439C83 169.557 88.4431 175 95.5611 175C102.679 175 108.122 169.557 108.122 162.439C108.122 156.577 100.586 149.041 98.4921 146.947ZM95.5612 166.626C93.049 166.626 91.3743 164.951 91.3743 162.439C92.2118 159.927 93.8865 157.833 95.5612 155.74C97.236 157.415 98.9109 159.927 99.7482 162.439C99.7482 164.951 98.0735 166.626 95.5612 166.626Z" fill="#F58220"/>
</svg>
