<svg width="50" height="50" viewBox="0 0 50 50" fill="none" xmlns="http://www.w3.org/2000/svg">
<circle cx="25" cy="25" r="25" fill="#F58220"/>
<path d="M23.9215 25.1256C24.496 25.5086 25.504 25.5087 26.0786 25.1256C26.0786 25.1255 26.0788 25.1255 26.0789 25.1254L35.87 18.5979C35.5489 17.6691 34.6661 17 33.6295 17H16.3704C15.3338 17 14.4511 17.6691 14.1299 18.5979L23.9212 25.1255C23.9214 25.1255 23.9215 25.1255 23.9215 25.1256Z" fill="white"/>
<path d="M26.7939 26.198C26.7937 26.1981 26.7937 26.1982 26.7936 26.1982C26.2907 26.5334 25.6453 26.701 25 26.701C24.3546 26.701 23.7094 26.5335 23.2065 26.1982C23.2064 26.1981 23.2064 26.1981 23.2063 26.198L14 20.0605V31.1067C14 32.4137 15.0634 33.477 16.3704 33.477H33.6297C34.9367 33.477 36 32.4137 36 31.1067V20.0605L26.7939 26.198Z" fill="white"/>
</svg>
