<svg width="50" height="50" viewBox="0 0 50 50" fill="none" xmlns="http://www.w3.org/2000/svg">
<circle cx="25" cy="25" r="25" fill="#F58220"/>
<path d="M35.3781 30.1458L32.3079 27.0756C31.2114 25.9791 29.3474 26.4178 28.9088 27.8431C28.5799 28.83 27.4834 29.3783 26.4966 29.1589C24.3036 28.6107 21.3431 25.7598 20.7948 23.4572C20.4659 22.4703 21.1238 21.3738 22.1106 21.0449C23.536 20.6063 23.9746 18.7423 22.8781 17.6458L19.808 14.5757C18.9308 13.8081 17.615 13.8081 16.8475 14.5757L14.7641 16.659C12.6808 18.852 14.9834 24.6633 20.1369 29.8168C25.2904 34.9703 31.1018 37.3826 33.2948 35.1896L35.3781 33.1063C36.1457 32.2291 36.1457 30.9133 35.3781 30.1458Z" fill="white"/>
</svg>
