<svg width="50" height="50" viewBox="0 0 50 50" fill="none" xmlns="http://www.w3.org/2000/svg">
<circle cx="25" cy="25" r="25" fill="#F58220"/>
<path d="M30.1531 16.2568C28.6979 14.8015 26.7629 14 24.705 14C22.6467 14 20.7122 14.8015 19.257 16.2568C16.5639 18.9495 16.2292 24.0159 18.5321 27.0854L24.705 36L30.8687 27.0979C33.1809 24.0159 32.8462 18.9495 30.1531 16.2568ZM24.7761 24.4462C23.2257 24.4462 21.9637 23.1842 21.9637 21.6337C21.9637 20.0833 23.2257 18.8213 24.7761 18.8213C26.3266 18.8213 27.5886 20.0833 27.5886 21.6337C27.5886 23.1842 26.3266 24.4462 24.7761 24.4462Z" fill="white"/>
</svg>
