<svg width="155" height="155" viewBox="0 0 155 155" fill="none" xmlns="http://www.w3.org/2000/svg">
<circle cx="77.5" cy="77.5" r="77.5" fill="#F0F3F6"/>
<path d="M97.9496 41.9722L97.9495 41.9724C110.578 49.5257 113.996 65.3253 111.89 76.7621C110.623 83.7474 108.186 90.469 104.684 96.6438C104.071 97.7883 103.558 98.7638 103.17 99.6298C103.222 100.553 103.513 101.888 103.962 103.426C104.426 105.016 105.048 106.785 105.709 108.466C106.371 110.148 107.07 111.735 107.686 112.962C107.994 113.576 108.278 114.093 108.524 114.484C108.782 114.895 108.962 115.109 109.054 115.179C109.684 115.656 109.944 116.478 109.705 117.23L109.228 117.078L109.705 117.23C109.467 117.979 108.775 118.49 107.99 118.5L107.984 118.5L74.661 118.5C74.1748 118.5 73.7085 118.307 73.3647 117.963C73.0261 117.625 72.8336 117.167 72.8281 116.689C72.6639 114.696 72.0911 112.76 71.1472 111.001C67.4034 112.26 63.5008 112.988 59.5536 113.163L59.5466 113.163C58.6076 113.192 57.6697 113.078 56.7648 112.825L56.7543 112.822L56.7441 112.819C54.4969 112.084 53.3698 110.912 52.8769 109.569C52.4071 108.289 52.5485 106.928 52.6568 105.886L52.661 105.845L52.662 105.836L52.6621 105.836C52.7207 105.361 52.7547 104.883 52.7639 104.405C52.7639 104.405 52.7639 104.405 52.7639 104.405L97.9496 41.9722ZM97.9496 41.9722L97.9374 41.9654M97.9496 41.9722L97.9374 41.9654M97.9374 41.9654C89.9995 37.5124 80.6365 36.3342 71.8427 38.6817L71.8425 38.6818M97.9374 41.9654L71.8425 38.6818M71.8425 38.6818C59.678 41.9347 50.7046 50.6758 47.8802 62.0862C47.249 64.4102 46.9815 66.818 47.0876 69.2239L47.0881 69.2355M71.8425 38.6818L47.0881 69.2355M47.0881 69.2355L47.0891 69.2471M47.0881 69.2355L47.0891 69.2471M47.0891 69.2471C47.2249 70.7402 47.5004 72.2173 47.9122 73.6588L47.9121 73.6588M47.0891 69.2471L47.9121 73.6588M47.9121 73.6588L47.9143 73.666M47.9121 73.6588L47.9143 73.666M47.9143 73.666C48.4418 75.4128 48.7033 77.2292 48.6896 79.0538C48.6634 80.0638 48.3005 81.1235 47.755 82.206C47.2093 83.2888 46.5022 84.3545 45.8197 85.3816L45.8195 85.3818M47.9143 73.666L45.8195 85.3818M45.8195 85.3818L45.8003 85.4107C45.0742 86.5045 44.3624 87.5768 43.9318 88.6035C43.4929 89.6497 43.3126 90.7257 43.7558 91.7873L43.7686 91.8181M45.8195 85.3818L43.7686 91.8181M43.7686 91.8181L43.7855 91.847M43.7686 91.8181L43.7855 91.847M43.7855 91.847C44.5674 93.1847 45.941 94.068 47.4815 94.2252C47.5797 94.2418 47.6791 94.2515 47.7791 94.254L47.8158 94.2549M43.7855 91.847L47.8158 94.2549M47.8158 94.2549L47.8523 94.2505M47.8158 94.2549L47.8523 94.2505M47.8523 94.2505C48.075 94.2232 48.2982 94.2971 48.4605 94.4518C48.6229 94.6066 48.7074 94.826 48.6909 95.0496L48.6896 95.068M47.8523 94.2505L48.6896 95.068M48.6896 95.068V95.0864M48.6896 95.068V95.0864M48.6896 95.0864C48.6896 96.458 48.7048 97.562 48.8772 98.4066C49.0235 99.1235 49.2936 99.7062 49.7949 100.126C49.7552 100.254 49.7243 100.385 49.7024 100.518L49.7024 100.518M48.6896 95.0864L49.7024 100.518M49.7024 100.518L49.7011 100.526M49.7024 100.518L49.7011 100.526M49.7011 100.526C49.5623 101.47 49.901 102.421 50.6044 103.065M49.7011 100.526L50.6044 103.065M50.6044 103.065C51.2044 103.644 51.951 104.046 52.7619 104.229L50.6044 103.065ZM76.3015 114.834C75.9752 113.07 75.408 111.358 74.616 109.749C78.2863 108.258 81.5701 106.348 83.2157 104.196L83.2167 104.194C83.8276 103.39 83.6727 102.242 82.8695 101.628C82.0666 101.015 80.9188 101.167 80.3029 101.968L80.302 101.969C79.4292 103.111 77.8239 104.229 75.7877 105.246C73.7647 106.257 71.3691 107.143 68.9726 107.842C66.5766 108.541 64.1934 109.051 62.1989 109.314C61.2014 109.446 60.3084 109.515 59.564 109.518C58.8102 109.52 58.2447 109.453 57.8825 109.335C56.8085 108.983 56.4612 108.652 56.3191 108.303C56.2403 108.109 56.2038 107.862 56.2071 107.513C56.2105 107.161 56.2527 106.749 56.3066 106.229C56.3791 105.629 56.4202 105.026 56.4295 104.422H56.4295V104.414C56.4295 103.232 56.192 102.371 55.6943 101.759C55.2478 101.21 54.6446 100.927 54.0028 100.752C54.0184 100.744 54.034 100.736 54.0497 100.728C54.8126 100.351 55.2163 99.499 55.0237 98.6698C54.8309 97.8396 54.0916 97.2517 53.2392 97.2511H53.2388C52.9405 97.2511 52.6441 97.2507 52.4022 97.244C52.3483 96.5314 52.3325 95.8166 52.3549 95.1022L52.355 95.099C52.3844 93.9131 51.9336 92.7656 51.105 91.9169C50.2891 91.0812 49.1747 90.6049 48.0084 90.5914C47.5875 90.4994 47.3313 90.4005 47.188 90.3289C47.1868 90.3283 47.1856 90.3277 47.1844 90.3271C47.1977 90.2828 47.2163 90.2293 47.2413 90.1661C47.3323 89.9364 47.4826 89.6429 47.6701 89.3146C48.0434 88.6609 48.5274 87.9322 48.8742 87.41L48.8743 87.41L48.9087 87.3582C50.3661 85.1638 52.2759 82.2884 52.355 79.1426L52.355 79.1413C52.391 77.5347 52.2253 75.9304 51.8618 74.3658C53.2034 73.2399 54.7627 72.401 56.4437 71.9022C57.0167 71.8066 57.6047 71.85 58.1577 72.0286L58.1681 72.032L58.1786 72.0349C59.1545 72.3038 60.1634 71.7307 60.4323 70.7551L59.9503 70.6222L60.4323 70.755C60.7006 69.7816 60.131 68.7752 59.1597 68.5033C58.034 68.1581 56.841 68.0934 55.6846 68.3145L55.6697 68.3173L55.655 68.321C53.962 68.7524 52.3649 69.4911 50.9427 70.4983C50.8513 69.9957 50.785 69.4887 50.7442 68.9792C50.6572 66.9576 50.8898 64.935 51.4334 62.9859L51.4354 62.9789L51.4372 62.9717C53.9665 52.7489 61.7282 45.1807 72.7904 42.2225L72.7908 42.2224C80.6331 40.1192 88.9864 41.1598 96.0729 45.1226C107.123 51.7355 110.183 65.7874 108.285 76.0987L108.284 76.1008C107.097 82.7086 104.789 89.0653 101.462 94.8966L101.461 94.8965L101.455 94.9082L101.45 94.9174C100.723 96.2748 100.079 97.4754 99.6122 98.5922L99.6121 98.5922L99.6084 98.6016C99.5048 98.8641 99.464 99.1472 99.4899 99.4285C99.5142 101.115 100.265 104.073 101.291 107.102C102.216 109.832 103.388 112.688 104.522 114.834H76.3015ZM47.1572 90.4549C47.1572 90.4549 47.1571 90.4536 47.1573 90.4508C47.1574 90.4534 47.1573 90.4548 47.1572 90.4549Z" fill="#212C3E" stroke="#212C3E"/>
<mask id="path-3-outside-1" maskUnits="userSpaceOnUse" x="57.666" y="42.3564" width="50" height="48" fill="black">
<rect fill="white" x="57.666" y="42.3564" width="50" height="48"/>
<path d="M102.636 79.7175C102.826 77.6615 101.419 75.7987 99.3887 75.4207L96.8362 71.8826C96.9927 71.5939 97.1127 71.2869 97.1933 70.9684L99.6652 69.9799C100.807 71.2795 102.656 71.6953 104.244 71.0094C105.832 70.3236 106.797 68.6923 106.633 66.9702C106.47 65.2481 105.215 63.8277 103.526 63.4529L101.524 59.4583C102.929 58.027 103.05 55.7744 101.807 54.2007C100.564 52.6268 98.3446 52.2229 96.6269 53.2579L94.3938 51.4039C94.5628 50.9622 94.6512 50.4939 94.655 50.0209C94.6586 48.3878 93.6665 46.9173 92.1509 46.3092C90.6353 45.701 88.9019 46.0779 87.7757 47.2605L83.8239 46.2727C83.3506 44.5585 81.7961 43.3673 80.0178 43.3565C78.2394 43.3457 76.6705 44.5179 76.1764 46.2261L70.8952 47.2823C69.5177 45.7969 67.244 45.5833 65.614 46.7866C63.9841 47.9896 63.5181 50.2252 64.5316 51.9793L61.9438 55.4256C60.0893 55.7608 58.7229 57.3486 58.6677 59.2323C58.6126 61.1159 59.8839 62.7809 61.7156 63.224L63.8554 68.5066C62.6814 69.6591 62.3347 71.4138 62.9824 72.9263C63.63 74.4387 65.1392 75.3989 66.7834 75.3445C68.4276 75.2902 69.8702 74.2327 70.4166 72.6808H77.5727C78.1702 74.5187 80.0346 75.6315 81.9358 75.285L86.3608 82.0159C85.2255 83.2746 85.0098 85.1131 85.8227 86.6004C86.6356 88.0876 88.2997 88.8988 89.972 88.6228C91.6443 88.3468 92.9596 87.044 93.2515 85.3744L96.5547 82.7341C97.1833 83.1304 97.9107 83.3419 98.6538 83.3444C100.719 83.3458 102.445 81.7738 102.636 79.7175ZM102.653 66.016C103.319 66.0146 103.884 66.506 103.976 67.1662C104.067 67.8265 103.656 68.4529 103.015 68.6325C102.373 68.8121 101.697 68.4899 101.432 67.8781C101.427 67.8659 101.43 67.8532 101.425 67.841L101.417 67.8281C101.355 67.6758 101.322 67.5133 101.32 67.3488C101.321 66.6131 101.917 66.0168 102.653 66.016ZM97.349 56.4145C97.4769 55.7958 98.0222 55.3521 98.6541 55.3525C99.3902 55.3525 99.9869 55.9492 99.9869 56.6854C99.9869 57.4216 99.3902 58.0183 98.6541 58.0183C98.4891 58.0162 98.3262 57.9833 98.1734 57.9211L98.162 57.9136C98.1503 57.9089 98.138 57.9114 98.1259 57.9069C97.5455 57.6568 97.2209 57.0334 97.349 56.4145ZM96.023 59.6731L93.5598 65.8318L89.242 62.3776C89.8277 61.8779 90.2557 61.2189 90.4744 60.4805L95.7556 59.4242C95.8395 59.5131 95.9311 59.5922 96.023 59.6731ZM94.6039 70.3749C94.4244 71.016 93.7991 71.4262 93.1395 71.3353C92.48 71.2444 91.9888 70.6806 91.9894 70.0147C91.9902 69.2789 92.5864 68.6825 93.3223 68.6819C93.4872 68.6839 93.6501 68.7169 93.8029 68.779L93.8143 68.7865C93.8263 68.7914 93.839 68.7893 93.851 68.7937C94.4619 69.0586 94.7834 69.7337 94.6039 70.3749ZM90.6564 48.688C91.3925 48.688 91.9892 49.2847 91.9892 50.0209C91.9892 50.7571 91.3924 51.3538 90.6564 51.3538C89.9203 51.3538 89.3235 50.7571 89.3235 50.0209C89.3243 49.285 89.9205 48.6888 90.6564 48.688ZM83.642 48.9748L86.6865 49.736C86.6795 49.8319 86.6577 49.9234 86.6577 50.021C86.6601 52.2285 88.4491 54.0175 90.6565 54.0198C91.3713 54.0161 92.0719 53.8188 92.6834 53.4487L94.9166 55.3027C94.7476 55.7444 94.659 56.2127 94.6553 56.6857C94.6553 56.7663 94.6745 56.8418 94.679 56.9213L90.3379 57.7894C89.7935 56.5223 88.6348 55.6249 87.2718 55.4148L82.3914 50.5346C82.9333 50.1285 83.3636 49.5919 83.642 48.9748ZM87.9906 59.3515C87.9906 60.0876 87.3939 60.6843 86.6577 60.6843C85.9219 60.6835 85.3255 60.0873 85.3249 59.3515C85.3249 58.6153 85.9216 58.0186 86.6577 58.0186C87.3939 58.0186 87.9906 58.6153 87.9906 59.3515ZM79.9931 46.0221C80.7293 46.0221 81.3259 46.6188 81.3259 47.355C81.3259 48.0912 80.7293 48.6879 79.9931 48.6879C79.2569 48.6879 78.6602 48.0912 78.6602 47.355C78.6608 46.6193 79.2572 46.0229 79.9931 46.0221ZM80.2572 52.1707L84.2591 56.1721C83.637 56.6421 83.166 57.284 82.9045 58.0184H79.7474C79.4326 57.1359 78.8175 56.3922 78.0096 55.9174L80.2572 52.1707ZM71.9718 49.7855L76.313 48.9173C76.6536 49.703 77.2372 50.3591 77.9778 50.7891L75.5582 54.8218L71.3754 52.1379C71.7784 51.5051 71.9933 50.771 71.9955 50.0209C71.9955 49.9403 71.9763 49.8648 71.9718 49.7855ZM77.3272 59.3515C77.3272 60.0876 76.7305 60.6843 75.9943 60.6843C75.2584 60.6835 74.6621 60.0873 74.6614 59.3515C74.6614 58.6153 75.2581 58.0186 75.9943 58.0186C76.7305 58.0186 77.3272 58.6153 77.3272 59.3515ZM67.9968 48.688C68.7329 48.688 69.3296 49.2847 69.3296 50.0209C69.3296 50.7571 68.7329 51.3538 67.9968 51.3538C67.2606 51.3538 66.6639 50.7571 66.6639 50.0209C66.6645 49.285 67.2609 48.6888 67.9968 48.688ZM66.5459 53.7374C67.358 54.0723 68.2621 54.1106 69.0997 53.8456L73.2152 56.4862C72.7772 56.9153 72.4438 57.4397 72.2412 58.0184H66.4182C66.1272 57.1934 65.5739 56.4862 64.8429 56.0056L66.5459 53.7374ZM62.665 60.6843C61.9288 60.6843 61.3321 60.0876 61.3321 59.3515C61.3329 58.6156 61.9291 58.0192 62.665 58.0186C63.4011 58.0186 63.9978 58.6153 63.9978 59.3515C63.9978 60.0876 63.4011 60.6843 62.665 60.6843ZM66.6637 72.6806C65.9275 72.6806 65.3309 72.0838 65.3309 71.3478C65.3309 70.6116 65.9275 70.0149 66.6637 70.0149C67.3999 70.0149 67.9966 70.6117 67.9966 71.3478C67.996 72.0836 67.3996 72.6799 66.6637 72.6806ZM67.4218 67.4255C67.1722 67.3759 66.9182 67.3502 66.6637 67.3488C66.5317 67.3488 66.4071 67.3752 66.2784 67.3879L64.4621 62.9038C65.3741 62.4416 66.0741 61.6472 66.418 60.6843H72.2411C72.4812 61.3557 72.8968 61.9503 73.4448 62.4063L67.4218 67.4255ZM77.5729 70.0147H70.4168C70.2745 69.6155 70.0691 69.2415 69.8085 68.9073L76.3548 63.4521L78.584 68.4518C78.1285 68.8857 77.782 69.4213 77.5729 70.0147ZM79.7474 60.6843H82.9047C83.2194 61.5669 83.8345 62.3105 84.6424 62.7854L81.8711 67.4041C81.6908 67.3732 81.5089 67.3548 81.3261 67.349C81.2229 67.349 81.1259 67.3718 81.0245 67.3795L78.7363 62.2474C79.1918 61.8134 79.5382 61.2777 79.7474 60.6843ZM81.3259 72.6806C80.5898 72.6806 79.9931 72.0838 79.9931 71.3478C79.9931 70.6116 80.5899 70.0149 81.3259 70.0149C82.0621 70.0149 82.6588 70.6117 82.6588 71.3478C82.6582 72.0836 82.0618 72.6799 81.3259 72.6806ZM87.0156 64.0108L90.7381 66.9888C90.1525 67.4886 89.7243 68.1477 89.5056 68.8859L85.0061 69.7858C84.8207 69.3598 84.5626 68.9694 84.2433 68.632L87.0156 64.0108ZM89.3235 86.0098C88.5873 86.0098 87.9906 85.4131 87.9906 84.677C87.9906 83.9408 88.5873 83.3441 89.3235 83.3441C90.0597 83.3441 90.6564 83.9408 90.6564 84.677C90.6557 85.4128 90.0594 86.0092 89.3235 86.0098ZM94.6551 79.3453C94.66 79.7906 94.7401 80.2319 94.8921 80.6505L92.642 82.4492C91.8007 81.1351 90.2485 80.4597 88.7135 80.7399L84.2885 74.009C84.6838 73.5682 84.9756 73.0448 85.1426 72.4768L89.6421 71.5769C90.5 73.603 92.8348 74.5537 94.8638 73.703L96.5082 75.9823C95.3563 76.713 94.6575 77.9812 94.6551 79.3453ZM95.9533 67.0272L98.4966 60.6684C98.5499 60.6706 98.6 60.6843 98.6539 60.6843C98.8145 60.6781 98.9746 60.6618 99.1333 60.6359L100.747 63.8554C99.4623 64.5486 98.6591 65.889 98.6539 67.349C98.6539 67.403 98.6678 67.4532 98.6698 67.5068L96.8777 68.2233C96.6486 67.7695 96.3348 67.3635 95.9533 67.0272ZM98.6539 80.6782C97.9177 80.6782 97.321 80.0815 97.321 79.3453C97.3218 78.6095 97.918 78.0131 98.6539 78.0124C99.3901 78.0124 99.9868 78.6091 99.9868 79.3453C99.9868 80.0815 99.3901 80.6782 98.6539 80.6782Z"/>
</mask>
<path d="M102.636 79.7175C102.826 77.6615 101.419 75.7987 99.3887 75.4207L96.8362 71.8826C96.9927 71.5939 97.1127 71.2869 97.1933 70.9684L99.6652 69.9799C100.807 71.2795 102.656 71.6953 104.244 71.0094C105.832 70.3236 106.797 68.6923 106.633 66.9702C106.47 65.2481 105.215 63.8277 103.526 63.4529L101.524 59.4583C102.929 58.027 103.05 55.7744 101.807 54.2007C100.564 52.6268 98.3446 52.2229 96.6269 53.2579L94.3938 51.4039C94.5628 50.9622 94.6512 50.4939 94.655 50.0209C94.6586 48.3878 93.6665 46.9173 92.1509 46.3092C90.6353 45.701 88.9019 46.0779 87.7757 47.2605L83.8239 46.2727C83.3506 44.5585 81.7961 43.3673 80.0178 43.3565C78.2394 43.3457 76.6705 44.5179 76.1764 46.2261L70.8952 47.2823C69.5177 45.7969 67.244 45.5833 65.614 46.7866C63.9841 47.9896 63.5181 50.2252 64.5316 51.9793L61.9438 55.4256C60.0893 55.7608 58.7229 57.3486 58.6677 59.2323C58.6126 61.1159 59.8839 62.7809 61.7156 63.224L63.8554 68.5066C62.6814 69.6591 62.3347 71.4138 62.9824 72.9263C63.63 74.4387 65.1392 75.3989 66.7834 75.3445C68.4276 75.2902 69.8702 74.2327 70.4166 72.6808H77.5727C78.1702 74.5187 80.0346 75.6315 81.9358 75.285L86.3608 82.0159C85.2255 83.2746 85.0098 85.1131 85.8227 86.6004C86.6356 88.0876 88.2997 88.8988 89.972 88.6228C91.6443 88.3468 92.9596 87.044 93.2515 85.3744L96.5547 82.7341C97.1833 83.1304 97.9107 83.3419 98.6538 83.3444C100.719 83.3458 102.445 81.7738 102.636 79.7175ZM102.653 66.016C103.319 66.0146 103.884 66.506 103.976 67.1662C104.067 67.8265 103.656 68.4529 103.015 68.6325C102.373 68.8121 101.697 68.4899 101.432 67.8781C101.427 67.8659 101.43 67.8532 101.425 67.841L101.417 67.8281C101.355 67.6758 101.322 67.5133 101.32 67.3488C101.321 66.6131 101.917 66.0168 102.653 66.016ZM97.349 56.4145C97.4769 55.7958 98.0222 55.3521 98.6541 55.3525C99.3902 55.3525 99.9869 55.9492 99.9869 56.6854C99.9869 57.4216 99.3902 58.0183 98.6541 58.0183C98.4891 58.0162 98.3262 57.9833 98.1734 57.9211L98.162 57.9136C98.1503 57.9089 98.138 57.9114 98.1259 57.9069C97.5455 57.6568 97.2209 57.0334 97.349 56.4145ZM96.023 59.6731L93.5598 65.8318L89.242 62.3776C89.8277 61.8779 90.2557 61.2189 90.4744 60.4805L95.7556 59.4242C95.8395 59.5131 95.9311 59.5922 96.023 59.6731ZM94.6039 70.3749C94.4244 71.016 93.7991 71.4262 93.1395 71.3353C92.48 71.2444 91.9888 70.6806 91.9894 70.0147C91.9902 69.2789 92.5864 68.6825 93.3223 68.6819C93.4872 68.6839 93.6501 68.7169 93.8029 68.779L93.8143 68.7865C93.8263 68.7914 93.839 68.7893 93.851 68.7937C94.4619 69.0586 94.7834 69.7337 94.6039 70.3749ZM90.6564 48.688C91.3925 48.688 91.9892 49.2847 91.9892 50.0209C91.9892 50.7571 91.3924 51.3538 90.6564 51.3538C89.9203 51.3538 89.3235 50.7571 89.3235 50.0209C89.3243 49.285 89.9205 48.6888 90.6564 48.688ZM83.642 48.9748L86.6865 49.736C86.6795 49.8319 86.6577 49.9234 86.6577 50.021C86.6601 52.2285 88.4491 54.0175 90.6565 54.0198C91.3713 54.0161 92.0719 53.8188 92.6834 53.4487L94.9166 55.3027C94.7476 55.7444 94.659 56.2127 94.6553 56.6857C94.6553 56.7663 94.6745 56.8418 94.679 56.9213L90.3379 57.7894C89.7935 56.5223 88.6348 55.6249 87.2718 55.4148L82.3914 50.5346C82.9333 50.1285 83.3636 49.5919 83.642 48.9748ZM87.9906 59.3515C87.9906 60.0876 87.3939 60.6843 86.6577 60.6843C85.9219 60.6835 85.3255 60.0873 85.3249 59.3515C85.3249 58.6153 85.9216 58.0186 86.6577 58.0186C87.3939 58.0186 87.9906 58.6153 87.9906 59.3515ZM79.9931 46.0221C80.7293 46.0221 81.3259 46.6188 81.3259 47.355C81.3259 48.0912 80.7293 48.6879 79.9931 48.6879C79.2569 48.6879 78.6602 48.0912 78.6602 47.355C78.6608 46.6193 79.2572 46.0229 79.9931 46.0221ZM80.2572 52.1707L84.2591 56.1721C83.637 56.6421 83.166 57.284 82.9045 58.0184H79.7474C79.4326 57.1359 78.8175 56.3922 78.0096 55.9174L80.2572 52.1707ZM71.9718 49.7855L76.313 48.9173C76.6536 49.703 77.2372 50.3591 77.9778 50.7891L75.5582 54.8218L71.3754 52.1379C71.7784 51.5051 71.9933 50.771 71.9955 50.0209C71.9955 49.9403 71.9763 49.8648 71.9718 49.7855ZM77.3272 59.3515C77.3272 60.0876 76.7305 60.6843 75.9943 60.6843C75.2584 60.6835 74.6621 60.0873 74.6614 59.3515C74.6614 58.6153 75.2581 58.0186 75.9943 58.0186C76.7305 58.0186 77.3272 58.6153 77.3272 59.3515ZM67.9968 48.688C68.7329 48.688 69.3296 49.2847 69.3296 50.0209C69.3296 50.7571 68.7329 51.3538 67.9968 51.3538C67.2606 51.3538 66.6639 50.7571 66.6639 50.0209C66.6645 49.285 67.2609 48.6888 67.9968 48.688ZM66.5459 53.7374C67.358 54.0723 68.2621 54.1106 69.0997 53.8456L73.2152 56.4862C72.7772 56.9153 72.4438 57.4397 72.2412 58.0184H66.4182C66.1272 57.1934 65.5739 56.4862 64.8429 56.0056L66.5459 53.7374ZM62.665 60.6843C61.9288 60.6843 61.3321 60.0876 61.3321 59.3515C61.3329 58.6156 61.9291 58.0192 62.665 58.0186C63.4011 58.0186 63.9978 58.6153 63.9978 59.3515C63.9978 60.0876 63.4011 60.6843 62.665 60.6843ZM66.6637 72.6806C65.9275 72.6806 65.3309 72.0838 65.3309 71.3478C65.3309 70.6116 65.9275 70.0149 66.6637 70.0149C67.3999 70.0149 67.9966 70.6117 67.9966 71.3478C67.996 72.0836 67.3996 72.6799 66.6637 72.6806ZM67.4218 67.4255C67.1722 67.3759 66.9182 67.3502 66.6637 67.3488C66.5317 67.3488 66.4071 67.3752 66.2784 67.3879L64.4621 62.9038C65.3741 62.4416 66.0741 61.6472 66.418 60.6843H72.2411C72.4812 61.3557 72.8968 61.9503 73.4448 62.4063L67.4218 67.4255ZM77.5729 70.0147H70.4168C70.2745 69.6155 70.0691 69.2415 69.8085 68.9073L76.3548 63.4521L78.584 68.4518C78.1285 68.8857 77.782 69.4213 77.5729 70.0147ZM79.7474 60.6843H82.9047C83.2194 61.5669 83.8345 62.3105 84.6424 62.7854L81.8711 67.4041C81.6908 67.3732 81.5089 67.3548 81.3261 67.349C81.2229 67.349 81.1259 67.3718 81.0245 67.3795L78.7363 62.2474C79.1918 61.8134 79.5382 61.2777 79.7474 60.6843ZM81.3259 72.6806C80.5898 72.6806 79.9931 72.0838 79.9931 71.3478C79.9931 70.6116 80.5899 70.0149 81.3259 70.0149C82.0621 70.0149 82.6588 70.6117 82.6588 71.3478C82.6582 72.0836 82.0618 72.6799 81.3259 72.6806ZM87.0156 64.0108L90.7381 66.9888C90.1525 67.4886 89.7243 68.1477 89.5056 68.8859L85.0061 69.7858C84.8207 69.3598 84.5626 68.9694 84.2433 68.632L87.0156 64.0108ZM89.3235 86.0098C88.5873 86.0098 87.9906 85.4131 87.9906 84.677C87.9906 83.9408 88.5873 83.3441 89.3235 83.3441C90.0597 83.3441 90.6564 83.9408 90.6564 84.677C90.6557 85.4128 90.0594 86.0092 89.3235 86.0098ZM94.6551 79.3453C94.66 79.7906 94.7401 80.2319 94.8921 80.6505L92.642 82.4492C91.8007 81.1351 90.2485 80.4597 88.7135 80.7399L84.2885 74.009C84.6838 73.5682 84.9756 73.0448 85.1426 72.4768L89.6421 71.5769C90.5 73.603 92.8348 74.5537 94.8638 73.703L96.5082 75.9823C95.3563 76.713 94.6575 77.9812 94.6551 79.3453ZM95.9533 67.0272L98.4966 60.6684C98.5499 60.6706 98.6 60.6843 98.6539 60.6843C98.8145 60.6781 98.9746 60.6618 99.1333 60.6359L100.747 63.8554C99.4623 64.5486 98.6591 65.889 98.6539 67.349C98.6539 67.403 98.6678 67.4532 98.6698 67.5068L96.8777 68.2233C96.6486 67.7695 96.3348 67.3635 95.9533 67.0272ZM98.6539 80.6782C97.9177 80.6782 97.321 80.0815 97.321 79.3453C97.3218 78.6095 97.918 78.0131 98.6539 78.0124C99.3901 78.0124 99.9868 78.6091 99.9868 79.3453C99.9868 80.0815 99.3901 80.6782 98.6539 80.6782Z" fill="#212C3E"/>
<path d="M102.636 79.7175C102.826 77.6615 101.419 75.7987 99.3887 75.4207L96.8362 71.8826C96.9927 71.5939 97.1127 71.2869 97.1933 70.9684L99.6652 69.9799C100.807 71.2795 102.656 71.6953 104.244 71.0094C105.832 70.3236 106.797 68.6923 106.633 66.9702C106.47 65.2481 105.215 63.8277 103.526 63.4529L101.524 59.4583C102.929 58.027 103.05 55.7744 101.807 54.2007C100.564 52.6268 98.3446 52.2229 96.6269 53.2579L94.3938 51.4039C94.5628 50.9622 94.6512 50.4939 94.655 50.0209C94.6586 48.3878 93.6665 46.9173 92.1509 46.3092C90.6353 45.701 88.9019 46.0779 87.7757 47.2605L83.8239 46.2727C83.3506 44.5585 81.7961 43.3673 80.0178 43.3565C78.2394 43.3457 76.6705 44.5179 76.1764 46.2261L70.8952 47.2823C69.5177 45.7969 67.244 45.5833 65.614 46.7866C63.9841 47.9896 63.5181 50.2252 64.5316 51.9793L61.9438 55.4256C60.0893 55.7608 58.7229 57.3486 58.6677 59.2323C58.6126 61.1159 59.8839 62.7809 61.7156 63.224L63.8554 68.5066C62.6814 69.6591 62.3347 71.4138 62.9824 72.9263C63.63 74.4387 65.1392 75.3989 66.7834 75.3445C68.4276 75.2902 69.8702 74.2327 70.4166 72.6808H77.5727C78.1702 74.5187 80.0346 75.6315 81.9358 75.285L86.3608 82.0159C85.2255 83.2746 85.0098 85.1131 85.8227 86.6004C86.6356 88.0876 88.2997 88.8988 89.972 88.6228C91.6443 88.3468 92.9596 87.044 93.2515 85.3744L96.5547 82.7341C97.1833 83.1304 97.9107 83.3419 98.6538 83.3444C100.719 83.3458 102.445 81.7738 102.636 79.7175ZM102.653 66.016C103.319 66.0146 103.884 66.506 103.976 67.1662C104.067 67.8265 103.656 68.4529 103.015 68.6325C102.373 68.8121 101.697 68.4899 101.432 67.8781C101.427 67.8659 101.43 67.8532 101.425 67.841L101.417 67.8281C101.355 67.6758 101.322 67.5133 101.32 67.3488C101.321 66.6131 101.917 66.0168 102.653 66.016ZM97.349 56.4145C97.4769 55.7958 98.0222 55.3521 98.6541 55.3525C99.3902 55.3525 99.9869 55.9492 99.9869 56.6854C99.9869 57.4216 99.3902 58.0183 98.6541 58.0183C98.4891 58.0162 98.3262 57.9833 98.1734 57.9211L98.162 57.9136C98.1503 57.9089 98.138 57.9114 98.1259 57.9069C97.5455 57.6568 97.2209 57.0334 97.349 56.4145ZM96.023 59.6731L93.5598 65.8318L89.242 62.3776C89.8277 61.8779 90.2557 61.2189 90.4744 60.4805L95.7556 59.4242C95.8395 59.5131 95.9311 59.5922 96.023 59.6731ZM94.6039 70.3749C94.4244 71.016 93.7991 71.4262 93.1395 71.3353C92.48 71.2444 91.9888 70.6806 91.9894 70.0147C91.9902 69.2789 92.5864 68.6825 93.3223 68.6819C93.4872 68.6839 93.6501 68.7169 93.8029 68.779L93.8143 68.7865C93.8263 68.7914 93.839 68.7893 93.851 68.7937C94.4619 69.0586 94.7834 69.7337 94.6039 70.3749ZM90.6564 48.688C91.3925 48.688 91.9892 49.2847 91.9892 50.0209C91.9892 50.7571 91.3924 51.3538 90.6564 51.3538C89.9203 51.3538 89.3235 50.7571 89.3235 50.0209C89.3243 49.285 89.9205 48.6888 90.6564 48.688ZM83.642 48.9748L86.6865 49.736C86.6795 49.8319 86.6577 49.9234 86.6577 50.021C86.6601 52.2285 88.4491 54.0175 90.6565 54.0198C91.3713 54.0161 92.0719 53.8188 92.6834 53.4487L94.9166 55.3027C94.7476 55.7444 94.659 56.2127 94.6553 56.6857C94.6553 56.7663 94.6745 56.8418 94.679 56.9213L90.3379 57.7894C89.7935 56.5223 88.6348 55.6249 87.2718 55.4148L82.3914 50.5346C82.9333 50.1285 83.3636 49.5919 83.642 48.9748ZM87.9906 59.3515C87.9906 60.0876 87.3939 60.6843 86.6577 60.6843C85.9219 60.6835 85.3255 60.0873 85.3249 59.3515C85.3249 58.6153 85.9216 58.0186 86.6577 58.0186C87.3939 58.0186 87.9906 58.6153 87.9906 59.3515ZM79.9931 46.0221C80.7293 46.0221 81.3259 46.6188 81.3259 47.355C81.3259 48.0912 80.7293 48.6879 79.9931 48.6879C79.2569 48.6879 78.6602 48.0912 78.6602 47.355C78.6608 46.6193 79.2572 46.0229 79.9931 46.0221ZM80.2572 52.1707L84.2591 56.1721C83.637 56.6421 83.166 57.284 82.9045 58.0184H79.7474C79.4326 57.1359 78.8175 56.3922 78.0096 55.9174L80.2572 52.1707ZM71.9718 49.7855L76.313 48.9173C76.6536 49.703 77.2372 50.3591 77.9778 50.7891L75.5582 54.8218L71.3754 52.1379C71.7784 51.5051 71.9933 50.771 71.9955 50.0209C71.9955 49.9403 71.9763 49.8648 71.9718 49.7855ZM77.3272 59.3515C77.3272 60.0876 76.7305 60.6843 75.9943 60.6843C75.2584 60.6835 74.6621 60.0873 74.6614 59.3515C74.6614 58.6153 75.2581 58.0186 75.9943 58.0186C76.7305 58.0186 77.3272 58.6153 77.3272 59.3515ZM67.9968 48.688C68.7329 48.688 69.3296 49.2847 69.3296 50.0209C69.3296 50.7571 68.7329 51.3538 67.9968 51.3538C67.2606 51.3538 66.6639 50.7571 66.6639 50.0209C66.6645 49.285 67.2609 48.6888 67.9968 48.688ZM66.5459 53.7374C67.358 54.0723 68.2621 54.1106 69.0997 53.8456L73.2152 56.4862C72.7772 56.9153 72.4438 57.4397 72.2412 58.0184H66.4182C66.1272 57.1934 65.5739 56.4862 64.8429 56.0056L66.5459 53.7374ZM62.665 60.6843C61.9288 60.6843 61.3321 60.0876 61.3321 59.3515C61.3329 58.6156 61.9291 58.0192 62.665 58.0186C63.4011 58.0186 63.9978 58.6153 63.9978 59.3515C63.9978 60.0876 63.4011 60.6843 62.665 60.6843ZM66.6637 72.6806C65.9275 72.6806 65.3309 72.0838 65.3309 71.3478C65.3309 70.6116 65.9275 70.0149 66.6637 70.0149C67.3999 70.0149 67.9966 70.6117 67.9966 71.3478C67.996 72.0836 67.3996 72.6799 66.6637 72.6806ZM67.4218 67.4255C67.1722 67.3759 66.9182 67.3502 66.6637 67.3488C66.5317 67.3488 66.4071 67.3752 66.2784 67.3879L64.4621 62.9038C65.3741 62.4416 66.0741 61.6472 66.418 60.6843H72.2411C72.4812 61.3557 72.8968 61.9503 73.4448 62.4063L67.4218 67.4255ZM77.5729 70.0147H70.4168C70.2745 69.6155 70.0691 69.2415 69.8085 68.9073L76.3548 63.4521L78.584 68.4518C78.1285 68.8857 77.782 69.4213 77.5729 70.0147ZM79.7474 60.6843H82.9047C83.2194 61.5669 83.8345 62.3105 84.6424 62.7854L81.8711 67.4041C81.6908 67.3732 81.5089 67.3548 81.3261 67.349C81.2229 67.349 81.1259 67.3718 81.0245 67.3795L78.7363 62.2474C79.1918 61.8134 79.5382 61.2777 79.7474 60.6843ZM81.3259 72.6806C80.5898 72.6806 79.9931 72.0838 79.9931 71.3478C79.9931 70.6116 80.5899 70.0149 81.3259 70.0149C82.0621 70.0149 82.6588 70.6117 82.6588 71.3478C82.6582 72.0836 82.0618 72.6799 81.3259 72.6806ZM87.0156 64.0108L90.7381 66.9888C90.1525 67.4886 89.7243 68.1477 89.5056 68.8859L85.0061 69.7858C84.8207 69.3598 84.5626 68.9694 84.2433 68.632L87.0156 64.0108ZM89.3235 86.0098C88.5873 86.0098 87.9906 85.4131 87.9906 84.677C87.9906 83.9408 88.5873 83.3441 89.3235 83.3441C90.0597 83.3441 90.6564 83.9408 90.6564 84.677C90.6557 85.4128 90.0594 86.0092 89.3235 86.0098ZM94.6551 79.3453C94.66 79.7906 94.7401 80.2319 94.8921 80.6505L92.642 82.4492C91.8007 81.1351 90.2485 80.4597 88.7135 80.7399L84.2885 74.009C84.6838 73.5682 84.9756 73.0448 85.1426 72.4768L89.6421 71.5769C90.5 73.603 92.8348 74.5537 94.8638 73.703L96.5082 75.9823C95.3563 76.713 94.6575 77.9812 94.6551 79.3453ZM95.9533 67.0272L98.4966 60.6684C98.5499 60.6706 98.6 60.6843 98.6539 60.6843C98.8145 60.6781 98.9746 60.6618 99.1333 60.6359L100.747 63.8554C99.4623 64.5486 98.6591 65.889 98.6539 67.349C98.6539 67.403 98.6678 67.4532 98.6698 67.5068L96.8777 68.2233C96.6486 67.7695 96.3348 67.3635 95.9533 67.0272ZM98.6539 80.6782C97.9177 80.6782 97.321 80.0815 97.321 79.3453C97.3218 78.6095 97.918 78.0131 98.6539 78.0124C99.3901 78.0124 99.9868 78.6091 99.9868 79.3453C99.9868 80.0815 99.3901 80.6782 98.6539 80.6782Z" stroke="#212C3E" stroke-width="2" mask="url(#path-3-outside-1)"/>
</svg>
