<svg width="155" height="155" viewBox="0 0 155 155" fill="none" xmlns="http://www.w3.org/2000/svg">
<circle cx="77.5" cy="77.5" r="77.5" fill="#F0F3F6"/>
<path d="M114.944 106L103.058 94.1139C100.868 91.9242 97.6346 91.5031 95.0534 92.7386L90.5986 88.2838C95.1725 82.9527 97.9401 76.0288 97.9401 68.4701C97.9401 51.6688 84.2713 38 67.4701 38C50.6688 38 37 51.6687 37 68.4699C37 85.2711 50.6688 98.94 67.4701 98.94C75.0288 98.94 81.9527 96.1723 87.2838 91.5984L91.7386 96.0532C90.5045 98.6312 90.9212 101.865 93.1139 104.058C94.2255 105.17 103.822 114.766 105 115.944C107.741 118.685 112.202 118.685 114.944 115.944C117.692 113.196 117.692 108.748 114.944 106ZM67.4701 94.2522C53.2537 94.2522 41.6876 82.6861 41.6876 68.4698C41.6876 54.2534 53.2537 42.6875 67.4701 42.6875C81.6864 42.6875 93.2525 54.2535 93.2525 68.4699C93.2525 82.6863 81.6864 94.2522 67.4701 94.2522ZM96.4288 100.743C95.5126 99.8271 95.5126 98.3448 96.4288 97.4285C97.3428 96.5147 98.8296 96.5147 99.7437 97.4285L101.401 99.0859L98.0862 102.401L96.4288 100.743ZM111.629 112.629C110.715 113.543 109.229 113.543 108.315 112.629L101.401 105.715L104.715 102.4L111.629 109.314C112.543 110.228 112.543 111.715 111.629 112.629Z" fill="#212C3E"/>
<path d="M74.269 65.5389C75.8635 63.8574 76.8448 61.589 76.8448 59.0944C76.8448 53.9249 72.639 49.719 67.4693 49.719C62.2998 49.719 58.0939 53.9247 58.0939 59.0944C58.0939 61.5891 59.0752 63.8574 60.6697 65.5389C56.3424 67.9395 53.4062 72.5556 53.4062 77.8452V82.5328C53.4062 83.8273 54.4557 84.8767 55.7501 84.8767H79.1887C80.4831 84.8767 81.5326 83.8273 81.5326 82.5328V77.8452C81.5324 72.5556 78.5965 67.9395 74.269 65.5389ZM67.4693 54.4066C70.0542 54.4066 72.157 56.5096 72.157 59.0943C72.157 61.679 70.054 63.7819 67.4693 63.7819C64.8845 63.7819 62.7817 61.679 62.7817 59.0943C62.7817 56.5096 64.8846 54.4066 67.4693 54.4066ZM76.8448 80.1891H58.0939V77.8452C58.0939 72.6756 62.2996 68.4697 67.4693 68.4697C72.6389 68.4697 76.8448 72.6755 76.8448 77.8452V80.1891Z" fill="#212C3E"/>
</svg>
