<svg width="155" height="155" viewBox="0 0 155 155" fill="none" xmlns="http://www.w3.org/2000/svg">
<circle cx="77.5" cy="77.5" r="77.5" fill="#F0F3F6"/>
<path d="M95.1148 104.037L91.5239 96.8547C94.1335 90.5291 92.707 82.9944 87.8625 78.15L82.6665 72.9541C89.7564 74.6141 95.6907 74.2489 99.0762 67.4781L100.401 64.8295C100.907 63.8164 100.617 62.5861 99.7106 61.9064L82.312 48.8567L84.902 41.0847C85.4071 39.5695 84.2776 38 82.6786 38C69.462 38 59.3445 40.3773 52.5845 52.6136C52.5739 52.6328 52.5636 52.652 52.5536 52.6714C46.5526 63.6022 49.4625 72.9383 51.8014 80.442C52.8154 83.6952 53.7731 86.7678 53.7731 89.36V92.2188C53.7731 93.5131 54.8225 94.5469 56.1168 94.5469H63.156C63.1529 95.1287 63.15 95.7403 63.1487 96.3517L59.3064 104.037C53.55 104.775 49.0856 109.702 49.0856 115.656C49.0856 116.951 50.135 118 51.4293 118H102.992C104.286 118 105.336 116.951 105.336 115.656C105.336 109.702 100.871 104.775 95.1148 104.037ZM58.4606 89.875V89.36C58.4606 86.0544 57.3996 82.6508 56.2765 79.0472C53.9835 71.6908 51.6126 64.0839 56.689 54.8792C56.6982 54.8627 56.7071 54.8461 56.7157 54.8294C62.2645 44.8306 70.5076 43.0091 79.4121 42.732L77.8495 47.4214C65.2675 48.1138 58.4606 56.5266 58.4606 66.2137C58.4606 70.1041 59.2378 73.8895 60.7704 77.4653C62.6201 81.7803 63.0673 85.3028 63.1506 89.875H58.4606ZM63.1481 66.2139C63.1481 59.8258 67.2631 52.3889 78.7879 52.0731L95.3332 64.4827L94.8837 65.3817C92.3068 70.5356 87.792 69.5648 79.3704 67.2448C78.0964 66.8939 76.779 66.5309 75.4353 66.195C74.4131 65.9397 73.3464 66.3972 72.8273 67.3141C72.3082 68.2308 72.4646 69.3812 73.2096 70.1261L84.5481 81.4645C87.9384 84.8548 89.0189 90.0681 87.3882 94.5627H67.82C67.8203 94.5114 67.8318 90.3139 67.82 89.6755C67.7314 84.8911 67.2439 80.6698 65.0787 75.6187C63.7976 72.63 63.1481 69.4658 63.1481 66.2139ZM89.8245 103.938H64.5965L66.9403 99.25H87.4807L89.8245 103.938ZM54.1746 113.312C55.142 110.584 57.7487 108.625 60.8043 108.625H93.6168C96.6725 108.625 99.279 110.584 100.246 113.312H54.1746Z" fill="#212C3E"/>
<path d="M74.8652 61.4375C76.1597 61.4375 77.209 60.3882 77.209 59.0938C77.209 57.7993 76.1597 56.75 74.8652 56.75C73.5708 56.75 72.5215 57.7993 72.5215 59.0938C72.5215 60.3882 73.5708 61.4375 74.8652 61.4375Z" fill="#212C3E"/>
</svg>
