<svg width="72" height="20" viewBox="0 0 72 20" fill="none" xmlns="http://www.w3.org/2000/svg">
<path d="M8.25221 0.149354C8.59713 -0.0497845 9.02209 -0.0497846 9.367 0.149353L17.0618 4.59196C17.4067 4.7911 17.6192 5.15912 17.6192 5.55739V14.4426C17.6192 14.8409 17.4067 15.2089 17.0618 15.408L9.367 19.8506C9.02209 20.0498 8.59713 20.0498 8.25221 19.8506L0.557395 15.408C0.212478 15.2089 0 14.8409 0 14.4426V5.55739C0 5.15912 0.212478 4.7911 0.557395 4.59196L8.25221 0.149354Z" fill="#F0F3F6"/>
<path d="M35.2522 0.149354C35.5971 -0.0497845 36.0221 -0.0497846 36.367 0.149353L44.0618 4.59196C44.4067 4.7911 44.6192 5.15912 44.6192 5.55739V14.4426C44.6192 14.8409 44.4067 15.2089 44.0618 15.408L36.367 19.8506C36.0221 20.0498 35.5971 20.0498 35.2522 19.8506L27.5574 15.408C27.2125 15.2089 27 14.8409 27 14.4426V5.55739C27 5.15912 27.2125 4.7911 27.5574 4.59196L35.2522 0.149354Z" fill="#F0F3F6"/>
<path d="M62.2522 0.149354C62.5971 -0.0497845 63.0221 -0.0497846 63.367 0.149353L71.0618 4.59196C71.4067 4.7911 71.6192 5.15912 71.6192 5.55739V14.4426C71.6192 14.8409 71.4067 15.2089 71.0618 15.408L63.367 19.8506C63.0221 20.0498 62.5971 20.0498 62.2522 19.8506L54.5574 15.408C54.2125 15.2089 54 14.8409 54 14.4426V5.55739C54 5.15912 54.2125 4.7911 54.5574 4.59196L62.2522 0.149354Z" fill="#F0F3F6"/>
</svg>
