<svg width="250" height="250" viewBox="0 0 250 250" fill="none" xmlns="http://www.w3.org/2000/svg">
<circle cx="125" cy="125" r="125" fill="white"/>
<path d="M148.207 119.666H130.357V101.815C130.357 98.8566 127.958 96.458 125 96.458C122.041 96.458 119.643 98.8566 119.643 101.815V125.023C119.643 127.981 122.041 130.38 125 130.38H148.207C151.166 130.38 153.564 127.981 153.564 125.023C153.564 122.064 151.166 119.666 148.207 119.666Z" fill="#F58220"/>
<path d="M125 75C97.4301 75 75 97.4301 75 125C75 152.57 97.4301 175 125 175C152.57 175 175 152.57 175 125C175 97.4301 152.57 75 125 75ZM125 164.286C103.338 164.286 85.7143 146.663 85.7143 125C85.7143 103.338 103.338 85.7143 125 85.7143C146.662 85.7143 164.286 103.338 164.286 125C164.286 146.663 146.662 164.286 125 164.286Z" fill="#F58220"/>
</svg>
