<svg width="250" height="250" viewBox="0 0 250 250" fill="none" xmlns="http://www.w3.org/2000/svg">
<circle cx="125" cy="125" r="125" fill="white"/>
<path d="M163.281 75H86.7188C80.257 75 75 80.257 75 86.7188C75 93.1805 80.257 98.4375 86.7188 98.4375V151.562C80.257 151.562 75 156.82 75 163.281C75 169.743 80.257 175 86.7188 175H163.281C169.743 175 175 169.743 175 163.281V86.7188C175 80.257 169.743 75 163.281 75ZM80.8594 86.7188C80.8594 83.4879 83.4879 80.8398 86.7188 80.8398H153.135C152.135 82.5645 151.562 84.5859 151.562 86.7188C151.562 88.8516 152.135 90.8535 153.135 92.5781H86.7188C83.4879 92.5781 80.8594 89.9496 80.8594 86.7188ZM153.135 169.141H86.7188C83.4879 169.141 80.8594 166.512 80.8594 163.281C80.8594 160.05 83.4879 157.402 86.7188 157.402H153.135C152.135 159.127 151.562 161.148 151.562 163.281C151.562 165.414 152.135 167.416 153.135 169.141ZM169.141 163.281C169.141 166.512 166.512 169.141 163.281 169.141C160.05 169.141 157.422 166.512 157.422 163.281C157.422 160.05 160.05 157.422 163.281 157.422C164.899 157.422 166.211 156.11 166.211 154.492C166.211 152.874 164.899 151.562 163.281 151.562H92.5781V98.4375H163.281C164.899 98.4375 166.211 97.1258 166.211 95.5078C166.211 93.8898 164.899 92.5781 163.281 92.5781C160.05 92.5781 157.422 89.9496 157.422 86.7188C157.422 83.4879 160.05 80.8594 163.281 80.8594C166.512 80.8594 169.141 83.4879 169.141 86.7188V163.281Z" fill="#F58220"/>
<path d="M107.422 139.648H104.297V136.719C104.297 135.101 102.985 133.789 101.367 133.789C99.7492 133.789 98.4375 135.101 98.4375 136.719V142.578C98.4375 144.196 99.7492 145.508 101.367 145.508H107.422C109.04 145.508 110.352 144.196 110.352 142.578C110.352 140.96 109.04 139.648 107.422 139.648Z" fill="#F58220"/>
<path d="M107.422 104.492H101.367C99.7492 104.492 98.4375 105.804 98.4375 107.422V113.281C98.4375 114.899 99.7492 116.211 101.367 116.211C102.985 116.211 104.297 114.899 104.297 113.281V110.352H107.422C109.04 110.352 110.352 109.04 110.352 107.422C110.352 105.804 109.04 104.492 107.422 104.492Z" fill="#F58220"/>
<path d="M160.352 133.789C158.734 133.789 157.422 135.101 157.422 136.719V139.648H154.492C152.874 139.648 151.562 140.96 151.562 142.578C151.562 144.196 152.874 145.508 154.492 145.508H160.352C161.97 145.508 163.281 144.196 163.281 142.578V136.719C163.281 135.101 161.97 133.789 160.352 133.789Z" fill="#F58220"/>
<path d="M160.352 104.492H154.492C152.874 104.492 151.562 105.804 151.562 107.422C151.562 109.04 152.874 110.352 154.492 110.352H157.422V113.281C157.422 114.899 158.734 116.211 160.352 116.211C161.97 116.211 163.281 114.899 163.281 113.281V107.422C163.281 105.804 161.97 104.492 160.352 104.492Z" fill="#F58220"/>
<path d="M146.981 113.489L132.342 104.895C131.427 104.358 130.292 104.358 129.376 104.895L114.739 113.488C113.811 114.027 113.281 115.016 113.281 116.021V133.726C113.281 134.751 113.818 135.703 114.696 136.233L129.344 145.085C129.775 145.345 130.311 145.508 130.859 145.508C131.396 145.508 131.933 145.353 132.375 145.085L147.023 136.233C147.901 135.703 148.438 134.751 148.438 133.726V116.021C148.437 114.969 147.864 114.001 146.981 113.489ZM127.929 137.384L119.14 132.073V121.215L127.929 126.526V137.384ZM130.859 121.45L121.935 116.058L130.859 110.819L139.783 116.058L130.859 121.45ZM142.578 132.073L133.789 137.384V126.526L142.578 121.215V132.073Z" fill="#F58220"/>
</svg>
