<svg width="250" height="250" viewBox="0 0 250 250" fill="none" xmlns="http://www.w3.org/2000/svg">
<circle cx="125" cy="125" r="125" fill="white"/>
<path d="M114.299 119.034L114.653 119.388L114.299 119.034L114.113 119.221C111.187 122.146 108.701 123.377 105.389 125.016C105.255 125.082 105.12 125.149 104.983 125.217V124.903C104.983 123.005 103.445 121.467 101.548 121.467H83.9354C82.0381 121.467 80.5 123.005 80.5 124.903V172.065C80.5 173.962 82.0381 175.5 83.9354 175.5H101.548C103.445 175.5 104.983 173.962 104.983 172.065V170.961C105.248 171.051 105.516 171.141 105.787 171.233C111.366 173.122 118.389 175.5 128.687 175.5H148.514C153.646 175.5 157.82 171.326 157.82 166.194C157.82 165.175 157.656 164.193 157.351 163.274C161.032 162.033 163.691 158.548 163.691 154.452C163.691 153.433 163.526 152.451 163.222 151.532C166.903 150.291 169.562 146.807 169.562 142.711C169.562 140.511 168.809 138.405 167.428 136.698C168.759 135.088 169.562 133.022 169.562 130.773C169.562 125.642 165.388 121.467 160.256 121.467H137.589C137.944 120.651 138.257 119.647 138.532 118.549C138.901 117.078 139.209 115.404 139.457 113.718C139.951 110.349 140.208 106.897 140.208 104.869C140.208 97.835 134.486 92.1133 127.452 92.1133H125.031C123.134 92.1133 121.595 93.6514 121.595 95.5486C121.595 98.8901 120.943 103.604 119.692 108.079C118.437 112.572 116.604 116.729 114.299 119.034ZM119.157 123.893L119.157 123.893C121.849 121.202 123.966 116.657 125.494 111.934C126.958 107.408 127.901 102.648 128.279 99.0418C131.133 99.4446 133.337 101.905 133.337 104.869C133.337 107.102 132.9 110.743 132.058 114.229C131.638 115.969 131.12 117.658 130.512 119.104C129.901 120.559 129.214 121.732 128.473 122.473C127.49 123.456 127.196 124.933 127.728 126.217C128.26 127.501 129.512 128.338 130.902 128.338H160.255C161.598 128.338 162.691 129.431 162.691 130.773C162.691 132.116 161.598 133.209 160.256 133.209H142.643C140.746 133.209 139.208 134.747 139.208 136.644C139.208 138.541 140.746 140.079 142.643 140.079H160.256C161.513 140.079 162.691 141.288 162.691 142.711C162.691 144.053 161.598 145.146 160.256 145.146H160.243H160.229H160.216H160.202H160.188H160.173H160.159H160.144H160.128H160.113H160.097H160.082H160.065H160.049H160.032H160.016H159.998H159.981H159.963H159.946H159.927H159.909H159.891H159.872H159.853H159.833H159.814H159.794H159.774H159.754H159.734H159.713H159.692H159.671H159.65H159.628H159.606H159.584H159.562H159.54H159.517H159.494H159.471H159.448H159.424H159.4H159.376H159.352H159.328H159.303H159.278H159.253H159.228H159.203H159.177H159.151H159.125H159.099H159.073H159.046H159.019H158.992H158.965H158.938H158.91H158.882H158.854H158.826H158.798H158.769H158.74H158.711H158.682H158.653H158.623H158.594H158.564H158.534H158.504H158.473H158.443H158.412H158.381H158.35H158.319H158.287H158.256H158.224H158.192H158.16H158.127H158.095H158.062H158.029H157.997H157.963H157.93H157.897H157.863H157.829H157.795H157.761H157.727H157.693H157.658H157.624H157.589H157.554H157.519H157.483H157.448H157.412H157.377H157.341H157.305H157.269H157.232H157.196H157.159H157.123H157.086H157.049H157.012H156.975H156.937H156.9H156.862H156.824H156.786H156.748H156.71H156.672H156.634H156.595H156.557H156.518H156.479H156.44H156.401H156.362H156.322H156.283H156.243H156.204H156.164H156.124H156.084H156.044H156.004H155.963H155.923H155.882H155.842H155.801H155.76H155.719H155.678H155.637H155.596H155.554H155.513H155.471H155.43H155.388H155.346H155.304H155.262H155.22H155.178H155.136H155.094H155.051H155.009H154.966H154.924H154.881H154.838H154.795H154.752H154.709H154.666H154.623H154.58H154.536H154.493H154.449H154.406H154.362H154.319H154.275H154.231H154.187H154.143H154.099H154.055H154.011H153.967H153.923H153.879H153.834H153.79H153.746H153.701H153.657H153.612H153.567H153.523H153.478H153.433H153.388H153.344H153.299H153.254H153.209H153.164H153.119H153.074H153.029H152.983H152.938H152.893H152.848H152.803H152.757H152.712H152.666H152.621H152.576H152.53H152.485H152.439H152.394H152.348H152.303H152.257H152.212H152.166H152.12H152.075H152.029H151.983H151.938H151.892H151.846H151.801H151.755H151.709H151.664H151.618H151.572H151.526H151.481H151.435H151.389H151.344H151.298H151.252H151.206H151.161H151.115H151.069H151.024H150.978H150.932H150.887H150.841H150.796H150.75H150.704H150.659H150.613H150.568H150.522H150.477H150.431H150.386H150.341H150.295H150.25H150.205H150.159H150.114H150.069H150.024H149.979H149.933H149.888H149.843H149.798H149.753H149.708H149.663H149.619H149.574H149.529H149.484H149.44H149.395H149.35H149.306H149.261H149.217H149.173H149.128H149.084H149.04H148.996H148.952H148.908H148.864H148.82H148.776H148.732H148.688H148.645H148.601H148.558H148.514H148.471H148.427H148.384H148.341H148.298H148.255H148.212H148.169H148.126H148.083H148.041H147.998H147.956H147.913H147.871H147.829H147.787H147.744H147.703H147.661H147.619H147.577H147.535H147.494H147.453H147.411H147.37H147.329H147.288H147.247H147.206H147.165H147.125H147.084H147.044H147.003H146.963H146.923H146.883H146.843H146.803H146.763H146.724H146.684H146.645H146.606H146.567H146.528H146.489H146.45H146.412H146.373H146.335H146.296H146.258H146.22H146.182H146.145H146.107H146.069H146.032H145.995H145.958H145.921H145.884H145.847H145.811H145.774H145.738H145.702H145.666H145.63H145.594H145.559H145.523H145.488H145.453H145.418H145.383H145.348H145.314H145.279H145.245H145.211H145.177H145.143H145.11H145.076H145.043H145.01H144.977H144.944H144.911H144.879H144.847H144.815H144.783H144.751H144.719H144.688H144.656H144.625H144.594H144.564H144.533H144.503H144.472H144.442H144.412H144.383H144.353H144.324H144.295H144.266H144.237H144.208H144.18H144.152H144.124H144.096H144.068H144.041H144.014H143.987H143.96H143.933H143.907H143.881H143.855H143.829H143.803H143.778H143.752H143.727H143.703H143.678H143.654H143.629H143.605H143.582H143.558H143.535H143.512H143.489H143.466H143.444H143.421H143.399H143.378H143.356H143.335H143.314H143.293H143.272H143.252H143.231H143.211H143.192H143.172H143.153H143.134H143.115H143.096H143.078H143.06H143.042H143.024H143.007H142.99H142.973H142.956H142.94H142.924H142.908H142.892H142.877H142.862H142.847H142.832H142.818H142.804H142.79H142.776H142.763H142.75H142.737H142.724H142.712H142.7H142.688H142.676H142.665H142.654H142.643C140.746 145.146 139.208 146.684 139.208 148.581C139.208 150.479 140.746 152.017 142.643 152.017H154.385C155.727 152.017 156.82 153.11 156.82 154.452C156.82 155.795 155.727 156.887 154.385 156.887H154.378H154.37H154.362H154.354H154.346H154.338H154.329H154.321H154.312H154.303H154.294H154.284H154.275H154.265H154.255H154.245H154.235H154.225H154.214H154.203H154.193H154.181H154.17H154.159H154.147H154.136H154.124H154.112H154.099H154.087H154.074H154.062H154.049H154.036H154.023H154.009H153.996H153.982H153.968H153.954H153.94H153.926H153.911H153.897H153.882H153.867H153.852H153.837H153.822H153.806H153.791H153.775H153.759H153.743H153.727H153.71H153.694H153.677H153.66H153.643H153.626H153.609H153.592H153.574H153.557H153.539H153.521H153.503H153.485H153.466H153.448H153.429H153.411H153.392H153.373H153.354H153.335H153.315H153.296H153.276H153.256H153.237H153.217H153.197H153.176H153.156H153.135H153.115H153.094H153.073H153.052H153.031H153.01H152.989H152.967H152.946H152.924H152.903H152.881H152.859H152.837H152.814H152.792H152.77H152.747H152.724H152.702H152.679H152.656H152.633H152.61H152.586H152.563H152.539H152.516H152.492H152.468H152.445H152.421H152.396H152.372H152.348H152.324H152.299H152.275H152.25H152.225H152.2H152.175H152.15H152.125H152.1H152.075H152.049H152.024H151.998H151.973H151.947H151.921H151.895H151.869H151.843H151.817H151.791H151.765H151.738H151.712H151.685H151.659H151.632H151.605H151.578H151.551H151.524H151.497H151.47H151.443H151.416H151.388H151.361H151.333H151.306H151.278H151.251H151.223H151.195H151.167H151.139H151.111H151.083H151.055H151.027H150.998H150.97H150.942H150.913H150.885H150.856H150.828H150.799H150.77H150.742H150.713H150.684H150.655H150.626H150.597H150.568H150.539H150.51H150.48H150.451H150.422H150.392H150.363H150.334H150.304H150.275H150.245H150.215H150.186H150.156H150.126H150.097H150.067H150.037H150.007H149.977H149.947H149.917H149.887H149.857H149.827H149.797H149.767H149.737H149.706H149.676H149.646H149.616H149.585H149.555H149.525H149.494H149.464H149.434H149.403H149.373H149.342H149.312H149.281H149.251H149.22H149.189H149.159H149.128H149.098H149.067H149.036H149.006H148.975H148.944H148.914H148.883H148.852H148.822H148.791H148.76H148.729H148.699H148.668H148.637H148.606H148.576H148.545H148.514H148.483H148.453H148.422H148.391H148.36H148.33H148.299H148.268H148.237H148.207H148.176H148.145H148.115H148.084H148.053H148.023H147.992H147.961H147.931H147.9H147.869H147.839H147.808H147.778H147.747H147.717H147.686H147.656H147.625H147.595H147.564H147.534H147.504H147.473H147.443H147.413H147.382H147.352H147.322H147.292H147.261H147.231H147.201H147.171H147.141H147.111H147.081H147.051H147.021H146.991H146.962H146.932H146.902H146.872H146.843H146.813H146.783H146.754H146.724H146.695H146.665H146.636H146.606H146.577H146.548H146.519H146.49H146.46H146.431H146.402H146.373H146.344H146.316H146.287H146.258H146.229H146.201H146.172H146.143H146.115H146.087H146.058H146.03H146.002H145.973H145.945H145.917H145.889H145.861H145.833H145.805H145.778H145.75H145.722H145.695H145.667H145.64H145.613H145.585H145.558H145.531H145.504H145.477H145.45H145.423H145.396H145.37H145.343H145.317H145.29H145.264H145.237H145.211H145.185H145.159H145.133H145.107H145.081H145.056H145.03H145.004H144.979H144.953H144.928H144.903H144.878H144.853H144.828H144.803H144.778H144.754H144.729H144.705H144.68H144.656H144.632H144.608H144.584H144.56H144.536H144.512H144.489H144.465H144.442H144.419H144.395H144.372H144.349H144.327H144.304H144.281H144.259H144.236H144.214H144.192H144.17H144.148H144.126H144.104H144.082H144.061H144.039H144.018H143.997H143.976H143.955H143.934H143.913H143.893H143.872H143.852H143.832H143.812H143.792H143.772H143.752H143.732H143.713H143.694H143.674H143.655H143.636H143.618H143.599H143.58H143.562H143.544H143.525H143.507H143.489H143.472H143.454H143.437H143.419H143.402H143.385H143.368H143.351H143.335H143.318H143.302H143.286H143.269H143.254H143.238H143.222H143.207H143.191H143.176H143.161H143.146H143.131H143.117H143.102H143.088H143.074H143.06H143.046H143.033H143.019H143.006H142.992H142.979H142.967H142.954H142.941H142.929H142.917H142.905H142.893H142.881H142.869H142.858H142.847H142.836H142.825H142.814H142.804H142.793H142.783H142.773H142.763H142.753H142.744H142.734H142.725H142.716H142.707H142.699H142.69H142.682H142.674H142.666H142.658H142.651H142.643C140.746 156.887 139.208 158.426 139.208 160.323C139.208 162.22 140.746 163.758 142.643 163.758H148.514C149.856 163.758 150.949 164.851 150.949 166.194C150.949 167.536 149.856 168.629 148.514 168.629H128.687C119.506 168.629 113.493 166.595 106.789 164.327C106.193 164.125 105.592 163.922 104.983 163.718V132.897C105.72 132.53 106.415 132.187 107.077 131.861C112.123 129.377 115.174 127.875 119.157 123.893ZM98.1123 130.773V166.194V168.629H87.3707V128.338H98.1123V130.773Z" fill="#F58220" stroke="#F58220"/>
<path d="M119.023 85.3431L116.088 79.4725L116.532 79.2505L116.088 79.4725C115.239 77.7755 115.927 75.7119 117.624 74.8634L119.023 85.3431ZM119.023 85.3431C119.023 85.3431 119.023 85.3432 119.023 85.3432M119.023 85.3431L119.023 85.3432M123.632 86.8795C125.329 86.0312 126.017 83.9675 125.168 82.2706L122.233 76.3997C122.233 76.3997 122.233 76.3997 122.233 76.3997C121.385 74.7029 119.321 74.0147 117.624 74.8634L123.632 86.8795ZM123.632 86.8795C121.936 87.7277 119.872 87.0407 119.023 85.3432M123.632 86.8795L119.023 85.3432" fill="#F58220" stroke="#F58220"/>
<path d="M136.635 82.2707L136.635 82.2707L139.57 76.3998C139.57 76.3998 139.57 76.3998 139.57 76.3998C140.419 74.7028 142.483 74.0152 144.179 74.8635L136.635 82.2707ZM136.635 82.2707C135.786 83.9676 136.474 86.0313 138.171 86.8798M136.635 82.2707L138.171 86.8798M138.171 86.8798C139.868 87.7285 141.932 87.04 142.78 85.3435M138.171 86.8798L142.78 85.3435M142.78 85.3435L145.715 79.4728M142.78 85.3435L145.715 79.4728M145.715 79.4728C146.564 77.7756 145.876 75.7122 144.179 74.8635L145.715 79.4728Z" fill="#F58220" stroke="#F58220"/>
<path d="M154.384 92.113H148.513C146.616 92.113 145.078 93.6512 145.078 95.5484C145.078 97.4456 146.616 98.9837 148.513 98.9837H154.384C156.281 98.9837 157.82 97.4456 157.82 95.5484C157.82 93.6512 156.281 92.113 154.384 92.113Z" fill="#F58220" stroke="#F58220"/>
<path d="M113.288 92.113H107.418C105.521 92.113 103.982 93.6512 103.982 95.5484C103.982 97.4456 105.521 98.9837 107.418 98.9837H113.288C115.186 98.9837 116.724 97.4456 116.724 95.5484C116.724 93.6512 115.186 92.113 113.288 92.113Z" fill="#F58220" stroke="#F58220"/>
</svg>
