<svg width="62" height="62" viewBox="0 0 62 62" fill="none" xmlns="http://www.w3.org/2000/svg">
<path d="M31.0077 0H30.9923C13.8996 0 0 13.9035 0 31C0 37.7812 2.1855 44.0665 5.90163 49.1699L2.03825 60.6864L13.9539 56.8773C18.8558 60.1245 24.7031 62 31.0077 62C48.1004 62 62 48.0926 62 31C62 13.9074 48.1004 0 31.0077 0Z" fill="url(#paint0_linear)"/>
<path d="M45.9098 24.8156C45.8368 23.2189 45.5832 22.1285 45.2124 21.1746C44.8359 20.1737 44.2454 19.2671 43.4823 18.5177C42.7332 17.7546 41.8263 17.1639 40.8254 16.7871C39.8712 16.4166 38.7811 16.1632 37.1844 16.0906C35.5847 16.0174 35.0736 16 31 16C26.9264 16 26.4153 16.0174 24.8156 16.0902C23.2189 16.1632 22.1288 16.4168 21.1746 16.7876C20.1737 17.1641 19.2671 17.7546 18.5177 18.5177C17.7546 19.2668 17.1639 20.1734 16.7871 21.1743C16.4166 22.1285 16.1632 23.2189 16.0906 24.8154C16.0174 26.4153 16 26.9261 16 30.9998C16 35.0736 16.0174 35.5847 16.0906 37.1844C16.1634 38.7808 16.417 39.8712 16.7878 40.8254C17.1643 41.8261 17.7548 42.7329 18.5179 43.4821C19.2671 44.2452 20.1739 44.8357 21.1748 45.2122C22.1288 45.5832 23.2192 45.8366 24.8158 45.9096C26.4157 45.9826 26.9266 45.9998 31.0002 45.9998C35.0739 45.9998 35.585 45.9826 37.1846 45.9096C38.7813 45.8366 39.8715 45.5832 40.8257 45.2122C42.8405 44.4331 44.4333 42.8403 45.2124 40.8254C45.5834 39.8712 45.8368 38.7808 45.9098 37.1844C45.9826 35.5845 46 35.0736 46 31C46 26.9261 45.9826 26.4153 45.9098 24.8156ZM43.2097 37.0615C43.1431 38.524 42.8987 39.3183 42.6933 39.8467C42.1887 41.155 41.1548 42.1889 39.8465 42.6936C39.318 42.8989 38.5238 43.1433 37.0612 43.2099C35.4799 43.2823 35.0054 43.2974 31 43.2974C26.9943 43.2974 26.5201 43.2823 24.9385 43.2099C23.4762 43.1433 22.682 42.8989 22.1533 42.6936C21.5019 42.453 20.9125 42.0696 20.4286 41.5714C19.9304 41.0875 19.547 40.4984 19.3064 39.8467C19.1011 39.3183 18.8567 38.524 18.7901 37.0615C18.718 35.4799 18.7026 35.0054 18.7026 31.0002C18.7026 26.9948 18.718 26.5206 18.7901 24.9388C18.8569 23.4762 19.1011 22.682 19.3064 22.1535C19.547 21.5019 19.9306 20.9125 20.4286 20.4286C20.9125 19.9304 21.5019 19.547 22.1535 19.3067C22.682 19.1011 23.4762 18.8569 24.9388 18.7901C26.5203 18.718 26.9948 18.7026 31 18.7026H30.9998C35.005 18.7026 35.4794 18.718 37.0612 18.7903C38.5238 18.8569 39.3178 19.1013 39.8465 19.3067C40.4979 19.5472 41.0873 19.9306 41.5711 20.4286C42.0694 20.9125 42.4528 21.5019 42.6931 22.1535C42.8987 22.682 43.1431 23.4762 43.2097 24.9388C43.2818 26.5203 43.2971 26.9948 43.2971 31C43.2971 35.0054 43.282 35.4797 43.2097 37.0615Z" fill="white"/>
<path d="M30.9997 23.2972C26.7457 23.2972 23.2971 26.746 23.2971 31C23.2971 35.254 26.7457 38.7026 30.9997 38.7026C35.2539 38.7026 38.7025 35.254 38.7025 31C38.7025 26.746 35.2539 23.2972 30.9997 23.2972ZM30.9997 36C28.2384 35.9997 25.9998 33.7613 26 30.9998C26 28.2386 28.2384 25.9999 30.9999 25.9999C33.7614 26.0001 35.9998 28.2386 35.9998 30.9998C35.9998 33.7613 33.7611 36 30.9997 36Z" fill="white"/>
<path d="M40.8078 22.9931C40.8078 23.9871 40.002 24.793 39.0079 24.793C38.0137 24.793 37.2078 23.9871 37.2078 22.9931C37.2078 21.9988 38.0137 21.1929 39.0079 21.1929C40.002 21.1929 40.8078 21.9988 40.8078 22.9931Z" fill="white"/>
<defs>
<linearGradient id="paint0_linear" x1="5.20293" y1="56.797" x2="56.7974" y2="5.20287" gradientUnits="userSpaceOnUse">
<stop stop-color="#FFD600"/>
<stop offset="0.5" stop-color="#FF0100"/>
<stop offset="1" stop-color="#D800B9"/>
</linearGradient>
</defs>
</svg>
