<?xml version="1.0" encoding="UTF-8"?>
<!DOCTYPE svg PUBLIC "-//W3C//DTD SVG 1.1//EN" "http://www.w3.org/Graphics/SVG/1.1/DTD/svg11.dtd">
<!-- Creator: CorelDRAW X7 -->
<svg xmlns="http://www.w3.org/2000/svg" xml:space="preserve" width="145.457mm" height="73.867mm" version="1.1" style="shape-rendering:geometricPrecision; text-rendering:geometricPrecision; image-rendering:optimizeQuality; fill-rule:evenodd; clip-rule:evenodd"
viewBox="0 0 145457 73867"
 xmlns:xlink="http://www.w3.org/1999/xlink">
 <defs>
  <style type="text/css">
   <![CDATA[
    .fil0 {fill:#EF7F1A}
    .fil1 {fill:#EF7F1A;fill-rule:nonzero}
   ]]>
  </style>
 </defs>
 <g id="Слой_x0020_1">
  <metadata id="CorelCorpID_0Corel-Layer"/>
  <g id="_2229893154320">
   <path class="fil0" d="M12240 11691l471 0c942,1099 13495,16791 14594,17889 941,1256 7061,8631 12554,15379 3344,3991 6369,7558 8153,9639 810,945 1023,1106 1233,1337 1351,1480 3952,804 3952,-1340l0 -8805c-6326,-6987 -12286,-14403 -18046,-21859 -1651,-2136 -16948,-21499 -17733,-22283 -470,-471 -941,-706 -1883,-706 -470,0 -1177,78 -2196,78 -942,78 -2119,157 -3453,157 -3452,0 -5571,0 -6984,-79 -1411,-78 -2039,-156 -2431,-156 -314,0 -471,156 -471,471l0 2118c0,314 157,470 471,549l2511 0c3452,0 6119,3609 6119,8317l0 9965c0,12554 -470,23538 -549,24951 -392,4786 -1491,6512 -3530,6512l-2668 0c-314,0 -471,314 -471,471l0 1961c0,563 157,719 471,719 784,0 6120,-235 8160,-235 2982,0 7689,235 8474,235 627,0 627,-156 627,-640l0 -1805c0,-392 0,-706 -627,-706l-2040 0c-2825,0 -3766,-1884 -3923,-5806 -157,-2433 -785,-13417 -785,-26756l0 -9572zm127568 26912l0 0c0,-2275 941,-2903 2354,-2903l2668 0c470,0 627,-157 627,-627l0 -1962c0,-392 -157,-549 -784,-549 -785,0 -3452,235 -10044,235 -6433,0 -10199,-235 -11141,-235 -314,0 -471,157 -471,627l0 1805c0,393 157,706 628,706l3295 0c2040,0 2825,785 2825,3609l0 5728c0,4080 -157,6277 -1883,7218 -2668,1413 -5649,2041 -10671,2041 -3999,0 -7201,-1097 -10241,-3366l0 5665c3247,903 6576,1323 9613,1323 9416,0 15849,-1896 22283,-5191 785,-314 1256,-628 1256,-1256 0,-628 -314,-1412 -314,-2511l0 -10357zm-37961 -26270l0 0c672,-1060 1402,-2040 2183,-2918 4236,-4864 8473,-6119 13338,-6119 5963,0 10357,2667 13025,5491 3138,3296 5178,7690 6276,10828 158,472 314,707 785,628l1884 -314c313,-78 313,-470 313,-1098l-785 -15693c0,-627 -156,-1098 -941,-1098 -471,0 -706,236 -1098,785l-942 1255c-471,628 -942,863 -1883,157 -2511,-1883 -8474,-4237 -16006,-4237 -7911,0 -14268,1884 -19449,5464l363 419 547 723 494 746 437 765 385 782 334 796 284 810 234 818 189 824 33 186zm-36500 -5821l0 0c-80,10862 -313,20520 -313,29659 0,4707 157,13496 313,14672 237,1570 786,2982 2041,2982l3923 0c471,0 628,235 628,549l0 1883c0,563 -236,719 -863,719 -1021,0 -2590,-235 -10750,-235 -1654,0 -3923,85 -4632,-16 -284,-41 -263,-3555 -233,-5489 125,-7847 158,-15222 158,-22597l0 -20636c0,-2668 -1099,-3923 -2511,-3923l-3060 0c-392,0 -549,-157 -549,-470l0 -2119c0,-393 157,-549 549,-549 549,0 3060,235 10749,235 4394,0 11612,-235 13966,-235 18488,0 24184,6238 24598,13854 491,9023 -3567,15445 -19335,15255l0 313c3540,1265 9362,10264 11266,13182 500,766 4956,7861 6145,8945 1477,1348 4213,1491 6096,1491 471,0 627,235 627,549l0 1648c0,549 -156,797 -627,797 -628,0 -1399,-235 -6420,-235 -5564,0 -8750,312 -11627,-4250 -3779,-5993 -6541,-10481 -9934,-16068 -1734,-2854 -2089,-5373 -6572,-5415l0 -3202c178,10 3370,-69 3547,-69 12240,0 18294,-5361 17953,-12268 -324,-6559 -3975,-9548 -10106,-10941 -4145,-942 -8992,-762 -11260,-762 -1255,0 -2197,79 -2824,471 -628,391 -935,1334 -943,2275z"/>
   <path class="fil1" d="M2386 64436l0 9298 1249 0 0 -3705 2417 0c2405,0 3268,-1183 3268,-2923 0,-1926 -1248,-2670 -3148,-2670l-3786 0zm1249 1050l2285 0c1434,0 2125,504 2125,1647 0,1222 -651,1846 -2125,1846l-2285 0 0 -3493zm8953 2922l0 -2922 5379 0 0 -1050 -6628 0 0 9298 6774 0 0 -1049 -5525 0 0 -3228 4874 0 0 -1049 -4874 0zm8593 265l0 -4237 -1249 0 0 9298 1249 0 0 -4848 4370 4848 1634 0 -4715 -4994 4423 -4304 -1528 0 -4184 4237zm6588 5061c1860,306 3440,-730 3440,-5034l0 -3214 3334 0 0 8248 1249 0 0 -9298 -5831 0 0 3998c0,3507 -983,4437 -2192,4211l0 1089zm11781 -2404l3932 0 877 2404 1342 0 -3521 -9298 -1328 0 -3520 9298 1342 0 876 -2404zm346 -1049l1620 -4583 1621 4583 -3241 0zm11622 3453l1010 0 3015 -7810 40 0 -27 359 0 7451 1249 0 0 -9298 -1873 0 -2909 7651 -2909 -7651 -1873 0 0 9298 1249 0 0 -7451 -27 -359 27 0 3028 7810zm9258 -4370l4675 0 0 4370 1249 0 0 -9298 -1249 0 0 3879 -4675 0 0 -3879 -1249 0 0 9298 1249 0 0 -4370zm9683 1966l3931 0 877 2404 1342 0 -3521 -9298 -1328 0 -3520 9298 1342 0 877 -2404zm345 -1049l1620 -4583 1621 4583 -3241 0zm12871 -239l0 3692 1248 0 0 -9298 -3971 0c-2391,0 -3201,1262 -3201,2777 0,2165 1660,2643 2523,2696l-2523 3825 1541 0 2271 -3692 2112 0zm0 -4556l0 3506 -2444 0c-1900,0 -2205,-1022 -2205,-1766 0,-731 359,-1740 2032,-1740l2617 0zm11131 0l4676 0 0 -1050 -5924 0 0 9298 1248 0 0 -8248zm6442 -1050l0 9298 1249 0 0 -3705 2417 0c2405,0 3268,-1183 3268,-2923 0,-1926 -1249,-2670 -3148,-2670l-3786 0zm1249 1050l2284 0c1435,0 2126,504 2126,1647 0,1222 -651,1846 -2126,1846l-2284 0 0 -3493zm10892 4543l-2670 -5593 -1528 0 3533 6987c-385,1262 -943,1368 -1461,1368 -305,0 -584,-40 -876,-146l0 1089c385,107 637,133 1036,133 730,0 1634,-26 2364,-1793l3148 -7638 -1315 0 -2231 5593zm6335 -4543l4676 0 0 8248 1248 0 0 -9298 -7173 0 0 9298 1249 0 0 -8248zm9895 0l4676 0 0 8248 1249 0 0 -9298 -7174 0 0 9298 1249 0 0 -8248zm9683 5844l3932 0 877 2404 1341 0 -3520 -9298 -1328 0 -3520 9298 1341 0 877 -2404zm345 -1049l1621 -4583 1620 4583 -3241 0z"/>
  </g>
 </g>
</svg>
