<?xml version="1.0" encoding="UTF-8"?>
<!DOCTYPE svg PUBLIC "-//W3C//DTD SVG 1.1//EN" "http://www.w3.org/Graphics/SVG/1.1/DTD/svg11.dtd">
<!-- Creator: CorelDRAW X7 -->
<svg xmlns="http://www.w3.org/2000/svg" xml:space="preserve" width="105.815mm" height="85.377mm" version="1.1" style="shape-rendering:geometricPrecision; text-rendering:geometricPrecision; image-rendering:optimizeQuality; fill-rule:evenodd; clip-rule:evenodd"
viewBox="0 0 105815 85377"
 xmlns:xlink="http://www.w3.org/1999/xlink">
 <defs>
  <style type="text/css">
   <![CDATA[
    .fil1 {fill:#FEFEFE}
    .fil2 {fill:#FEFEFE;fill-rule:nonzero}
    .fil0 {fill:#EF7F1A}
   ]]>
  </style>
     <clipPath id="id0">
      <path d="M24228 10121l63472 0 0 63472 -63472 0 0 -63472z"/>
     </clipPath>
 </defs>
 <g id="Слой_x0020_1">
  <metadata id="CorelCorpID_0Corel-Layer"/>
  <g id="_1862887769680">
   <path class="fil0" d="M31093 35579c-4,32 -7,62 -7,92 -170,-54 -339,-110 -511,-157 -55,-2 -76,-22 -66,-83 17,-100 -55,-120 -133,-129 -76,16 -151,32 -226,48 -120,16 -238,41 -364,10 -399,-93 -809,-135 -1192,-299 -94,-40 -224,-64 -338,30 119,216 326,322 545,374 186,44 33,95 25,146 -110,9 -219,18 -330,28 -304,-46 -607,-105 -916,-108 -226,-52 -431,57 -646,90 -134,25 -267,52 -400,77 36,152 79,302 33,459l-39 17c-210,40 -421,61 -638,43 -173,-14 -270,109 -253,257 14,121 163,111 259,101 237,-28 452,-132 667,-230 108,-25 216,-23 325,-9 94,51 193,82 300,81 218,118 427,207 679,60 143,-84 334,-92 489,-15 133,66 278,77 407,129 263,105 554,190 649,513 -33,156 -134,279 -200,419 -17,26 -50,41 -48,78 49,80 65,181 161,228 106,-113 288,-48 393,-167l71 -17c-65,41 -126,103 -188,185 -77,106 -148,216 -222,324 -7,93 9,184 41,271 84,381 395,554 686,743 357,185 734,-18 750,-404 22,-81 -35,-161 -4,-243 -38,-135 -16,-286 -85,-414l-36 -61c-104,-206 -296,-313 -490,-400 -36,-16 -71,-29 -104,-39 142,-3 278,-43 411,-100 178,-76 351,-106 516,40 62,56 145,86 219,127 199,154 442,207 671,294 197,116 400,221 606,319 -45,9 -93,12 -134,37 -73,37 -174,0 -225,89 -182,167 -341,349 -423,587 -61,69 -23,146 -13,219 32,233 69,466 105,699 -47,121 -128,215 -232,290l-49 2c-150,6 -208,-102 -269,-211 -85,-153 -163,-318 -330,-399 -337,-162 -589,-28 -755,392 18,107 37,213 55,320 135,230 254,479 578,482 134,50 261,-9 389,-28 92,-15 157,12 216,92 162,225 382,374 637,483 271,116 580,201 637,565l54 37c-6,143 87,239 168,340 150,183 363,275 562,387 108,117 280,186 289,378 -68,82 -197,47 -262,135 -144,70 -284,148 -433,206 -359,140 -475,414 -324,768 103,244 311,395 484,577 95,176 253,276 425,361 118,104 249,175 411,171 351,25 361,30 514,-289 107,-224 -132,-232 -218,-334 -29,-33 -78,-48 -117,-71 -42,-74 -85,-148 -126,-222 17,-150 93,-271 174,-391 263,-190 507,-419 865,-409 123,116 239,45 356,-11 275,-129 437,-348 540,-620 45,17 89,28 132,-5 168,-126 368,-142 558,-196 24,-3 46,-4 68,-3 103,78 180,178 193,338 -50,294 -152,544 -468,661 -115,44 -182,173 -125,309 47,110 59,237 144,331 44,133 42,258 6,375 -83,26 -166,52 -248,78 -295,19 -569,140 -883,94 -194,-29 -433,21 -615,151 -199,142 -180,275 33,376 368,172 742,240 1134,95 124,-14 240,11 336,61 -12,75 -25,151 -36,226 -15,99 70,80 127,49 39,-22 80,-40 121,-57 2,4 4,9 6,13 72,177 95,420 11,628 -61,152 -109,327 -313,357l10 12c-116,11 -203,59 -277,123 -33,-77 -83,-146 -152,-200 -330,-259 -602,-345 -788,103 -65,156 -160,282 -325,341 -78,-81 -155,-163 -231,-244 -20,-30 -40,-59 -60,-89 -56,-243 -46,-505 -192,-724l-23 -40c-99,-209 -278,-272 -492,-246 -145,16 -287,47 -430,73l-49 8c-201,31 -303,-118 -428,-231 -210,-191 -400,-411 -707,-453 24,-88 -22,-82 -67,-77 -12,2 -24,3 -35,3 -9,-28 -19,-58 -28,-88 -132,-497 -400,-667 -781,-495 -81,31 -119,102 -153,174 -112,83 -157,259 -340,239 -75,-42 -165,-97 -159,-184 20,-312 -178,-229 -347,-206 -68,11 -137,22 -205,33 -281,44 -266,39 -182,301 87,273 202,551 78,846 -64,-5 -129,-10 -194,-15l-41 -9c-143,-98 -287,-196 -430,-294 -66,-40 -132,-79 -199,-117 -184,-145 -359,-310 -612,-329 -410,-11 -805,62 -1186,210 -129,49 -255,112 -294,266 -68,74 -136,149 -205,223 -116,73 -224,179 -350,213 -372,100 -541,388 -702,691 -221,412 -157,870 -208,1310 -11,79 3,154 34,226 205,520 898,917 1409,808 256,-61 434,79 608,234 -23,54 -47,110 -71,166 -24,50 -46,99 -70,149 -53,85 -106,169 -159,254 -182,170 -83,387 -93,585 -8,181 25,399 -175,484 -494,209 -654,603 -663,1097l-5 55c-27,130 -9,253 71,367 49,184 87,372 148,552 93,279 404,537 628,540 329,5 518,-135 640,-473 66,-69 61,-156 62,-241 27,-177 13,-360 20,-540 84,-11 172,-10 230,-92 222,-69 434,-161 643,-261 14,75 26,151 40,227 4,46 8,92 16,137 42,232 188,420 296,620 -326,140 -651,287 -881,582 -46,58 -95,121 -63,185 39,78 122,33 188,24 195,-23 336,-147 483,-259 238,-181 460,-388 762,-465 8,-36 -5,-62 -26,-77 61,5 120,0 172,-45 421,-236 552,-517 411,-914 -57,-161 -141,-301 -249,-420 110,-33 220,-66 329,-99 234,-34 464,-89 698,-126 71,51 133,111 154,211 32,20 27,70 62,88 20,121 41,241 61,361l-11 4c14,567 238,1007 760,1267l13 20c23,38 47,75 93,88 121,96 116,242 106,362 -22,270 101,451 294,607 120,102 251,58 380,27 109,-12 212,-3 316,40 173,73 304,206 458,306 335,221 886,142 1137,-150 101,-118 205,-248 380,-274l-1 -27 1 27c121,-16 244,-32 366,-50 30,-3 78,-23 89,-10 169,190 379,119 581,95 89,-11 165,21 237,67 159,101 279,225 357,379 -55,-9 -62,26 -72,73 -39,187 -69,367 166,455 23,9 42,22 58,37 66,205 180,387 361,533 113,91 215,196 322,294l-43 60c-14,32 -36,57 -61,78 -14,-8 -32,-14 -56,-19 -128,-27 -206,9 -229,116 -19,-2 -37,-6 -56,-10 -63,7 -127,4 -192,0 -138,-7 -277,-15 -399,85 -28,33 -24,64 5,94 70,246 271,246 470,249l2 -1c169,-2 338,-5 507,-8 -142,189 -265,391 -317,628 -12,58 -11,140 52,163 64,23 112,-44 147,-90 93,-123 180,-249 297,-351 47,-30 93,-61 138,-95 -25,54 -71,104 -31,168 54,74 128,75 207,55 75,42 138,49 231,9 52,-23 102,-49 151,-77 84,325 282,554 571,725 209,123 357,309 381,567 42,94 66,191 44,295 48,193 -42,357 -121,521 -138,279 -241,559 -80,864 66,238 130,472 -9,708 -323,549 -253,1060 209,1513 87,86 182,163 275,245 59,70 126,128 219,153 64,22 127,45 191,67 35,35 76,29 116,24 28,-4 56,-8 80,2 237,102 424,37 525,-185 127,-278 58,-588 149,-872 183,-328 362,-656 662,-896 100,-41 202,-37 306,-32 73,3 147,6 219,-7 280,-50 504,127 569,402 37,158 -16,302 -19,454 -79,344 19,686 13,1030 -57,72 -22,150 -7,223 68,363 157,721 207,1086 37,265 124,489 318,674 75,71 109,158 101,270 -25,399 70,508 484,575 300,123 290,409 343,660 5,46 10,91 14,136 -52,102 -38,195 43,277 17,131 114,227 156,348 34,117 49,244 103,350 251,477 483,669 875,438 116,-68 221,-152 331,-229 417,-147 672,128 943,361 41,65 80,131 123,193 174,249 389,374 711,290 268,-70 547,-94 820,-139 496,29 804,377 1142,673 208,207 511,330 579,659 51,235 32,470 8,705 -104,357 14,594 357,727 199,78 407,143 563,303 80,122 140,268 246,358 207,179 318,387 336,656 9,123 34,245 56,367 62,332 424,690 749,735 107,16 260,22 252,-118 -14,-317 20,-656 -214,-921 -435,-496 -817,-1025 -1061,-1644 -95,-105 -26,-255 -100,-365 2,-79 47,-155 18,-236 67,-126 99,-274 226,-361 101,-123 193,-265 389,-215 199,-18 339,91 383,258 73,275 282,424 464,602 63,101 125,201 187,301 55,253 152,489 298,703 155,315 297,638 569,877 46,40 100,76 109,145 41,7 58,-5 35,-47 -87,-355 -295,-672 -325,-1045l-34 -26c31,-88 121,-50 177,-84 351,73 656,269 997,367 53,39 105,78 159,117 167,174 138,416 216,620 199,524 555,968 753,1490 13,32 50,54 78,80 275,450 982,713 1588,593 395,-79 736,-503 825,-1025 25,-265 -58,-508 -187,-732 -268,-461 -553,-913 -711,-1429 -87,-439 -294,-822 -567,-1172 -63,-81 -158,-147 -133,-271l1 -49c170,24 205,191 305,289 85,84 150,189 344,178 -219,-249 -466,-444 -467,-773 23,-152 -87,-361 176,-410 47,-8 95,-15 144,-23 60,-7 120,-14 179,-20 206,73 410,37 614,-11l42 -8c42,5 86,-2 115,39 271,68 541,136 812,203 89,93 185,70 281,48 50,-13 100,-24 149,-20 394,172 815,312 973,779 45,29 102,69 142,20 39,-51 8,-117 -19,-173 -23,-75 -35,-156 -93,-218 -23,-52 -42,-107 -104,-130 -117,-93 -231,-189 -373,-253 -145,-66 -274,-166 -208,-364 -55,-69 -56,-155 -79,-236 -53,-194 -16,-395 -54,-589 70,-101 132,-210 215,-299 42,-46 49,-56 2,-98 -316,-280 -410,-701 -652,-1031 -148,-201 -272,-443 -227,-721l0 -1c-5,-61 -12,-123 -18,-185 77,-113 -28,-157 -83,-222 -66,-78 -66,-105 -11,-106 191,-4 149,-132 147,-242 25,-166 -3,-343 99,-493 239,-199 549,-143 820,-226 73,-18 136,10 199,38 61,28 121,55 189,41 33,10 66,21 99,32 268,86 459,274 642,474 132,143 268,290 496,194 234,-3 470,-132 703,-10 258,137 532,180 820,158 253,92 450,276 677,413 52,64 114,125 137,210 86,353 26,715 63,1072 -34,79 35,160 -4,239 35,126 59,256 109,375 61,146 160,278 328,293 175,18 323,-43 426,-214 117,-196 174,-402 183,-625 -21,-134 -7,-261 89,-365 286,-312 237,-568 -146,-762 -340,-173 -402,-367 -224,-706 218,-351 377,-722 385,-1144 194,-319 217,-712 450,-1014 56,-119 151,-78 235,-51 129,42 254,43 388,-9 -113,-193 -282,-295 -491,-339 -46,-50 -95,-93 -162,-108 -125,-169 -91,-348 -11,-516 97,-206 155,-422 189,-645 -20,-125 42,-249 2,-373 -190,-361 -255,-785 -560,-1093 59,17 109,38 161,55 443,155 786,418 934,883 27,87 84,120 159,143 62,51 123,102 184,153 43,42 89,80 129,125 195,213 499,335 553,665 -36,37 -31,83 -27,129 45,459 258,771 742,845 54,70 128,82 207,86 -15,-97 -28,-179 -41,-260 1,-45 -16,-57 -55,-32 -29,22 -59,43 -88,63l-44 -1c-12,-45 -24,-92 -36,-137 -4,-61 -8,-121 -12,-182 178,-236 343,-80 511,16 629,477 1212,1014 1868,1455 102,69 194,151 323,165 83,40 166,78 250,117 50,43 97,93 167,103 66,37 132,74 199,112 159,120 324,227 520,276 41,10 162,56 65,-73 -11,-124 68,-95 139,-81 30,-7 61,-13 91,-20 333,67 598,276 889,430 502,266 1006,536 1556,690 213,60 417,107 554,295 286,427 339,984 743,1349 39,36 40,113 60,170 -3,148 93,255 156,376 128,240 292,479 257,763 -22,174 15,300 129,411 150,147 225,322 250,529 9,80 1,173 82,230 76,581 357,1061 747,1484 99,120 200,237 336,317 156,142 321,269 518,350 215,154 459,265 649,453 59,100 156,152 252,204 361,53 675,-96 977,-253 170,-88 148,-258 4,-394 -104,-99 -238,-136 -356,-207 -223,-220 -248,-329 -123,-527 37,-58 68,-118 102,-178 150,-150 131,-349 154,-535 74,-262 82,-513 -116,-732 -297,-277 -562,-613 -1034,-582 -385,-67 -684,78 -922,376 -41,44 -91,82 -121,132 -106,173 -209,181 -356,32 -102,-102 -159,-236 -261,-335 -142,-248 -258,-507 -261,-798 -4,-346 -37,-693 -129,-1023 -77,-275 -116,-548 -123,-829 -29,-208 23,-431 -107,-619 -284,-410 -379,-886 -486,-1359 12,-189 21,-379 37,-568 42,-485 84,-970 26,-1456 -19,-158 -15,-303 62,-444 48,-72 194,-35 189,-167 -90,-103 -128,-233 -191,-351l-19 -14c10,-68 38,-104 78,-121l17 0c52,-2 106,-15 156,12 64,32 104,98 175,121 -28,99 36,162 94,229 55,38 105,89 182,51 123,-189 17,-378 -1,-567 6,-77 13,-156 19,-233 105,-34 209,-22 314,-10 83,9 167,19 250,5 110,-18 179,42 260,109 254,211 415,499 625,745 46,27 90,58 138,81 656,313 1369,526 1882,1087l42 17 53 38c79,71 153,151 240,212 263,181 375,505 660,669 570,325 1083,725 1512,1227 143,189 319,359 365,606 5,71 32,129 93,169 208,209 388,449 638,613l23 35c260,289 520,579 781,869 247,254 541,330 881,233 278,-357 240,-1060 -76,-1392 -437,-331 -866,-672 -1325,-972 -95,-94 -189,-187 -283,-281 -183,-333 -328,-683 -454,-1043 -113,-321 -255,-630 -504,-874 -3,-75 -65,-101 -115,-135 -487,-335 -1035,-551 -1575,-780 -171,-81 -360,-124 -508,-251 -174,-185 -292,-431 -559,-516 -146,-58 -294,-116 -441,-174 -35,-40 -68,-84 -108,-119 -122,-112 -194,-256 -153,-410 42,-162 217,-98 334,-131 376,157 795,240 1109,509 319,274 715,311 1083,438 71,25 203,20 235,-25 52,-68 8,-177 -37,-259 -23,-39 -53,-78 -88,-106 -197,-164 -415,-291 -665,-354 -464,-117 -935,-213 -1314,-537l2 0c-112,8 -196,-69 -296,-95 -326,-135 -423,-412 -449,-732 -27,-233 45,-455 243,-516 0,146 82,294 241,411 93,66 184,146 311,58 81,-55 137,-120 149,-198l8 5c154,120 334,169 521,209 258,54 325,158 290,415 -18,58 -43,114 -53,174 -11,68 -21,155 55,181 79,26 171,14 217,-79 19,-38 26,-84 39,-127 31,-152 112,-242 277,-236 90,4 134,-59 178,-122 -5,-82 -64,-124 -129,-148 -413,-156 -825,-307 -1240,-457 -40,-15 -90,0 -135,0 -22,0 -43,-1 -63,-3 -67,-188 -254,-355 -428,-394 -8,-2 -16,-3 -23,-4 38,-45 96,-74 147,-105 295,-183 623,-226 963,-201 37,52 93,70 153,74 287,247 645,219 1022,-80 134,-114 213,-281 363,-379 70,-79 186,-68 261,-135 -145,-135 -301,-255 -477,-348 -150,-129 -300,-255 -479,-343l0 0c-313,-190 -378,-587 -666,-801 -57,-43 4,-93 22,-142 78,-204 122,-409 -18,-608 -100,-154 -123,-293 82,-381 48,-8 79,-38 113,-73 313,-329 629,-656 944,-984 276,-158 407,-396 396,-713 -9,-266 -37,-290 -296,-249 -98,17 -197,29 -294,43 -45,10 -90,21 -136,32 -174,-42 -342,-1 -511,33 -102,-53 -242,-103 -256,-212 -38,-278 -171,-525 -229,-794 59,-99 123,-193 237,-235 4,-93 -28,-167 -118,-206 -30,1 -60,-2 -90,-4 -83,-8 -167,-15 -237,57l-18 18 16 -45c-132,-76 -281,-65 -423,-86l-71 10c-237,-101 -478,-217 -590,-454 -118,-248 -296,-323 -506,-340 66,-23 126,-60 171,-129 180,-95 237,-273 296,-448 -7,-109 -9,-218 -73,-313 -177,-189 -363,-355 -583,-443 47,-29 91,-63 130,-104 21,11 35,23 63,33 84,8 168,-3 249,-22 322,-78 634,-71 933,88l69 -4c46,92 153,126 215,205 51,59 51,126 29,196 -10,35 -16,71 -5,106l-68 57c-27,54 -131,10 -127,91 2,55 74,26 107,49 83,-50 160,-25 238,0 61,20 121,39 184,23l12 26c89,28 181,48 274,56l41 -7c276,226 613,338 927,496l4 -3 -8 19c71,133 185,206 327,242 -5,27 -9,55 -14,83l-2 -1 -68 -11c-85,7 -174,4 -247,48l-40 -8c-97,-33 -194,-49 -295,-27l-18 13c-29,-74 -99,-90 -164,-101 -275,-44 -545,-110 -818,-154 -110,-17 -269,-64 -301,75 -28,128 129,180 237,208 359,90 698,241 1050,353 55,5 75,26 62,86 -21,100 50,123 128,135 76,-13 151,-26 227,-38 122,-11 240,-30 364,5 395,110 802,170 1178,351 92,44 221,73 340,-16 -110,-221 -312,-335 -529,-396 -184,-53 -28,-98 -18,-147 110,-5 219,-10 329,-15 302,59 603,131 912,148 223,62 432,-39 649,-62 135,-20 269,-41 403,-60 -30,-153 -65,-305 -13,-460l39 -16c212,-30 424,-42 640,-15 172,22 273,-97 263,-246 -8,-121 -158,-118 -254,-111 -238,17 -457,112 -676,201 -108,20 -217,13 -325,-6 -92,-54 -190,-89 -297,-93 -213,-127 -417,-226 -676,-89 -146,77 -338,77 -488,-6 -131,-73 -275,-89 -402,-147 -258,-116 -545,-215 -626,-541 40,-154 146,-273 218,-410 18,-25 53,-38 51,-76 -45,-81 -57,-183 -150,-234 -112,108 -290,35 -401,149 -91,19 -183,37 -275,55 -195,-42 -379,-4 -561,65 -73,27 -145,47 -215,51 108,-33 197,-133 247,-332 26,-254 -81,-446 -278,-594 -205,-153 -372,-326 -344,-610 -28,-247 -40,-255 -278,-183 -27,8 -56,16 -85,25 -116,59 -222,150 -367,120 -107,3 -214,7 -321,10 -382,-77 -666,70 -769,396 -348,-285 -736,-514 -1116,-753 -245,-172 -500,-327 -759,-474 -14,-27 -48,-49 -115,-64l-21 -12c38,-22 77,-44 117,-65 130,-43 263,-39 396,-35 94,2 189,5 283,-9l-4 30c70,167 147,331 228,493 120,214 323,306 546,366 119,-47 301,2 357,-123 120,-273 322,-503 413,-790l0 -1c60,-118 126,-231 277,-248l18 -7 19 -3c24,-49 111,-21 127,-79l24 -4c61,-40 141,-30 202,-71 71,-40 174,-8 221,-99 174,-175 326,-363 398,-604 57,-72 17,-147 3,-219 -42,-232 -89,-463 -135,-695 42,-123 119,-220 220,-299l49 -4c148,-12 211,93 277,199 92,149 176,311 346,384 344,147 590,3 738,-424 -23,-106 -46,-212 -68,-318 -145,-223 -275,-467 -599,-456 -136,-44 -260,21 -388,45 -90,19 -157,-5 -219,-83 -172,-217 -398,-357 -657,-455 -276,-104 -588,-176 -661,-537l-56 -34c0,-144 -97,-235 -182,-332 -158,-177 -375,-260 -578,-363 -113,-113 -288,-174 -305,-365 64,-85 194,-56 256,-147 140,-76 277,-160 423,-224 353,-156 457,-434 291,-782 -114,-239 -328,-381 -509,-555 -102,-172 -264,-265 -439,-343 -123,-98 -257,-163 -419,-152 -352,-10 -362,-15 -500,310 -98,229 142,226 232,325 30,31 80,44 120,66 45,72 91,144 136,216 -12,150 -82,275 -157,399 -168,131 -326,280 -517,368 -333,-157 -675,-219 -1043,-101 -252,17 -468,-123 -539,-316 -65,-180 -76,-424 15,-628 68,-149 123,-322 328,-344l-8 -12c284,-15 407,-257 588,-419 59,-32 125,-51 103,-148 -18,-75 -71,-95 -126,-119 -171,-74 -204,75 -268,171 -76,17 -153,33 -229,48 -133,-78 -261,-165 -372,-274 2,-47 -19,-62 -47,-62 -20,-42 -15,-87 20,-148 65,-114 171,-172 268,-243 146,-105 282,-215 358,-370 259,141 468,127 605,-239 105,25 213,35 326,15 98,-27 196,-43 295,-53 65,239 67,498 221,709l26 39c108,205 289,259 501,225 144,-23 286,-60 427,-92l48 -10c200,-40 308,105 438,213 218,181 418,393 726,421 -25,114 53,71 105,69 10,29 21,58 32,87 154,491 429,650 801,462 81,-35 116,-107 146,-181 108,-88 146,-265 330,-254 76,40 169,90 167,177 -7,313 187,222 355,191 68,-13 136,-27 203,-41 279,-56 263,-51 169,-309 -98,-269 -226,-541 -115,-842 64,3 129,5 195,7l41 7c147,92 295,184 442,276 69,36 136,72 204,107 191,138 373,295 626,303 410,-7 801,-97 1176,-261 127,-55 250,-123 282,-278 65,-77 130,-155 194,-232 114,-78 217,-189 342,-228 367,-117 523,-411 671,-720 203,-422 120,-877 152,-1319 8,-78 -10,-153 -44,-224 -128,-287 -408,-528 -718,-661 9,-12 19,-24 28,-36 39,-53 112,-80 168,-120 93,-67 284,-98 215,-242 -71,-146 -228,-24 -346,1 -228,48 -420,162 -607,286 -63,2 -124,10 -183,26 -252,72 -437,-61 -618,-207 22,-56 44,-112 66,-169l0 -2c30,-17 60,-33 91,-48 97,-45 191,-95 289,-135 90,-37 33,-113 36,-160 5,-59 -72,-23 -107,-15 -44,11 -92,11 -138,16 13,-23 26,-46 39,-69 175,-178 67,-390 68,-588 0,-182 -43,-398 153,-492 485,-231 628,-630 616,-1124l2 -56c21,-130 -1,-253 -86,-363 -57,-182 -103,-368 -171,-545 -106,-275 -427,-520 -652,-512 -328,8 -512,157 -619,500 -63,72 -54,158 -51,243 -35,322 64,654 -71,967 -3,65 -5,129 -8,192 -17,79 70,165 -16,239 -28,-36 -61,-37 -100,-22 -63,-22 -125,-42 -190,-9 -40,18 -60,-8 -80,-34 -20,-26 -41,-51 -82,-37 -213,72 -237,-93 -274,-231 -33,-118 -55,-239 -82,-359 -7,-46 -12,-92 -23,-136 -54,-241 -219,-427 -337,-632 -25,-42 -256,36 -393,59 -79,-8 -159,-12 -224,47 -410,255 -530,541 -372,933 125,306 346,530 646,670 142,92 205,230 228,391 -15,96 -30,192 -44,288 -36,56 -71,111 -108,167 -30,9 -60,17 -89,26 -92,-40 -171,-99 -242,-171 -264,-267 -579,-450 -941,-552 -116,-120 -313,-155 -362,-346 -33,-18 -30,-69 -65,-86 -26,-119 -52,-239 -77,-358l11 -4c-38,-566 -281,-996 -815,-1234l-13 -18c-25,-37 -50,-74 -97,-85 -124,-89 -125,-237 -121,-357 10,-270 -120,-446 -319,-593 -126,-97 -254,-47 -382,-11 -109,17 -211,12 -317,-27 -176,-65 -313,-192 -471,-285 -344,-206 -892,-104 -1129,199 -96,122 -195,257 -368,289l1 28 -1 -28c-120,22 -242,43 -363,66 -31,5 -78,26 -89,15 -177,-183 -384,-103 -585,-71 -89,15 -165,-14 -240,-57 -261,-149 -424,-364 -480,-665 -10,-54 -22,-107 -37,-158 35,59 70,118 108,175 59,88 160,104 218,37 194,-218 376,-449 452,-739 16,-57 17,-139 -44,-165 -63,-26 -114,39 -151,84 -98,118 -190,241 -312,337 -49,28 -96,57 -142,89 28,-52 75,-100 38,-167 -51,-76 -124,-79 -205,-63 -62,-40 -118,-52 -193,-31 -53,-62 -114,-119 -184,-171 -118,-87 -224,-187 -335,-281l41 -61c29,-77 103,-112 157,-167 77,-32 157,-30 237,-15 62,-10 127,-9 191,-9 139,2 278,4 396,-102 26,-34 21,-64 -9,-93 -81,-243 -282,-234 -481,-228l-1 0c-217,13 -435,25 -653,39 -82,2 -162,3 -243,6 -251,-17 -378,-197 -501,-382 -97,-324 -306,-545 -603,-704 -26,-14 -50,-28 -74,-44 5,-7 9,-15 12,-23 43,-126 74,-300 -47,-347 -81,-31 -143,53 -197,140 -51,-80 -85,-172 -100,-277 -45,-92 -73,-188 -55,-292 -57,-191 25,-359 98,-526 125,-285 216,-569 42,-868 -77,-233 -150,-465 -22,-706 300,-563 208,-1070 -274,-1504 -90,-81 -189,-154 -284,-232 -62,-67 -133,-123 -225,-143 -66,-19 -130,-40 -195,-59 -36,-33 -77,-26 -117,-19 -28,6 -55,11 -80,2 -241,-92 -424,-20 -516,207 -114,283 -33,590 -112,878 -167,335 -333,670 -622,923 -99,46 -202,45 -305,45 -73,0 -147,0 -219,17 -276,62 -508,-105 -585,-378 -44,-156 3,-302 0,-454 63,-347 -48,-685 -58,-1028 54,-75 15,-151 -2,-222 -85,-361 -188,-715 -254,-1077 -49,-263 -145,-483 -347,-660 -78,-68 -116,-153 -113,-265 8,-401 -92,-504 -508,-554 -305,-110 -307,-396 -372,-645 -6,-45 -12,-90 -19,-135 47,-104 30,-196 -55,-274 -22,-131 -123,-223 -170,-342 -40,-115 -59,-241 -119,-344 -270,-467 -510,-648 -893,-401 -112,74 -214,162 -320,243 -410,166 -677,-99 -958,-319 -44,-64 -85,-128 -132,-189 -184,-240 -404,-356 -722,-258 -265,81 -542,118 -814,173 -496,-7 -818,-341 -1170,-623 -215,-197 -524,-307 -606,-633 -61,-232 -52,-468 -38,-704 88,-360 -40,-592 -388,-711 -203,-69 -413,-125 -577,-278 -84,-118 -150,-262 -260,-348 -215,-169 -335,-372 -365,-640 -13,-123 -44,-243 -72,-364 -75,-329 -452,-671 -778,-703 -109,-10 -261,-10 -248,130 28,315 9,656 253,910 457,476 861,989 1132,1597 99,101 36,253 115,360 2,80 -40,157 -7,237 -63,129 -88,278 -211,371 -96,127 -181,272 -379,231 -198,27 -343,-77 -394,-242 -84,-271 -300,-411 -489,-581 -67,-98 -134,-195 -201,-292 -65,-251 -172,-482 -328,-690 -168,-308 -323,-625 -605,-852 -48,-37 -103,-71 -115,-140 -42,-5 -58,8 -34,48 103,351 324,659 369,1031l36 24c-27,90 -119,55 -174,92 -353,-58 -666,-241 -1012,-324 -54,-37 -108,-74 -162,-110 -175,-167 -157,-409 -244,-611 -221,-514 -595,-942 -817,-1455 -13,-31 -52,-52 -80,-77 -295,-438 -1012,-670 -1612,-524 -392,97 -714,535 -781,1060 -13,266 81,505 220,723 286,449 591,889 771,1397 106,435 329,808 617,1147 67,78 164,139 144,265l1 49c-170,-17 -212,-182 -316,-276 -89,-80 -159,-182 -352,-163 229,240 485,424 499,753 -16,152 103,356 -157,417 -47,9 -94,19 -142,28 -60,10 -120,20 -180,29 -207,-64 -410,-20 -612,37l-42 10c-42,-3 -86,6 -116,-35 -273,-55 -546,-112 -821,-168 -93,-89 -187,-62 -282,-35 -49,15 -99,28 -148,26 -402,-154 -827,-276 -1006,-736 -46,-27 -104,-65 -142,-14 -37,53 -3,118 26,172 27,74 41,155 102,214 25,50 48,106 110,125 121,89 239,180 384,237 147,60 281,154 223,355 58,66 63,153 89,232 61,192 33,394 79,587 -65,103 -122,214 -201,307 -40,48 -46,59 1,99 329,265 440,682 697,1002 156,194 290,430 257,709l0 1c9,62 18,123 26,185 -72,116 35,156 93,218 70,75 70,102 16,105 -191,13 -144,139 -137,248 -18,167 17,343 -78,498 -230,209 -542,166 -810,260 -71,21 -135,-4 -200,-30 -61,-24 -123,-48 -191,-32 -32,-8 -66,-18 -100,-27 -271,-74 -470,-255 -662,-446 -138,-138 -279,-278 -503,-173 -234,14 -463,152 -702,40 -264,-125 -539,-156 -826,-122 -257,-81 -461,-257 -694,-384 -55,-62 -120,-119 -146,-203 -101,-349 -57,-714 -110,-1069 32,-80 -41,-158 -6,-239 -40,-123 -70,-253 -125,-369 -66,-143 -172,-271 -340,-280 -176,-10 -320,58 -416,233 -110,200 -157,409 -156,632 26,133 17,260 -73,369 -272,324 -213,577 178,755 348,158 417,350 254,695 -202,361 -345,738 -335,1160 -180,327 -186,722 -406,1033 -50,120 -147,84 -232,60 -131,-35 -256,-31 -388,26 121,188 295,282 506,317 47,49 99,89 167,101 130,164 105,345 33,515 -88,211 -137,429 -162,654 25,123 -32,249 15,372 204,352 288,773 606,1067 -60,-14 -111,-32 -163,-48 -450,-134 -803,-383 -971,-841 -31,-86 -89,-116 -165,-136 -65,-49 -129,-97 -191,-146 -45,-39 -93,-76 -135,-118 -203,-205 -512,-313 -580,-641 35,-39 27,-84 21,-130 -64,-457 -291,-759 -777,-812 -58,-68 -132,-76 -210,-77 18,97 35,177 51,258 1,45 18,57 56,29 29,-22 57,-44 86,-67l43 0c14,45 28,91 43,136 6,60 12,120 19,180 -167,245 -339,95 -511,7 -649,-449 -1254,-962 -1929,-1374 -104,-64 -201,-143 -329,-151 -86,-35 -170,-70 -256,-106 -52,-40 -101,-88 -171,-96 -68,-33 -135,-68 -204,-102 -163,-113 -333,-214 -531,-254 -41,-9 -164,-49 -62,76 17,124 -63,98 -135,86 -30,9 -60,17 -90,25 -336,-53 -609,-250 -907,-391 -513,-244 -1028,-493 -1584,-623 -216,-50 -421,-89 -566,-271 -305,-414 -381,-968 -800,-1316 -41,-34 -45,-111 -68,-166 -4,-148 -104,-251 -173,-370 -138,-234 -311,-466 -289,-751 14,-174 -28,-299 -146,-405 -157,-140 -240,-312 -272,-518 -13,-80 -10,-173 -92,-226 -102,-578 -403,-1044 -811,-1451 -104,-115 -210,-228 -349,-301 -162,-135 -333,-255 -532,-328 -222,-144 -471,-245 -669,-425 -63,-97 -162,-144 -261,-193 -362,-36 -670,125 -965,295 -166,96 -136,265 13,395 108,94 244,125 365,190 232,212 261,319 145,522 -34,59 -62,121 -94,182 -143,156 -116,354 -131,541 -62,265 -60,517 148,727 309,263 588,587 1057,536 389,51 682,-107 906,-414 39,-46 87,-87 116,-138 98,-178 200,-190 353,-47 107,97 169,229 276,323 151,242 280,495 295,787 18,345 67,690 173,1015 88,272 139,543 159,824l0 -1c37,207 -5,432 133,614 301,398 417,869 544,1337 -4,190 -4,380 -13,569 -21,486 -42,973 38,1456 25,157 28,302 -43,446 -46,74 -193,44 -182,175 94,99 138,228 205,343l20 13c-6,69 -33,105 -72,124l-17 1c-52,4 -105,20 -156,-5 -66,-29 -109,-94 -181,-114 24,-100 -43,-160 -103,-224 -57,-36 -108,-85 -184,-43 -115,194 -1,378 26,566 -3,78 -7,155 -10,234 -103,38 -208,30 -313,23 -83,-6 -167,-12 -250,6 -110,22 -181,-35 -264,-98 -264,-200 -436,-480 -657,-717 -48,-26 -93,-55 -141,-75 -669,-285 -1392,-467 -1929,-1005l-42 -16 -54 -35c-82,-68 -160,-145 -250,-201 -269,-170 -396,-489 -687,-640 -584,-301 -1114,-678 -1563,-1161 -151,-182 -334,-345 -392,-589 -7,-71 -37,-128 -99,-165 -218,-200 -407,-432 -665,-586l-23 -33c-273,-278 -546,-557 -818,-836 -258,-242 -555,-305 -891,-194 -262,369 -193,1069 136,1388 451,312 895,633 1367,914 98,89 196,178 294,268 197,325 356,669 498,1022 126,316 282,619 542,852 5,75 69,98 119,130 503,313 1059,506 1609,711 174,74 365,109 518,229 181,178 310,418 580,492 149,51 299,103 448,155 38,38 72,80 114,114 127,106 204,248 170,403 -35,163 -213,107 -328,145 -382,-141 -804,-206 -1130,-461 -330,-260 -728,-280 -1101,-391 -71,-21 -203,-11 -234,35 -48,70 0,178 49,257 24,39 55,76 92,103 204,155 427,273 680,325 468,97 943,172 1335,479l-1 1c111,-13 198,60 299,81 332,122 440,395 481,713 45,283 -58,554 -370,547 -191,-89 -381,-178 -571,-266 -159,-114 -341,-155 -529,-187 -260,-43 -331,-144 -308,-402 15,-58 38,-116 45,-176 8,-68 14,-156 -63,-179 -79,-22 -170,-6 -212,88 -19,40 -24,86 -34,129 -25,153 -102,247 -267,248 -90,0 -132,65 -172,129 8,83 69,122 135,143 419,138 837,272 1258,403 41,13 90,-3 135,-6 223,-11 382,134 562,227 33,147 -84,203 -174,263 -287,196 -612,253 -953,243 -39,-51 -95,-67 -156,-68 -297,-234 -654,-191 -1017,124 -129,119 -201,289 -347,394 -66,82 -183,76 -255,146 151,129 312,243 492,328 92,73 186,145 285,208 -67,82 -103,182 -88,275 37,210 266,408 452,386 76,-9 152,-76 207,-165 96,144 190,290 336,390 60,39 1,92 -15,142 -69,207 -104,414 44,606 107,150 137,287 -65,385 -48,10 -78,42 -110,78 -299,342 -600,682 -902,1024 -267,169 -388,412 -364,728 22,266 50,288 306,237 97,-21 196,-37 294,-56 44,-12 88,-24 134,-38 175,34 341,-14 509,-55 104,49 246,93 265,201 49,276 193,517 262,783 -54,102 -114,199 -227,246 1,60 16,112 52,151 -85,44 -156,138 -205,300zm-1732 3913c-18,0 -32,-4 -42,-10l-1 0c-1,0 -1,-1 -2,-1l-1 -1 -2 -1c0,0 -1,-1 -2,-1l0 -1c-40,-31 -21,-108 -31,-163 10,-26 10,-60 13,-93l0 0 0 -2 0 -2 0 -3 0 -1 1 -3 0 0c4,-50 17,-94 82,-94 4,0 7,0 11,0l0 0 0 0 0 0 1 0 0 0c1,0 3,0 4,1l1 0 0 0 0 0 0 0c2,0 4,0 7,0 48,6 86,25 112,53l0 0c1,2 2,3 3,4l0 0c1,1 2,2 3,3l0 0c1,1 1,3 2,4 31,41 38,100 13,171 -3,18 -8,34 -15,48l0 0 -1 2 0 0 -1 2 0 0 -1 2 0 0 -1 2 0 0 -1 2 0 0c-13,21 -31,39 -57,52l-41 22 0 0 0 0 -1 0c-21,5 -39,8 -53,8l0 0zm8657 17296l0 0 2 -2 0 0 0 0 -1 2 -1 1c51,-5 93,-18 129,-36 -56,-35 -120,-59 -197,-69 23,35 45,70 68,104zm400 -40607l0 0 0 0 -22 -6 -2 -1 -2 0 -2 -1 -2 0 -2 -1 -2 -1 -12 -3 -2 0 -2 -1 -1 -1 -2 0 -2 -1 -1 0 -1 0 -2 -1 -2 0 -2 -1c-375,-107 -748,-214 -1072,-446 -103,-62 -237,-66 -319,-169l-1 0c-133,-82 -274,-127 -434,-111 -364,36 -662,-126 -919,-351 -155,-135 -320,-231 -506,-300 -232,10 -391,-117 -525,-283 -156,-195 -353,-328 -572,-445 -149,-79 -367,-141 -316,-393 39,-193 160,-258 284,-117 232,263 624,217 842,483 47,9 79,39 104,78 120,124 317,108 434,238 397,104 741,311 1074,543 132,90 271,169 406,254 89,45 178,89 266,134 72,11 126,47 164,109 58,51 117,103 175,154 267,242 615,356 901,576l0 0c26,20 52,42 77,64l0 0zm41859 20851c-55,-120 -238,-265 -321,-229 -61,27 -85,71 -93,121 -154,-114 -249,-289 -381,-428 -38,-241 -76,-484 -114,-726 55,-136 56,-294 171,-405 70,-57 140,-115 211,-171 114,-91 268,-129 352,-256 31,-48 64,-115 32,-175 -38,-75 -109,-38 -165,-28 -138,28 -218,136 -307,230 -183,33 -366,63 -549,95l-47 10 0 0 0 0c-134,-43 -219,-93 -266,-162 104,-140 207,-280 310,-419 517,277 571,266 931,-191l68 -73c38,-14 75,-24 118,-18 91,6 117,85 163,145 29,38 43,100 104,94l-14 37c35,201 7,404 25,606 14,31 29,55 44,73 -49,335 18,652 161,958 92,212 275,350 426,510 29,31 56,61 82,89 -149,106 -315,184 -487,251 -31,5 -62,10 -93,15 -75,0 -147,13 -220,26 -47,8 -94,16 -141,21zm-79475 -35195c339,250 639,549 971,804 312,241 586,545 966,695 68,26 146,96 206,21 55,-68 -9,-154 -48,-210 -179,-261 -395,-487 -642,-690 -496,-404 -1074,-696 -1554,-1123 -80,-72 -151,-155 -240,-215 -136,-89 -253,-242 -452,-169 -24,83 3,156 38,228 160,324 504,438 755,659zm82078 44306c-365,-170 -732,49 -731,435 -18,82 42,160 14,243 44,133 28,285 103,410l39 60c112,201 308,300 506,378 281,111 458,42 631,-212 74,-108 139,-222 209,-333 4,-93 -17,-183 -53,-268 -100,-378 -419,-537 -718,-713zm2209 -2107l10 -6 6 10 -16 -4zm300 234l-1 -4 4 3 -3 1zm2357 -2188c-65,-93 -143,-180 -194,-281 -119,-233 -264,-440 -497,-573 -200,-156 -402,-352 -663,-323 -271,29 -530,-13 -794,-18 -195,-4 -417,-12 -558,184 -78,105 -156,211 -234,316 -206,281 -409,560 -460,921 -43,309 -110,615 -166,922 15,60 28,120 43,180 -48,113 34,176 103,226 137,100 249,223 362,345 63,18 61,83 88,127l12 -6c4,31 8,62 12,93 99,128 262,208 277,397 13,175 118,270 293,285 155,19 311,9 466,-1 102,-7 204,-14 305,-12 523,8 951,-192 1294,-581 620,-478 779,-1277 503,-1902 -32,-120 -99,-218 -192,-299zm-52994 -926c-97,12 -173,21 -249,30 -31,-20 -61,-54 -102,-19 -60,49 -128,91 -181,147 4,-108 72,-158 258,-295 67,-50 142,-96 139,-197l-1 -2c57,31 111,23 162,-15l0 -30 4 5 16 11 5 45c110,210 243,404 387,591l14 3c-38,44 -78,83 -140,91 -265,33 -528,115 -799,61l0 -1c32,-1 65,-10 93,-20 191,-68 307,-209 394,-405zm48192 476c-172,15 -338,253 -301,410 34,141 284,313 414,271 187,-59 242,-199 195,-424 -36,-126 -99,-277 -308,-257zm-871 2145c77,160 164,347 354,352 177,3 257,-179 307,-333 195,-613 204,-979 -420,-1314 -73,-39 -163,-62 -162,-170 28,-381 -283,-745 -682,-836 -226,-51 -337,30 -437,223 -153,296 -156,589 -50,894 10,106 48,219 27,319 -59,267 44,483 178,694 67,103 138,210 292,174 151,-34 147,-159 161,-272 51,-82 43,-176 35,-263 -14,-139 25,-251 130,-341l40 -39c44,4 88,13 130,27l4 27c163,249 59,526 78,791l15 67zm-50982 -23326c41,-72 -29,-101 -119,-186 16,104 -35,161 21,207l98 -21zm-21097 42980c162,11 257,17 347,-89 -124,-24 -212,-9 -347,89zm75840 -2307c-51,-7 -63,41 -62,77 1,54 7,117 82,115 51,-3 81,-39 90,-94 -11,-59 -54,-90 -110,-98zm-60154 17697c109,-18 246,10 272,-159 -170,19 -170,19 -272,159zm-3496 -70072c-80,-74 -81,-215 -216,-251 -18,107 -59,210 40,297 66,13 131,17 176,-46zm4680 29815c73,-135 -4,-213 -105,-284 -322,-226 -662,-300 -1048,-123 154,290 407,443 705,540 170,24 343,57 448,-133zm-1744 -16026c-196,-163 -345,-273 -592,-276 177,161 346,228 592,276zm-2499 22380c-37,-63 -48,-157 -164,-149 -36,39 -98,82 -80,147 21,80 79,132 174,106 54,-15 114,-29 70,-104zm16303 -37408c108,-23 100,-125 92,-206 -7,-95 -84,-61 -117,-60 -110,12 -149,60 -114,143 25,60 57,141 139,123zm26081 3855c113,-17 97,-94 80,-172 -14,-64 -36,-119 -119,-98 -91,23 -114,86 -101,173 13,84 54,121 140,97zm-36788 12170c-28,-28 -128,-12 -174,17 -158,101 20,180 28,270 43,-10 85,-21 129,-31 16,-86 101,-177 17,-256zm-12367 -7c130,225 283,147 448,93 -109,-226 -269,-102 -448,-93zm50023 46873c-58,100 -14,193 26,282 17,39 48,73 82,124 29,-49 67,-86 72,-125 13,-109 -14,-213 -102,-290 -27,-23 -60,-20 -78,9zm-40221 -46475c78,0 104,-51 88,-126 -23,-91 -67,-155 -176,-133 -60,11 -127,18 -112,108 21,110 102,149 200,151zm-2647 4381c22,119 123,135 211,130 57,-2 103,-72 80,-138 -35,-100 -126,-127 -224,-139 -71,25 -79,82 -67,147zm5067 3521c87,-16 141,-81 132,-158 -10,-81 -69,-164 -168,-150 -102,14 -84,112 -81,182 2,69 13,144 117,126zm-11426 39008c226,-15 411,-44 531,-263 -224,1 -377,100 -531,263zm20560 -61366c109,-4 80,-87 66,-168 -21,-96 -77,-184 -198,-166 -91,13 -49,97 -39,153 18,96 53,187 171,181zm-21523 54987c-203,103 -395,233 -629,271 -95,15 -186,63 -211,156 -23,91 70,153 130,200 74,57 161,10 230,-45 183,-153 365,-306 548,-459 175,-73 304,-200 476,-362 -252,24 -402,122 -544,239zm73039 -29477c-69,-40 -139,-65 -214,-74 90,-19 154,17 214,74zm364 105c-112,-191 -267,-333 -469,-423 -425,-157 -878,158 -956,664 -18,230 18,448 177,626 346,385 1058,502 1236,-4 111,-116 129,-268 154,-418 6,-93 -15,-182 -51,-267 -32,-59 -20,-140 -91,-178zm-59987 33599c-84,21 -97,113 -59,169 54,76 31,225 182,223 104,-54 108,-144 87,-237 -25,-108 -91,-184 -210,-155zm-22153 -29223c-130,2 -127,128 -122,210 6,107 93,146 200,137 112,-10 168,-67 172,-198 -59,-72 -140,-151 -250,-149zm17232 758c-41,-93 -136,-32 -207,-28 -90,14 -180,30 -209,138 55,79 -54,224 69,253 110,28 177,-96 257,-167 62,-55 120,-124 90,-196zm-18158 -24195c98,-29 130,-124 104,-226 -33,-128 -132,-176 -258,-201 -76,69 -93,158 -59,245 37,94 72,224 213,182zm2880 48108c-53,71 -107,157 -39,231 70,77 154,18 224,-33 108,-79 171,-189 256,-367 -180,82 -338,32 -441,169zm25546 -38977c-27,-134 -65,-298 -202,-273 -121,23 -120,203 -113,319 8,140 121,122 229,108 122,-16 140,-68 86,-154zm-9363 15291c105,237 283,270 489,290 -33,29 -65,61 -96,93 -640,452 -833,1243 -585,1879 27,122 90,222 179,308 61,95 135,185 182,288 109,238 244,452 472,595 192,164 386,368 647,350 273,-18 530,36 793,53 195,12 417,30 566,-161 82,-101 165,-203 248,-305 218,-272 433,-541 499,-900 56,-307 136,-609 205,-914 -12,-61 -23,-121 -35,-182 52,-111 -26,-177 -94,-230 -132,-105 -239,-233 -346,-360 -62,-21 -58,-85 -82,-131l-13 6c-2,-32 -5,-63 -7,-94 -94,-132 -253,-219 -260,-409 -6,-175 -107,-274 -281,-297 -154,-26 -309,-22 -465,-18 -102,2 -204,4 -306,-2 -426,-25 -794,91 -1111,338 -185,-143 -364,-226 -599,-197zm1033 -37347c31,29 76,70 120,35 42,-34 23,-90 -1,-126 -84,-128 -173,-252 -262,-376 -27,-39 -66,-63 -123,-53 -90,41 -53,118 -26,173 66,140 182,243 292,347zm-3506 42582c-129,37 -228,-68 -348,-71 -115,-26 -230,-51 -346,-77l0 1c-292,-89 -579,-211 -900,-116 -63,18 -147,-32 -220,-51 -42,-46 -100,-41 -153,-54l-69 1c-368,-128 -755,-68 -1132,-105 -104,-11 -222,34 -238,134 -18,114 117,112 195,151 78,40 158,27 237,14 73,-12 146,-23 215,7 268,118 551,129 834,130 377,0 700,220 1069,244 85,29 170,60 256,90 214,-28 425,-96 646,-77 224,3 448,6 718,10 -245,-234 -509,-215 -764,-231zm11106 -41767c136,10 64,-119 64,-190 -30,-160 -97,-320 -252,-351 -99,-20 -75,124 -55,202 41,142 62,324 243,339zm-1092 38945c-136,-82 -283,-118 -428,-162 -21,1 -43,-1 -66,-3 -86,-7 -172,-13 -210,107 183,218 375,236 704,58zm6602 32398c-25,31 -51,59 -72,90 -51,74 -49,144 28,197 74,50 131,3 177,-48 33,-39 75,-79 68,-141 79,-233 268,-435 238,-773 -187,252 -260,500 -439,675zm-24316 -52116c33,157 181,141 296,138 107,-4 131,-89 105,-211 -51,-113 -161,-219 -301,-196 -106,17 -121,170 -100,269zm2905 39894c80,60 220,4 264,136 140,-152 355,-241 417,-472 -283,22 -499,143 -681,336zm-9250 -13002c-193,81 -235,450 -85,592 49,47 90,68 122,-2 64,-139 128,-278 135,-431 -20,-100 -47,-210 -172,-159zm1573 -46491c110,-38 162,-164 127,-242 -62,-136 -177,-262 -347,-261 -123,1 -136,103 -113,205 28,143 231,333 333,298zm13400 68377c-100,33 -138,101 -98,197 33,75 110,153 178,114 190,-109 445,-143 550,-438 -158,32 -283,57 -408,82 -79,-9 -153,8 -222,45zm9187 -52049c-162,-275 -382,-430 -560,-621 -49,-52 -133,-25 -191,19 -35,27 -26,73 1,103 200,211 397,428 750,499zm58825 16591l-38 21 15 -12 23 -9 2 0 46 -33 3 -2 -49 34 -2 1zm-721 174c28,0 57,0 85,0l-45 12 -40 -12zm-8 -6l1 4 -6 1 5 -5zm747 -2004c-147,-128 -300,-237 -496,-270 -299,-99 -566,-9 -824,138 -79,68 -190,122 -230,207 -360,786 -229,1593 715,2003 99,41 204,125 300,116 525,-39 922,-302 1135,-786 154,-348 134,-703 -124,-1016 -159,-131 -322,-256 -476,-392zm-47022 -19560c44,-2 56,-21 36,-60 -355,-255 -705,-520 -1139,-719 115,249 778,700 1103,779zm-20779 14061c259,146 1224,408 1483,403 -236,-208 -1160,-459 -1483,-403zm18053 -19173c89,-52 63,-130 7,-196 -170,-197 -217,-418 -134,-665 -1,-94 -3,-188 -60,-268 -129,-59 -196,-34 -170,124 27,151 85,309 65,454 -26,188 16,327 144,453 44,44 52,154 148,98zm-25111 7767l-32 47c-23,-18 -45,-36 -73,-58 38,-2 72,4 105,11zm-1819 -1002l-6 -1 7 0 -1 1zm-2120 -460c70,104 134,228 274,266 236,182 467,358 790,371 143,5 290,73 417,167 170,126 354,232 533,346 375,292 800,476 1259,584l0 -1 1 1c191,70 387,126 593,127 225,66 450,132 675,198 102,31 206,37 263,-67 53,-94 -38,-154 -92,-213 -153,-167 -354,-259 -558,-348 -161,-92 -304,-217 -483,-279 -72,-44 -143,-89 -214,-134 -370,-227 -707,-508 -1102,-699 -439,-132 -907,-158 -1331,-352 -174,-141 -355,-270 -584,-309 -133,-79 -273,-79 -382,26 -82,79 -133,208 -59,316zm8100 -4773c44,26 89,37 126,3l14 -50c-101,-293 -282,-488 -501,-648 -59,-43 -139,-27 -192,23 -53,49 4,93 28,140 122,229 305,399 525,532zm4159 -10873c59,19 121,34 164,-33 47,-74 -17,-115 -53,-158 -140,-167 -325,-278 -507,-391 -48,-29 -100,-38 -154,-23 -93,17 -128,72 -64,143 175,192 357,379 614,462zm35469 57428c-144,32 -193,142 -182,290 5,70 85,160 167,210 -1,5 -1,10 -1,16 -8,127 -52,151 -177,111 -238,-76 -288,-28 -303,239 24,157 207,173 299,322 -138,-67 -245,-106 -356,-133 -34,-2 -64,3 -93,19l-3 4c-154,-214 -249,-476 -492,-621l-18 3 1 0c-12,-72 -24,-144 -35,-216 42,-66 17,-136 5,-202 -22,-125 25,-192 149,-207 105,-23 303,8 290,-87 -22,-168 34,-83 104,-78 81,5 164,-18 247,-29l29 -13 -20 40c199,57 334,173 389,332zm-34355 -18860c85,-7 13,-60 6,-96 -7,-47 19,-108 -72,-77 -75,24 -154,24 -226,-8 -199,-88 -351,-27 -485,130 -64,75 -145,133 -245,222 73,20 115,45 157,43 301,-13 563,-188 865,-214zm18559 -34865c110,28 121,-18 77,-104 -102,-161 -189,-336 -312,-479 -90,-105 -204,-216 -373,-188 -46,7 -102,26 -90,82 25,140 98,259 209,345 159,120 326,230 489,344zm-23117 50622c-122,40 -252,-30 -372,29 -191,73 -368,165 -541,278 -227,149 -427,344 -688,443 -437,69 -798,244 -965,695 -44,120 -73,230 37,313 110,83 231,99 359,7 223,-158 453,-306 680,-457l41 -28c634,-35 1109,-417 1606,-746 151,-72 284,-172 408,-285 226,-139 414,-325 617,-493 7,-44 -13,-57 -53,-45 -396,19 -762,154 -1129,289zm16433 1851l0 1 -3 31c15,32 39,49 69,61 -36,-1 -71,-38 -107,-39l41 -54zm1521 -37004c383,-21 632,183 876,422 122,-59 111,-126 9,-197 -137,-109 -270,-224 -412,-327 -255,-183 -504,-389 -869,-255 106,162 189,368 396,357zm-15135 33786c-309,50 -631,63 -915,221 57,80 35,160 0,240 36,78 -86,104 -61,194 136,-27 276,-37 403,-86 228,-88 462,-178 609,-394 48,-69 100,-197 -36,-175zm-1688 -30837c-205,-123 -401,-269 -618,-362 -360,-154 -672,-406 -1059,-500 -50,-39 -103,-41 -120,25 -16,68 4,134 99,131 384,145 718,374 1062,592 240,153 495,294 816,317 -44,-109 -110,-160 -180,-203zm61520 35106c-172,-51 -242,78 -330,189 -74,92 -60,182 7,244 157,151 342,261 573,246 149,-10 240,-64 173,-241 -72,-209 -199,-371 -423,-438zm-30102 -49108c95,-4 123,-156 139,-237 70,-350 135,-499 -304,-575 -89,-16 -134,-60 -183,-119 -32,104 -153,72 -212,138 97,199 191,399 295,594 55,104 157,203 265,199zm-22368 985c29,47 48,101 106,124 120,195 248,385 414,546 27,26 56,60 98,39 47,-22 30,-68 20,-101 -28,-87 -61,-173 -96,-257 -161,-393 -455,-693 -709,-1018 -54,-68 -156,-121 -224,-70 -74,54 12,132 40,199 83,203 259,343 351,538zm-10912 10307c499,307 1033,455 1625,386 203,-26 156,-96 72,-195 -43,-53 -99,-97 -156,-135 -457,-321 -946,-569 -1511,-637 -34,-16 -69,-32 -104,-45 -140,-55 -247,-37 -319,118 -69,152 -46,269 91,356 94,60 171,160 302,152zm61930 34678c-155,25 -300,293 -266,487 32,172 276,361 419,324 200,-54 351,-268 314,-444 -45,-209 -283,-397 -467,-367zm-64836 -35062c211,139 426,273 640,410l47 25c15,103 -2,202 -29,302 49,129 170,170 278,229l0 1c119,148 231,302 361,441 91,97 211,114 276,-34 124,-283 56,-419 -239,-520 -65,-23 -128,-48 -193,-71 -193,-102 -99,-346 -234,-477 -100,-144 -108,-316 -148,-480 -48,-193 -291,-309 -423,-182 -89,85 -185,95 -284,125 -56,17 -143,-2 -158,67 -16,71 51,126 106,164zm8041 7340c-134,-134 -246,-301 -436,-369 -102,-35 -220,-126 -309,13 -81,126 -50,249 61,350 300,272 609,531 980,706 99,18 194,110 304,20 -61,-98 -116,-199 -210,-269 -129,-151 -249,-311 -390,-451zm71525 8451c-191,34 -292,220 -250,460 50,285 194,396 454,350 245,-43 335,-186 287,-449 -48,-261 -245,-407 -491,-361zm-69495 -9312c-83,52 -71,145 -59,229 58,454 437,642 752,870 88,65 177,1 187,-124 70,152 181,271 357,331 170,58 245,-67 338,-174 78,-89 68,-179 4,-245 -150,-157 -330,-275 -563,-270 -131,3 -219,43 -197,174 -161,-249 -344,-514 -588,-732 -63,-57 -142,-115 -231,-59zm-4667 21327c-250,152 -505,281 -800,334 -155,28 -237,188 -355,284 -63,53 -20,136 51,130 177,-17 352,10 488,14 102,-17 158,-33 200,-87 146,-191 337,-313 577,-352 118,-21 204,-106 146,-206 -54,-89 -160,-206 -307,-117zm-538 -12822c410,48 409,47 506,455 79,339 319,499 685,447 -255,-537 -583,-985 -1163,-1185 -144,-49 -340,-92 -389,47 -50,136 156,167 274,215 27,11 57,17 87,21zm172 -16030l0 0 -1 -2 6 5 -5 -3zm-866 -909c71,124 80,280 191,384 113,297 265,569 494,793 161,358 446,608 736,854 136,141 248,324 491,276 1,-125 -25,-244 -71,-358 -35,-73 -16,-170 -100,-221 -64,-292 -208,-533 -450,-714 -146,-109 -286,-224 -430,-337 -113,-167 -226,-333 -339,-500 -248,-290 -499,-578 -664,-928 -25,-53 -76,-97 -124,-134 -111,-89 -230,-179 -351,-12 -114,158 -90,302 75,408 207,135 415,268 542,489zm29466 2199c26,-51 -2,-69 -20,-92 -350,-470 -941,-631 -1334,-1045 -94,-100 -216,-168 -350,-207 -114,-4 -245,-41 -255,142 307,213 611,428 900,668 310,260 641,493 1059,534zm49310 27662c-272,-9 -357,84 -372,404 -7,78 10,152 44,223 38,67 66,140 115,198 112,132 409,203 485,118 108,-122 187,-259 185,-432 -1,-216 -259,-506 -457,-511zm-69679 -11490c37,46 80,89 129,129 192,158 348,332 319,600 -45,-10 -91,-16 -137,-2l-14 -25c-90,-24 -182,-41 -276,-45l-40 10c-285,-215 -627,-312 -947,-456l-5 3 7 -19c-76,-131 -194,-199 -337,-228 4,-28 7,-56 10,-84l3 2 68 7c85,-11 173,-12 245,-59l40 7c98,28 197,41 296,14l17 -13c32,71 103,85 169,93 152,18 303,42 453,66zm660 962c17,-4 35,-8 55,-14 29,-6 58,-13 86,-20 119,-55 228,-142 372,-105 107,2 214,3 322,4 381,94 671,-43 787,-370 -4,-68 -9,-137 -11,-206 -3,-75 -18,-148 -44,-217 25,-1 51,-3 77,-5 291,26 409,228 481,476 55,77 80,162 82,257 -29,91 -64,180 -108,263 -19,-7 -38,-13 -57,-19 -121,42 -301,-15 -362,107 -55,114 -125,218 -195,323 -77,-1 -153,12 -226,33 -318,92 -630,98 -936,-47l-69 7c-50,-91 -158,-120 -224,-196 -52,-57 -56,-123 -37,-194 6,-26 10,-51 7,-77zm770 -1442c-6,2 -13,3 -19,4 -310,66 -552,9 -815,-176 -56,-39 -113,-73 -168,-99 18,-11 36,-24 52,-43l18 -19 -13 46c134,70 283,52 426,68l69 -13c161,60 323,126 450,232zm41437 1759l-20 -66 12 -9 8 75zm5107 3360l-8 -2 6 -6 2 8zm-47003 -11865l-3 -6 15 -2 -12 8zm-333 -11685l-19 -11 22 17 2 20 -5 -26zm443 -2355l-6 3 -37 -5 43 2zm-226 694l1 4c-9,83 60,122 99,176l12 15 -12 16 -8 -2 -11 5c-16,-28 -39,-47 -67,-61l0 -7 -33 -52 -11 -2c-3,-36 10,-65 30,-92zm2171 1021l3 3 -2 10 -1 -13zm-2071 170l-1 -8c132,122 187,126 280,19l23 14 -2 3c-119,247 -155,262 -334,99 12,-42 34,-82 34,-127zm14768 3467l20 12 -21 28 1 -40zm2021 1618l-18 34c206,211 375,438 433,741 20,99 102,195 238,174 128,162 311,259 466,389l12 1c-4,137 -116,141 -213,162 -235,47 -405,164 -449,416l6 25c-31,44 -61,88 -96,129 -157,182 -479,187 -619,11 -188,-471 -174,-977 -262,-1466 -34,-190 -48,-384 -100,-569 -4,-35 -10,-68 -13,-103 -1,-38 -29,-64 -61,-87l-6 -17c-22,-64 -19,-139 -67,-192l54 -71c134,301 448,305 695,423zm2121 290l1 1 -1 0 0 -1zm2151 -413c31,-63 -6,-139 34,-201 34,4 55,28 82,42 190,103 396,55 559,-21 104,-49 -7,-187 -13,-302 135,157 269,313 403,470 61,63 71,122 8,198 -82,100 -149,214 -231,315 -202,249 -299,267 -590,123l-3 -1c36,-91 -26,-168 -46,-251l-28 -59c81,-161 19,-262 -201,-294l-16 -30 42 11zm477 -7859l3 -2 1 7 -4 -5zm3605 1328l-4 -10 11 3 -7 7zm8840 3584l-9 -8 36 -5 -27 13zm5542 4360l-2 1 -3 0 5 -1zm2834 6583l-1 -1 1 0 0 1zm5522 1959l-1 7 -4 -3 5 -4zm4313 2406l-2 4 -7 -1 4 0 5 -3zm2588 3227l-1 1 1 -2 0 1zm-5451 2347l-9 -7 6 -13 3 20zm-7906 -4324l0 -3 0 3zm-39448 1378l-1 0 7 8 -5 3 -1 -11zm-157 -346l11 28 0 2 -19 -26 8 -4zm-3355 -3449l1 3 -12 7 11 -10zm2197 -5796l-1 -14 4 0 -3 14zm1585 -841l-1 0 2 -1 -1 1zm1773 -840l33 1 1 1 3 -1 10 0 -1 -4 12 -6 -11 10 -45 9 -2 -10zm17502 -4135l0 -1 0 1zm1488 -4374l7 6 -5 0 -2 -6zm10751 1872l-2 -3 5 -1 -3 4zm6899 7120l-18 -42 18 42zm4415 18173l1 10 -13 -8 12 -2zm1373 -98c97,340 95,344 -185,569 8,-36 16,-71 25,-107 87,-113 72,-180 -77,-222 -134,-38 -260,-32 -373,36 -57,34 -115,60 -175,80 -43,-55 -87,-109 -131,-162l-14 -2c36,-46 74,-87 136,-98 264,-43 522,-137 794,-94zm-27151 -19906c38,204 234,274 324,393 -446,217 -669,-146 -937,-410 -38,-38 -68,-88 -110,-118 -88,-62 -90,-126 -52,-193l11 4c277,56 500,238 764,324zm700 -1304l-6 -59 6 59zm20636 16558l7 -15 9 19 -16 -4zm4728 4956l-33 -25c9,-15 16,-28 26,6l7 19zm-46123 -12725l0 3 -7 2 0 -3 7 -2zm19432 -7969l5 2 -5 -2zm1363 543l1 -18c212,22 385,180 594,186 386,12 709,165 1008,388l42 -3 -2 4c9,85 66,177 61,262l-5 36c-9,27 -24,55 -57,81 -141,113 -278,0 -402,-63 -178,-88 -346,-196 -519,-296 -144,-130 -330,-146 -509,-184 -69,-174 -282,-72 -393,-198 107,-33 168,-95 181,-195zm19288 3668l0 0 0 0 0 0zm-35680 -1203l8 -13 5 6 -13 7zm18062 -1408l-11 3 14 -17 -3 14zm19093 15108l-1 0 2 -1 -1 1zm-37722 -12966l0 -2 2 -2 -2 4zm23775 -8769l5 -1 -4 3 -1 -2zm953 4498l-1 -11 9 2 -8 9zm5783 -2017l14 -8 3 4 -17 4zm5321 14606l3 -1 4 5 -7 -4zm912 1203l-2 -7 5 6 -3 1zm-37524 -8941l-3 6 -1 -4 4 -2zm25330 -4559l9 13 -4 14 -5 -27zm10345 5521l4 -7 3 11 -7 -4zm-21053 -1062l-2 0 2 -1 0 1zm3399 2248c17,23 44,36 72,35 163,-10 235,71 252,223l14 32c-74,17 -142,-1 -209,-41 -97,-58 -184,-138 -295,-173l-31 4 -65 -65c53,-32 109,-26 164,-19 33,4 66,8 98,4zm8226 -7395l3 5 -13 8 10 -13zm-18482 8753l4 -7 -1 8 -3 -1zm9670 -1381l1 3 -2 -2 1 -1zm-163 -579l-8 -14 8 -9 0 23zm420 673l0 0 0 0zm18014 -178l4 9 -7 -8 3 -1zm104 5203l0 -3 1 2 -1 1zm-21588 -6270l-1 0 2 0 -1 0zm6336 -1587l33 -16 5 8 -12 10c-77,49 26,200 -118,213l-29 -34c3,-56 20,-108 45,-159l22 -5 54 -17zm3616 -1927l-1 -5 4 3 -3 2zm2537 -2460l1 2 -2 0 1 -2zm-7275 7395l-5 -4 7 0 -2 4zm1024 -1022l1 1 -1 2 0 -3zm1826 -3402l12 -4 -11 10 -1 -6zm10099 1441l-3 -8 6 2 -3 6zm-3194 2462l7 6 -20 8 13 -14zm-2002 -5692l1 4 -5 0 4 -4zm4737 6126l-5 -16 18 15 -13 1zm-2556 -4238l-5 -2 5 0 0 2zm-7178 3669l0 -7 4 -1 -4 8zm-3882 -351l1 -1c39,51 92,87 149,114 132,63 257,137 375,223 182,133 185,202 21,348 -28,-286 -143,-390 -389,-342 -23,-127 -173,-196 -157,-342zm16979 -960l-21 -12 9 -3 12 15zm-17180 1593l31 -13 -28 22 -3 -9zm-726 -2461c141,61 249,96 362,117 32,1 63,-5 91,-23l3 -4c110,140 195,303 314,435 -4,25 -3,53 3,85 28,151 89,271 255,250 2,13 5,27 8,40 -40,68 -12,136 3,202 28,124 -17,193 -139,214 -104,27 -303,4 -286,100 29,167 -31,83 -101,81 -81,-1 -163,25 -246,40l-29 14 19 -41c-268,-64 -427,-238 -439,-485 -4,-116 29,-230 31,-345 1,-128 45,-154 171,-120 241,66 289,16 293,-251 -30,-156 -215,-164 -313,-309zm-17482 746l31 -27c-18,29 -38,56 -56,85l25 -58zm37420 8100l-5 -5 2 0 3 5zm-16564 -19407l6 -5 0 3 -6 2zm-6526 7113l-13 -30 2 -4 11 34zm-5446 461l-2 1 1 -2 1 1zm-10313 3129l9 2 -2 34 -7 -36zm46250 19726c-101,-35 -120,-125 -136,-218 -24,-147 48,-251 136,-352l0 1c165,87 238,239 292,405 -34,14 -60,39 -80,69 -53,73 -117,126 -212,95zm5549 -14007l-1 0 1 -1 0 1zm1059 -401l-2 -4 5 0 -3 4zm-863 2497l7 0 -8 4 1 -4zm248 -611l-8 -3 6 -8 2 11zm-31561 -22131l1 -1 2 -3 15 -14 -23 30 5 -12zm-17401 12158l5 0 -4 13 -1 -13zm43609 22435c18,-14 39,-22 74,-1l12 12c-19,-5 -49,-10 -86,-11zm1468 -10792l1 0 -1 1 0 -1zm-43372 14233l-7 -4 3 -1 4 5zm-4652 -393c-184,-143 -195,-317 -31,-502l-21 -23 14 5c203,19 387,-53 566,-129 102,-43 168,-150 131,-265 -51,-156 14,-177 103,-173 9,26 20,53 34,80 18,36 34,72 47,108 -35,-10 -74,-29 -118,-55 61,111 105,189 147,265l-11 8c-73,216 -251,363 -365,554 -127,214 -322,261 -496,127zm3290 -1530l0 0 0 0zm1315 1933l-3 -6 10 -2 -7 8zm-5368 -299l5 -1 -3 5 -2 -4zm-4396 1629l-13 13 -10 -25 13 5 10 7zm1165 -16046l-5 -3 6 -16c-74,-110 -29,-143 86,-146 165,-4 310,56 455,115 -183,-24 -365,-40 -542,50zm-1895 -294l-14 12 -18 -17 32 5zm4246 -11313l-1 3 -8 -6 9 3 -14 -22 1 -5 14 27 -1 0zm43765 6117c-1,-4 -3,-9 -5,-14l1 -8c-3,-7 -6,-14 -11,-20 -3,-8 -6,-17 -9,-25 20,11 39,24 59,25l-35 42zm-39341 16877c66,-18 132,-35 198,-51 137,72 269,154 384,258 66,60 84,115 36,208 -61,117 -164,180 -257,255 -189,148 -360,305 -390,561 30,96 101,42 150,34 151,-26 278,-1 362,134l-4 1c-230,370 -390,390 -665,70 -39,-121 -118,-238 -209,-354 -76,-339 106,-595 280,-851 55,-80 94,-171 115,-265zm-664 1306c-77,-7 -156,-5 -237,12 -139,45 -281,68 -423,82 -127,-65 -282,-91 -451,-72 -59,35 -109,73 -149,113 -77,8 -154,19 -230,34 -386,27 -651,327 -1000,439 -146,111 -331,88 -492,148 -132,23 -265,22 -345,-101 -73,-111 9,-199 79,-280 65,-46 110,-111 131,-183 23,-74 17,-171 -99,-149 -153,32 -321,20 -452,129 -39,39 -80,75 -123,108 -53,-57 -108,-113 -159,-172 -472,-546 -461,-636 151,-1027 29,-19 58,-39 86,-58 84,-79 246,-71 239,-251 -5,-121 -107,-89 -156,-137 -98,-184 -108,-387 -135,-587 45,19 90,39 140,17l20 34c172,69 351,137 536,120 248,-22 493,-53 737,6l25 46c69,110 80,248 168,348l-53 43c-85,188 -47,377 23,556 104,269 474,442 698,346 79,-73 200,-83 257,-184 119,-77 206,-276 383,-126l-2 28c157,222 376,359 628,451l30 3c83,81 188,160 175,264zm-5997 1829c68,-9 135,-20 184,-83 41,-13 83,-25 124,-38 47,34 90,74 131,118 3,4 7,8 10,12 -143,108 -263,240 -360,396l5 17 -5 -17c-36,20 -72,39 -107,58 -21,-55 -33,-114 -39,-177 19,-95 38,-191 57,-285l0 -1zm-808 980c-181,149 -340,327 -552,436 -38,20 -74,40 -111,60 14,-59 33,-118 61,-176 6,-65 11,-128 16,-192 21,-78 -62,-167 28,-238 25,37 59,39 98,27 62,24 124,47 189,17 42,-16 60,11 79,38 19,26 39,52 80,40 45,-13 82,-16 112,-12zm3408 -707c126,-87 263,-158 406,-220 30,-6 61,-12 92,-19 190,-7 367,-102 568,-60 217,45 341,194 466,342 -51,63 -102,127 -153,190 -505,-299 -559,-291 -939,150l-71 70c-38,12 -76,21 -118,13 -91,-10 -114,-90 -157,-152 -27,-38 -39,-101 -100,-99l16 -36c-8,-59 -10,-119 -10,-179zm6668 72c-30,-114 -182,-192 -455,-258l-23 -2c-210,-81 -220,-261 -228,-429 165,-29 328,-70 487,-131 163,-37 294,21 370,161 78,145 110,306 0,456 -49,68 -100,136 -151,203zm-1381 -1591c-83,-143 -220,-249 -343,-362 -68,-93 -81,-205 -102,-315 64,-105 1,-207 -18,-306 -74,-399 -42,-454 363,-572 52,-9 108,-10 156,-29 282,-115 484,-21 634,227l64 63c16,101 77,170 175,184 103,15 132,-86 176,-153 72,-109 103,-233 108,-364 54,-162 108,-323 161,-484 19,19 38,38 58,57 80,114 220,187 238,345 -11,160 106,318 12,490 -77,-73 -45,-171 -88,-239 -165,63 -263,196 -360,331 -53,84 -212,70 -197,213 -61,-49 -149,-44 -203,-104 -14,-87 -101,-111 -146,-171 -134,-183 -219,-108 -297,51 -89,184 -151,374 -98,579 52,203 -11,362 -161,497 -45,19 -87,46 -132,62zm39512 -6742c-37,77 -67,160 -92,247 -95,339 -139,360 -467,304 -166,-81 -340,-155 -422,-319 90,-11 189,3 255,-83l2 -2c150,-39 300,-80 451,-119 92,-2 183,-14 273,-28zm-1466 -2828c-14,-41 -26,-84 -39,-126 -24,-129 -58,-257 -72,-387 -23,-206 -127,-266 -316,-200 -286,99 -513,-11 -719,-199 -79,-73 -159,-146 -240,-219 -86,-110 -228,-178 -253,-334 5,-160 -119,-314 -33,-489 80,69 52,168 98,235 162,-71 254,-207 346,-346 48,-86 208,-80 187,-223 63,47 151,38 208,96 17,86 105,107 153,166 141,177 223,97 294,-65 81,-188 134,-380 73,-582 -30,-97 -32,-185 -10,-265 201,123 149,355 164,538 13,151 55,263 179,312 228,88 342,259 441,467 74,160 214,278 339,402 64,96 72,209 88,320 -68,103 -10,207 5,307 57,401 22,455 -387,555 -53,8 -108,6 -157,23 -135,48 -250,51 -349,14zm-562 -4153c-231,37 -458,94 -676,188 -162,44 -295,-8 -377,-145 -84,-141 -123,-301 -20,-455 106,-159 217,-315 326,-472 149,-215 385,-229 612,-267 233,143 484,245 744,323 -7,11 -14,23 -20,36 -69,156 -209,242 -335,343 -144,115 -290,239 -254,449zm6070 2593c18,5 34,11 47,23 55,94 86,194 109,297 -20,26 -44,51 -67,75 -54,35 -96,83 -123,138 -151,-50 -305,-91 -462,-70 -246,33 -490,74 -737,27l-27 -46c-5,-8 -10,-16 -15,-25 206,-95 397,-230 617,-290 150,-104 334,-74 498,-127 55,-7 110,-9 160,-2zm-1378 -330c-15,-56 -36,-112 -60,-166 -30,-69 -78,-130 -136,-181 31,-37 60,-75 86,-115 136,-209 333,-248 501,-106 178,151 181,325 10,503l19 24 -14 -5c-141,-20 -275,6 -406,46zm-2868 728c15,82 46,160 94,227 -65,-21 -120,-64 -161,-139l3 0c22,-32 43,-62 64,-88zm-55660 -8523l8 -8 15 20 -23 -12zm-2313 -1491l1 -13 25 20 -26 -7zm3911 2651c180,152 372,303 437,543 58,211 185,305 396,305 81,77 168,144 273,184 74,51 146,103 219,154 25,33 59,56 100,66 187,114 371,231 560,342 123,71 221,184 369,211 75,22 121,108 210,100 334,204 700,335 1075,431 300,77 577,248 902,229l54 8c140,30 280,31 416,-13 123,-41 257,-116 287,-240 26,-112 -89,-194 -188,-253 -30,-44 -52,-98 -91,-129 -249,-198 -495,-398 -704,-643 -54,-62 -135,-127 -241,-98 -517,-97 -995,-305 -1472,-518 -403,-203 -807,-407 -1210,-610 -127,-110 -268,-194 -429,-245 -318,-162 -618,-368 -983,-419 -250,-117 -495,-242 -717,-407 -265,-197 -559,-347 -849,-504 -660,-457 -1361,-844 -2082,-1197 -169,-153 -376,-232 -586,-306 -433,-98 -792,-326 -1100,-637 -128,-129 -272,-224 -445,-280 -66,-21 -134,-37 -197,15 -235,196 -213,582 63,698 531,225 1036,492 1514,811 207,167 423,314 690,368 78,34 76,155 177,164 206,143 401,301 635,408 384,177 818,242 1161,511 137,83 272,170 413,246 326,176 636,389 1008,461 113,80 230,155 335,244zm26568 -20983c126,57 182,33 214,-97 40,-167 35,-336 46,-504 -8,-139 -59,-256 -172,-341 -111,-220 -279,-371 -510,-456 -61,-23 -110,-78 -165,-118 -45,-11 -57,8 -45,49 93,332 236,647 315,984 44,184 103,388 317,483zm-3595 975c78,29 215,74 169,-96 -43,-161 -86,-330 -209,-455 -346,-350 -768,-512 -1302,-499 175,187 328,347 477,510 237,262 538,424 865,540zm48776 36591c-154,-74 -302,-55 -408,88 -203,272 -12,771 316,851 207,50 394,-39 589,-68 43,-130 -15,-246 -52,-364 -105,-207 -227,-402 -445,-507zm2719 -48c-190,39 -338,302 -288,531 77,363 294,566 560,458 311,-63 464,-271 407,-555 -59,-294 -375,-497 -679,-434zm-48820 -40435c86,361 309,618 593,845 168,135 373,260 395,514l54 36 0 2c-4,142 22,279 83,408l11 40c63,101 67,241 197,300 327,445 696,860 997,1384 0,-260 -15,-291 -80,-454 -293,-731 -775,-1352 -1179,-2020 -128,-564 -444,-1025 -821,-1447 -75,-83 -183,-141 -283,-198 -55,-31 -126,-10 -173,32 -52,44 17,79 23,118 22,164 146,284 183,440zm229 6598c-284,-430 -699,-734 -1055,-1097 -61,-62 -150,-80 -237,-76 -60,3 -122,38 -81,102 168,262 167,609 451,817 215,157 410,344 602,533 199,197 479,258 792,315 -115,-273 -340,-395 -472,-594zm-584 -6059l8 -1 5 21 -13 -20zm-1452 -1326c25,53 76,83 110,127 92,116 154,260 308,316 270,481 702,811 1089,1182 142,136 251,307 417,422 96,-41 49,-99 17,-154 -235,-311 -373,-689 -667,-957 -393,-470 -773,-950 -1185,-1402 -272,-298 -536,-609 -876,-838 -62,-66 -123,-130 -184,-195 -44,-7 -60,9 -39,52 33,94 113,143 184,201 216,455 487,873 826,1246zm44184 40743c-150,-8 -376,-60 -417,204 -1,141 32,275 78,406 179,404 542,535 931,614 124,25 170,-83 186,-189 64,-394 -388,-1014 -778,-1035zm-47865 -31614c202,160 406,338 674,396 143,31 293,26 394,-72 105,-101 -14,-212 -53,-316 -19,-50 -51,-94 -71,-145 -43,-110 -139,-146 -223,-89 -170,115 -287,23 -410,-70 -499,-378 -1038,-669 -1654,-804 -36,-17 -66,-10 -90,21 82,133 205,222 329,313 363,263 752,487 1104,766zm-29313 34044c256,90 510,114 754,-41 93,-73 190,-13 286,-11 328,-61 674,-58 972,-244 60,-12 121,-25 182,-37 135,-32 270,-63 405,-94 745,-162 1516,-221 2207,-583 297,-52 602,-89 815,-371 -156,-47 -288,-78 -427,-32l-2 2c-302,56 -604,113 -907,170 -518,52 -976,322 -1484,407 -298,-39 -585,12 -874,71 0,-19 -2,-39 -4,-59 -38,-287 -178,-404 -440,-369 -246,32 -342,172 -306,436 7,50 20,96 37,137 -252,49 -504,97 -755,147 -165,-51 -322,-7 -471,58 -89,37 -197,89 -186,207 10,108 101,172 198,206zm62026 -25511c15,36 22,76 46,105 272,337 403,295 582,-4 348,-582 196,-1057 -242,-1517 -93,-99 -224,-132 -318,-2 -174,236 -321,483 -228,801 39,125 54,257 78,386 58,66 32,162 82,231zm10013 4219c-358,-124 -819,533 -700,852 38,91 65,188 116,271 277,448 814,613 1189,183 159,-180 171,-371 101,-596 -114,-365 -373,-593 -706,-710zm-67191 21446c531,-175 1027,-437 1567,-595 207,-61 420,-152 585,-308 11,-9 23,-19 35,-28 -5,10 -11,21 -16,32 -168,341 -163,697 81,1021 153,137 310,269 459,411 140,135 288,250 483,292 294,111 565,33 829,-103 82,-65 196,-113 239,-197 394,-770 298,-1580 -628,-2031 -98,-46 -198,-134 -294,-130 -459,15 -827,203 -1069,564 -1,-3 -2,-5 -2,-7 -29,-75 -117,-78 -197,-93 -397,-74 -759,93 -1136,150 -61,125 -184,126 -296,147 -331,67 -670,111 -957,308 -118,80 -244,129 -380,160 -333,18 -574,254 -869,362 -233,0 -424,118 -621,220 -92,15 -184,31 -278,46 -182,37 -364,73 -546,110 -188,32 -322,205 -524,207 -43,60 -130,59 -174,121l9 11 -7 8c-18,-19 -43,-35 -84,-47 -173,26 -360,14 -504,146 -287,63 -573,126 -860,190 -141,99 -298,151 -469,181 -189,33 -390,52 -561,130 -451,202 -904,383 -1396,451 -135,19 -253,67 -327,189 -44,74 -146,131 -72,240 69,100 164,90 268,73 550,-84 1048,-367 1605,-424l61 -31c471,-183 960,-319 1411,-551 301,-60 661,26 838,-344 9,-19 55,-21 84,-31 235,-140 498,-194 763,-244 317,-60 634,-130 951,-195 274,-56 547,-110 821,-167 182,-36 363,-72 545,-110 212,-43 429,-68 633,-134zm63197 -20616c167,-296 74,-631 145,-941 9,-43 -46,-112 -106,-143 -288,-155 -593,-244 -923,-216 -310,47 -473,239 -528,529 -63,334 -71,658 244,893 435,322 907,338 1168,-122zm-49114 19191c19,126 228,319 322,283 125,-48 103,-170 104,-276 -35,-130 -84,-277 -233,-270 -121,5 -217,110 -193,263zm-4494 -7164l-10 6 -6 -10 16 4zm-290 -248l0 5 -3 -3 3 -2zm2330 2742c172,-8 348,-239 317,-397 -27,-142 -269,-324 -402,-288 -189,51 -250,189 -212,415 30,127 86,281 297,270zm961 -2106c-69,-163 -148,-353 -336,-366 -179,-11 -266,167 -322,319 -222,603 -247,969 363,1331 70,41 159,69 153,177 -44,379 252,756 647,864 222,61 337,-15 445,-203 166,-290 182,-582 89,-891 -6,-107 -39,-222 -13,-320 71,-265 -23,-485 -149,-701 -62,-107 -128,-216 -284,-187 -152,28 -153,152 -172,265 -55,80 -51,174 -46,261 7,139 -36,249 -145,335l-41 38c-45,-7 -88,-17 -129,-34l-3 -25c-152,-258 -36,-529 -43,-795l-14 -68zm49929 25503c-43,70 26,101 112,190 -12,-105 41,-159 -13,-208l-99 18zm22931 -42031c-161,-18 -256,-27 -350,74 123,29 211,18 350,-74zm-75869 -965c50,10 64,-38 66,-75 1,-53 -3,-116 -78,-117 -51,0 -82,35 -94,90 9,59 51,92 106,102zm60861 -15087c-109,13 -245,-20 -279,147 171,-11 171,-11 279,-147zm472 70158c76,77 72,218 205,260 22,-106 68,-208 -27,-298 -66,-17 -130,-24 -178,38zm-61882 -48600c103,-128 146,-257 11,-404 -48,93 -79,177 -81,272 -4,58 -37,133 70,132zm58492 18610c-80,132 -6,213 93,289 312,239 647,328 1041,168 -142,-297 -388,-461 -681,-570 -169,-32 -340,-72 -453,113zm1051 16087c188,171 334,288 580,302 -170,-169 -336,-243 -580,-302zm3462 -22251c34,64 41,158 158,155 38,-37 100,-77 86,-143 -18,-81 -73,-136 -169,-113 -55,12 -116,23 -75,101zm-17901 36669c-109,19 -105,121 -101,202 3,96 81,65 115,65 110,-7 151,-52 120,-137 -23,-62 -52,-143 -134,-130zm-25890 -4974c-114,11 -100,89 -87,167 10,65 30,121 114,104 92,-19 118,-82 109,-169 -9,-85 -49,-123 -136,-102zm37278 -10574c27,29 127,17 175,-10 162,-93 -12,-180 -16,-270 -44,8 -87,17 -130,25 -21,86 -109,173 -29,255zm12355 540c-120,-230 -276,-159 -443,-112 99,230 264,114 443,112zm-47956 -48986c63,-97 22,-191 -13,-282 -16,-40 -45,-75 -76,-128 -33,49 -72,83 -78,122 -17,109 5,213 89,294 26,24 59,23 78,-6zm38181 48167c-78,-5 -107,45 -93,121 18,92 60,157 169,141 61,-9 129,-14 116,-103 -16,-111 -94,-154 -192,-159zm2833 -4264c-17,-119 -116,-140 -205,-139 -58,1 -107,67 -86,136 31,100 121,131 218,147 72,-21 83,-78 73,-144zm-4910 -3736c-88,13 -144,75 -139,152 7,82 62,168 161,158 103,-10 89,-108 89,-179 1,-68 -6,-144 -111,-131zm13096 -38479c-226,5 -412,26 -541,240 223,9 380,-84 541,-240zm-21170 13599c-71,-212 -192,-60 -294,-40 -11,77 -103,171 50,210 149,38 232,-14 244,-170zm-2016 46824c-109,0 -84,83 -74,164 18,97 70,188 192,175 91,-10 52,-95 45,-151 -14,-97 -45,-189 -163,-188zm9035 -29630c-46,20 -69,58 -81,106 -50,127 6,220 124,240 140,24 96,-118 128,-191 -12,-81 40,-208 -128,-175l-43 20zm14838 -24378c208,-94 406,-216 640,-244 96,-11 189,-55 218,-147 28,-89 -63,-155 -121,-205 -72,-61 -161,-17 -231,35 -190,145 -379,290 -568,435 -178,65 -312,187 -491,341 253,-13 406,-105 553,-215zm-74241 26300c67,43 137,71 210,84 -91,16 -154,-23 -210,-84zm-359 -120c104,195 251,344 450,443 417,175 884,-120 984,-623 28,-229 1,-447 -150,-632 -330,-400 -1035,-548 -1234,-50 -117,112 -142,262 -173,411 -9,93 7,182 40,270 28,60 13,140 83,181zm61379 -30982c86,-17 103,-108 67,-166 -51,-78 -22,-226 -173,-231 -106,50 -114,140 -97,234 20,108 83,187 203,163zm20873 30151c130,4 132,-122 131,-204 -1,-108 -87,-151 -195,-146 -111,5 -170,60 -180,191 56,74 134,156 244,159zm-17183 -1500c36,94 134,38 205,36 91,-10 182,-21 214,-129 -50,-80 64,-220 -57,-255 -109,-33 -182,89 -264,156 -64,52 -125,118 -98,192zm17097 24955c-98,25 -135,119 -113,221 27,130 124,182 249,213 79,-66 100,-154 69,-242 -32,-96 -62,-228 -205,-192zm-803 -48188c56,-68 114,-152 50,-228 -67,-80 -154,-25 -226,23 -111,75 -179,182 -272,355 183,-74 340,-17 448,-150zm-27202 37840c21,136 52,301 189,281 122,-17 130,-197 128,-313 -3,-141 -117,-127 -225,-118 -123,11 -142,62 -92,150zm10013 -14872c-131,-338 -425,-284 -730,-351 233,225 434,373 730,351zm-2642 37267c-29,-31 -73,-74 -119,-40 -42,32 -26,89 -4,126 79,131 162,259 245,386 26,40 64,67 121,59 92,-38 58,-116 34,-172 -59,-143 -171,-250 -277,-359zm5339 -42391c129,-32 224,78 344,86 114,30 228,60 342,91l0 -1c289,102 571,236 895,155 64,-16 145,39 218,61 39,47 97,45 149,60l70 1c362,144 751,101 1126,154 104,16 223,-24 244,-123 24,-113 -112,-117 -188,-160 -147,-82 -311,30 -452,-40 -262,-129 -544,-152 -826,-165 -377,-17 -690,-251 -1058,-291 -84,-33 -167,-66 -252,-100 -215,19 -429,77 -648,48 -224,-12 -448,-25 -718,-40 235,245 500,236 754,264zm-12897 41250c-135,-17 -68,115 -72,185 24,162 83,325 236,362 98,24 81,-121 63,-199 -33,-143 -46,-326 -227,-348zm-2428 -71515c26,-29 53,-57 75,-87 54,-71 55,-142 -20,-198 -71,-53 -130,-8 -178,41 -36,37 -78,75 -74,137 -89,229 -287,423 -272,762 198,-244 282,-488 469,-655zm22046 53116c-27,-158 -175,-149 -290,-151 -107,-1 -134,83 -114,206 46,115 152,226 292,209 108,-12 129,-164 112,-264zm-1183 -39983c-77,-63 -219,-13 -257,-146 -147,145 -365,224 -439,453 285,-10 507,-121 696,-307zm8682 13389c195,-72 253,-439 110,-588 -48,-49 -87,-72 -123,-3 -69,136 -140,273 -152,425 15,101 37,212 165,166zm-3577 46380c-111,33 -169,156 -137,236 56,139 166,270 336,276 123,4 141,-96 122,-200 -23,-144 -218,-342 -321,-312zm-10439 -68891c101,-29 142,-95 106,-193 -29,-76 -103,-158 -173,-121 -194,101 -451,123 -568,413 159,-24 285,-44 411,-64 78,12 153,0 224,-35zm-11423 51604c150,282 363,447 533,645 47,54 132,32 192,-11 37,-26 29,-72 3,-102 -191,-221 -378,-445 -728,-532zm-58054 -19112l39 -18 -17 11 -22 7 -3 1 -47 31 -3 1 50 -32 3 -1zm728 -142c-29,-2 -57,-2 -86,-3l45 -11 41 14zm7 6l-1 -3 6 -1 -5 4zm45302 23540c-43,-1 -56,18 -39,58 344,270 682,549 1108,767 -104,-254 -747,-733 -1069,-825zm21366 -13153c-253,-156 -1205,-460 -1464,-466 227,218 1138,509 1464,466zm-17928 -34617c-405,41 -618,283 -717,832 345,-213 465,-568 717,-832zm-935 52994c-91,49 -69,127 -15,196 162,205 199,427 105,671 -3,93 -6,186 48,270 127,63 195,42 176,-117 -21,-153 -72,-312 -46,-456 35,-187 -2,-328 -124,-460 -42,-45 -45,-156 -144,-104zm25422 -6677l35 -46 70 61c-37,1 -72,-7 -105,-15zm1775 1080l5 1 0 1 -6 -2 1 0zm2099 551c-66,-107 -126,-234 -263,-279 -228,-191 -451,-377 -774,-404 -143,-12 -286,-85 -409,-185 -164,-133 -344,-247 -517,-368 -362,-308 -779,-510 -1233,-638l0 1 -1 -1c-188,-79 -381,-142 -587,-152 -222,-76 -444,-152 -666,-228 -101,-35 -205,-45 -266,57 -56,90 31,154 83,216 146,174 343,274 542,371 158,100 295,231 471,300 70,48 139,96 209,143 359,243 684,539 1070,746 434,150 899,197 1314,409 168,149 344,285 571,333 129,86 269,92 383,-8 85,-76 141,-202 73,-313zm-8299 4419c-43,-29 -87,-41 -126,-9l-17 50c89,297 262,499 473,669 57,46 139,33 194,-14 54,-47 0,-94 -23,-142 -111,-234 -287,-412 -501,-554zm-4075 -27897c-85,4 -15,60 -10,96 6,48 -22,107 69,80 76,-21 154,-18 225,17 195,97 350,43 491,-108 67,-72 150,-127 253,-211 -70,-24 -111,-50 -154,-50 -301,0 -571,163 -874,176zm-20044 34032c-109,-32 -122,14 -81,101 95,166 174,344 291,493 84,108 195,224 364,203 46,-5 102,-21 94,-78 -20,-141 -87,-264 -195,-354 -153,-126 -315,-243 -473,-365zm25277 -49578c124,-34 251,41 374,-13 194,-64 374,-149 552,-254 234,-139 441,-325 706,-413 440,-51 808,-209 995,-653 49,-117 82,-226 -24,-314 -106,-88 -226,-109 -359,-23 -229,149 -465,287 -699,428l-41 26c-635,8 -1126,369 -1637,676 -155,66 -292,159 -420,267 -232,129 -428,307 -638,467 -9,43 11,57 52,47 395,-2 767,-121 1139,-241zm-19453 34347c-382,4 -622,-210 -856,-460 -123,55 -116,121 -18,196 132,115 261,236 398,345 246,194 488,410 857,292 -99,-166 -172,-375 -381,-373zm16579 -33102c310,-37 632,-36 923,-181 -53,-83 -27,-162 10,-240 -32,-81 91,-101 70,-192 -137,22 -278,25 -406,68 -232,78 -470,159 -626,368 -52,67 -108,192 29,177zm357 30880c199,133 388,287 601,389 353,169 653,435 1037,545 48,42 101,46 121,-19 18,-68 2,-135 -93,-135 -378,-162 -702,-406 -1036,-638 -233,-163 -481,-315 -801,-352 39,111 102,165 171,210zm-31993 12636c-95,-1 -130,149 -149,230 -85,346 -157,492 279,588 88,20 132,65 177,126 37,-102 157,-65 218,-128 -88,-203 -173,-408 -268,-607 -52,-105 -149,-210 -257,-209zm22390 -20c-27,-49 -44,-104 -100,-129 -112,-200 -232,-396 -392,-563 -26,-27 -52,-63 -95,-44 -48,20 -34,67 -25,101 25,88 54,175 85,261 144,399 425,711 665,1047 50,70 150,128 221,80 76,-51 -7,-132 -31,-201 -75,-206 -244,-354 -328,-552zm11347 -9828c-487,-328 -1013,-498 -1608,-454 -204,15 -160,88 -80,191 41,54 95,100 149,142 444,340 922,608 1482,701 34,16 68,34 102,49 139,61 246,48 324,-105 77,-148 59,-266 -75,-359 -91,-64 -164,-167 -294,-165zm2886 510c-206,-149 -414,-292 -622,-438l-46 -27c-11,-103 11,-202 42,-300 -43,-131 -163,-177 -268,-241l0 0c-113,-154 -218,-313 -342,-457 -86,-101 -206,-123 -277,22 -136,277 -74,416 217,529 64,26 125,54 189,80 189,110 84,349 214,486 94,148 94,322 127,486 40,195 278,321 415,200 92,-81 189,-86 289,-112 57,-15 143,8 160,-60 19,-71 -45,-129 -98,-168zm-7717 -7681c128,140 232,312 419,387 101,41 214,136 309,2 87,-123 62,-247 -45,-353 -288,-285 -586,-557 -948,-748 -99,-21 -190,-117 -304,-33 57,101 107,205 198,278 123,156 236,322 371,467zm-2065 773c85,-48 76,-141 68,-226 -39,-456 -408,-660 -713,-902 -106,-84 -221,28 -190,216 162,279 345,590 607,844 60,58 136,120 228,68zm5582 -21106c255,-141 516,-259 812,-299 156,-21 246,-177 368,-269 65,-49 26,-134 -46,-131 -177,9 -351,-25 -486,-35 -102,12 -160,26 -204,78 -155,184 -349,297 -591,327 -119,15 -209,96 -156,199 50,91 153,212 303,130zm-16 12833c-407,-65 -407,-64 -485,-476 -66,-342 -298,-512 -666,-476 232,548 540,1009 1111,1234 142,55 335,107 390,-30 56,-133 -148,-174 -263,-227 -27,-12 -58,-20 -87,-25zm-863 16007l0 0 1 3 -6 -5 5 2zm827 947c-67,-127 -69,-283 -174,-392 -101,-302 -242,-580 -461,-814 -144,-364 -419,-627 -698,-885 -130,-146 -233,-334 -478,-297 -7,125 14,245 55,361 32,75 9,171 90,225 52,294 185,542 420,733 140,115 276,237 414,356 105,171 211,342 317,513 235,301 474,599 623,956 24,53 73,100 119,139 107,94 221,189 350,27 120,-153 103,-298 -58,-411 -201,-143 -403,-286 -519,-511zm-29345 -3467c-29,49 0,68 16,92 329,485 914,671 1288,1103 90,103 209,176 341,221 113,8 243,51 260,-131 -297,-226 -592,-454 -870,-707 -299,-272 -619,-519 -1035,-578zm-48070 -29762c270,20 359,-69 388,-388 10,-78 -3,-153 -35,-225 -35,-68 -60,-143 -106,-203 -106,-136 -400,-220 -479,-139 -114,118 -199,252 -204,424 -8,216 238,517 436,531zm19474 10444l-5 6 3 -5 0 0 1 -1 -1 1 2 -1 0 0 -1 0 1 -2 1 0 -1 2 0 0zm6871 913l18 67 -12 9 -6 -76zm-3521 -4915l6 34 -37 -4c-26,-17 -2,-25 31,-30zm-1436 1338l8 2 -6 5 -2 -7zm46448 13880l2 6 -14 2 12 -8zm-170 11688l18 12 -23 -18 0 -20 5 26zm-545 2335l6 -4 37 7 -43 -3zm256 -685l-1 -3c13,-83 -54,-124 -91,-181l-12 -15 13 -15 8 2 11 -4c15,28 37,48 64,63l0 7 30 54 12 3c1,35 -13,64 -34,89zm-2125 -1113l-3 -3 2 -10 1 13zm2076 -81l1 9c-127,-128 -182,-135 -280,-32l-22 -14 2 -4c130,-242 167,-255 338,-84 -14,42 -37,81 -39,125zm-14605 -4101l-19 -13 22 -26 -3 39zm-1949 -1702l19 -34c-196,-219 -356,-454 -400,-759 -15,-99 -94,-199 -231,-184 -120,-167 -299,-272 -448,-409l-12 -1c9,-137 121,-137 220,-153 236,-36 411,-146 466,-396l-5 -25c34,-42 64,-86 101,-125 165,-175 487,-167 619,16 168,478 132,983 199,1476 26,191 30,385 75,572 3,35 8,69 9,104 0,38 26,65 57,90l6 17c18,65 13,139 57,194l-56 69c-121,-306 -435,-325 -676,-452zm-2107 -382l-1 -1 1 1 0 0zm-2166 320c-35,62 0,139 -43,199 -34,-5 -54,-29 -80,-45 -186,-111 -393,-72 -560,-3 -105,44 0,187 1,302 -128,-162 -256,-324 -383,-486 -58,-67 -66,-126 0,-199 87,-97 158,-208 245,-305 212,-239 309,-254 595,-97l3 1c-40,89 19,169 34,253l26 60c-87,157 -30,261 189,302l14 31 -41 -13zm-816 7831l-4 3 1 -8 3 5zm-3544 -1481l3 9 -11 -4 8 -5zm-8678 -3962l9 7 -36 4 27 -11zm-5348 -4595l1 -2 3 1 -4 1zm-2548 -6700l1 1 -1 0 0 -1zm-5432 -2195l1 -7 3 4 -4 3zm-4206 -2590l3 -4 6 2 -3 0 -6 2zm-2446 -3335l1 -1 -1 2 0 -1zm5547 -2109l9 7 -7 12 -2 -19zm7712 4660l0 3 0 -3zm-1797 -7390l-10 25 10 -25zm0 -57l-2 1 -5 -17 7 16zm44613 11714l-1 -3 13 -7 -12 10zm-23536 10607l0 1 0 -1zm-1675 4305l-7 -5 5 -1 2 6zm-10660 -2333l2 2 -5 1 3 -3zm-6586 -7411l16 42 -16 -42zm-3627 -18347l-2 -10 13 9 -11 1zm24891 21098c-30,-206 -222,-285 -307,-408 456,-197 663,176 918,451 37,40 65,90 106,122 85,66 84,130 43,196l-10 -5c-275,-68 -489,-260 -750,-356zm-756 1272l5 60 -5 -60zm-24413 -22587l33 26c-10,15 -18,28 -26,-7l-7 -19zm45533 14701l-1 -4 7 0 0 2 -6 2zm-19759 7124l-4 -3 4 3zm-1338 -601l-2 18c-210,-31 -377,-196 -585,-212 -385,-28 -701,-195 -990,-430l-42 1 2 -4c-6,-86 -59,-180 -50,-265l7 -35c10,-28 26,-54 59,-79 147,-107 279,11 401,80 173,96 337,211 505,318 138,136 323,160 499,206 63,177 280,84 386,214 -109,29 -172,88 -190,188zm-1623 -1129l11 -2 -14 17 3 -15zm1597 -4805c-16,-24 -42,-38 -71,-38 -162,3 -231,-81 -241,-234l-13 -33c74,-13 142,8 206,50 96,63 179,146 288,186l32 -2 61 68c-54,29 -109,20 -164,11 -32,-5 -65,-10 -98,-8zm584 48l-1 -3 3 3 -2 0zm138 585l7 15 -7 8 0 -23zm-390 -690l0 0 0 0zm-1735 -251l5 4 -7 0 2 -4zm1082 1055l-2 1c-36,-53 -87,-91 -143,-121 -130,-69 -251,-148 -365,-239 -177,-141 -177,-210 -6,-348 16,287 125,396 373,358 17,128 165,204 143,349zm227 -624l-31 11 28 -20 3 9zm-3206 12896l-6 4 0 -3 6 -1zm6826 -6825l12 30 -2 4 -10 -34zm5461 -226l1 0 1 1 -2 -1zm-41066 -10629l1 1 -1 1 0 -2zm-1075 355l2 5 -5 0 3 -5zm346 -3575l6 3 -9 -1 3 -2zm624 1119l-8 -1 8 -4 0 5zm-274 599l7 3 -6 8 -1 -11zm30577 23471l0 1 -3 3 -16 13 25 -29 -6 12zm-26624 -24973l-1 1 1 -1 0 0zm43945 -12349l7 5 -3 0 -4 -5zm1278 1980l0 0 0 0zm-1230 -1988l2 6 -9 1 7 -7zm4100 -151l-1 -9c6,27 10,52 18,81l0 0 -17 -72zm-61 -330l3 18 0 1 -3 -19zm1310 1011l-4 0 2 -4 2 4zm2607 14543l5 3 -7 16c70,113 23,144 -92,142 -165,-3 -307,-69 -449,-134 181,32 363,55 543,-27zm1881 375l14 -11 17 18 -31 -7zm-4730 11119l2 -2 7 6 -9 -4 12 24 -1 5 -12 -28 1 -1zm10935 -5160l-9 7 -14 -20 23 13zm2246 1589l-1 13 -24 -21 25 8zm-3792 -2818c-174,-159 -359,-318 -414,-560 -49,-214 -172,-314 -382,-323 -78,-80 -162,-150 -266,-195 -70,-54 -140,-109 -211,-163 -23,-35 -56,-59 -98,-71 -181,-122 -360,-246 -544,-365 -120,-76 -213,-194 -360,-227 -74,-26 -116,-113 -205,-109 -325,-218 -685,-365 -1056,-477 -297,-90 -566,-273 -891,-268l-53 -10c-139,-36 -279,-43 -416,-5 -126,36 -263,104 -298,227 -30,111 81,198 178,262 28,44 47,99 84,132 241,209 478,419 676,672 51,65 129,134 236,109 513,120 981,348 1449,581 394,221 788,442 1182,662 123,115 260,206 419,263 311,176 601,394 964,462 245,126 483,262 699,437 256,208 543,370 825,540 641,484 1324,902 2029,1285 162,160 366,249 572,331 429,116 777,360 1072,684 123,135 263,236 432,299 66,24 133,44 198,-7 243,-185 237,-571 -33,-700 -521,-247 -1013,-536 -1478,-875 -198,-176 -409,-332 -673,-397 -77,-38 -68,-159 -170,-172 -199,-152 -387,-318 -616,-435 -376,-193 -807,-277 -1138,-561 -134,-88 -265,-181 -402,-263 -318,-190 -618,-416 -988,-503 -109,-86 -223,-166 -323,-260zm-27449 19819c-123,-62 -180,-41 -218,88 -47,165 -49,334 -67,501 2,139 48,258 157,348 101,224 262,382 489,478 61,26 107,83 161,125 44,13 56,-6 46,-47 -79,-336 -207,-657 -272,-998 -36,-185 -86,-391 -296,-495zm3634 -820c-77,-32 -211,-83 -173,90 36,162 72,332 190,463 330,365 744,544 1279,555 -167,-194 -313,-361 -455,-531 -226,-272 -519,-446 -841,-577zm-47153 -38658c151,79 299,67 411,-71 215,-264 46,-770 -279,-864 -204,-59 -395,22 -591,43 -49,127 4,246 36,365 97,211 209,412 423,527zm-2718 -70c190,-30 350,-287 311,-518 -62,-366 -270,-578 -540,-481 -314,48 -476,250 -432,536 46,296 354,512 661,463zm47031 42502c-70,-365 -283,-630 -556,-870 -162,-142 -362,-276 -373,-531l-53 -38 1 -2c10,-142 -10,-279 -65,-411l-10 -40c-58,-104 -56,-244 -183,-309 -308,-459 -659,-889 -937,-1425 -11,260 3,291 60,457 262,743 717,1384 1091,2068 104,569 400,1043 759,1481 70,87 176,150 273,210 54,34 125,15 175,-23 54,-42 -15,-80 -18,-120 -15,-165 -134,-289 -164,-447zm55 -6602c266,442 668,764 1007,1141 58,66 146,87 233,87 61,-1 124,-33 86,-99 -157,-268 -141,-616 -415,-835 -208,-166 -395,-362 -579,-559 -190,-205 -467,-278 -778,-349 104,278 322,410 446,614zm322 6079l-7 0 -5 -21 12 21zm1394 1387c-23,-54 -73,-86 -105,-132 -86,-119 -143,-265 -293,-329 -249,-492 -666,-840 -1038,-1227 -136,-143 -237,-318 -398,-440 -97,37 -53,96 -24,153 222,320 343,704 625,986 374,485 733,981 1124,1451 258,310 509,631 839,875 59,68 117,136 175,203 44,8 61,-6 42,-50 -29,-96 -107,-149 -175,-210 -196,-463 -450,-892 -772,-1280zm-42386 -42610c149,14 373,76 425,-186 7,-141 -20,-276 -61,-409 -161,-411 -518,-557 -903,-653 -123,-30 -173,75 -195,181 -79,391 344,1029 734,1067zm46457 33648c-194,-168 -391,-356 -656,-424 -141,-37 -292,-39 -397,54 -110,97 4,213 39,318 18,51 47,97 65,148 39,112 132,152 218,99 176,-108 289,-11 408,88 481,399 1008,713 1617,874 36,19 66,13 92,-17 -78,-136 -196,-231 -317,-327 -350,-279 -729,-519 -1069,-813zm30754 -32749c-252,-101 -505,-136 -756,9 -96,69 -190,5 -285,-1 -332,46 -676,29 -982,202 -61,9 -122,19 -183,29 -137,25 -274,51 -410,77 -750,128 -1523,155 -2230,487 -299,39 -605,62 -830,335 154,54 285,90 425,50l3 -1c304,-43 609,-87 913,-131 520,-30 989,-281 1501,-343 332,58 656,3 983,-50 456,-77 914,-142 1372,-211 163,57 321,20 473,-38 91,-34 200,-81 195,-200 -5,-108 -94,-175 -189,-214zm-63068 22814c-13,-36 -20,-77 -42,-107 -258,-349 -390,-312 -582,-22 -373,568 -241,1048 177,1527 88,103 217,141 318,16 184,-229 342,-469 261,-791 -32,-127 -42,-259 -61,-389 -55,-69 -25,-162 -71,-234zm-9823 -4647c353,140 842,-497 736,-821 -34,-93 -56,-191 -104,-276 -257,-459 -786,-648 -1180,-234 -166,174 -187,363 -126,592 99,369 346,609 674,739zm68053 -18529c-537,151 -1045,392 -1590,527 -210,51 -427,133 -599,282 -53,45 -152,84 -123,171 25,76 113,83 192,101 393,91 762,-60 1142,-101 66,-122 190,-117 302,-134 333,-52 673,-82 970,-266 120,-75 248,-118 385,-143 333,-4 585,-230 885,-325 232,10 428,-99 629,-193 93,-11 186,-22 279,-34 184,-29 367,-58 551,-86 190,-24 331,-191 532,-184 47,-58 133,-54 180,-113l-9 -12 8 -8c16,20 41,37 81,50 175,-18 360,2 510,-124 289,-50 578,-101 868,-152 144,-93 304,-139 476,-161 191,-24 392,-35 567,-105 459,-183 919,-344 1414,-390 135,-13 256,-57 334,-176 48,-71 152,-124 83,-237 -65,-103 -161,-96 -266,-84 -552,61 -1061,322 -1621,355l-63 28c-478,163 -972,277 -1433,490 -304,47 -659,-55 -851,307 -10,19 -57,19 -87,27 -240,130 -505,172 -771,211 -320,46 -640,102 -960,155 -276,43 -551,86 -827,130 -183,29 -366,58 -549,87 -213,34 -432,49 -639,107zm-64026 17872c-181,289 -102,627 -186,934 -11,42 42,114 100,147 281,168 581,270 913,255 312,-33 483,-218 550,-504 78,-332 100,-655 -205,-903 -421,-341 -891,-377 -1172,71z"/>
   <g>
    <g>
     <path class="fil1" d="M38777 35292l127 0c255,298 3654,4547 3952,4844 255,340 1912,2337 3399,4164 906,1081 1725,2047 2208,2610 219,256 277,300 334,362 365,401 1070,218 1070,-362l0 -2384c-1713,-1892 -3327,-3901 -4887,-5919 -447,-579 -4589,-5822 -4801,-6034 -128,-127 -255,-191 -510,-191 -127,0 -319,21 -595,21 -255,21 -573,43 -935,43 -934,0 -1508,0 -1891,-22 -382,-21 -552,-42 -658,-42 -85,0 -127,42 -127,127l0 574c0,85 42,127 127,149l680 0c935,0 1657,977 1657,2252l0 2698c0,3399 -128,6373 -149,6756 -106,1296 -403,1763 -956,1763l-722 0c-85,0 -128,85 -128,128l0 531c0,152 43,194 128,194 212,0 1657,-63 2209,-63 808,0 2082,63 2295,63 170,0 170,-42 170,-173l0 -489c0,-106 0,-191 -170,-191l-553 0c-764,0 -1019,-510 -1062,-1572 -42,-659 -212,-3633 -212,-7245l0 -2592zm34541 7287l0 0c0,-616 255,-786 638,-786l722 0c127,0 170,-42 170,-169l0 -532c0,-106 -43,-148 -213,-148 -212,0 -934,63 -2719,63 -1742,0 -2762,-63 -3017,-63 -85,0 -127,42 -127,170l0 488c0,107 42,191 170,191l892 0c552,0 765,213 765,978l0 1551c0,1104 -43,1699 -510,1954 -722,383 -1530,553 -2889,553 -1083,0 -1950,-298 -2773,-912l0 1534c879,245 1780,358 2603,358 2549,0 4291,-513 6033,-1405 213,-85 340,-170 340,-340 0,-170 -85,-383 -85,-680l0 -2805zm-10278 -7113l0 0c182,-287 379,-552 591,-790 1147,-1317 2294,-1657 3611,-1657 1615,0 2805,722 3527,1487 850,893 1402,2082 1699,2932 43,128 86,191 213,170l510 -85c85,-21 85,-127 85,-297l-213 -4249c0,-170 -42,-298 -255,-298 -127,0 -191,64 -297,213l-255 340c-127,170 -255,233 -510,42 -680,-510 -2294,-1147 -4334,-1147 -2142,0 -3863,510 -5266,1479l98 114 148 195 134 203 119 207 104 211 90 216 77 219 64 222 51 223 9 50zm-9883 -1576l0 0c-22,2941 -85,5556 -85,8031 0,1275 42,3654 85,3973 64,425 212,807 552,807l1062 0c128,0 170,64 170,149l0 510c0,152 -63,194 -233,194 -277,0 -701,-63 -2911,-63 -448,0 -1062,23 -1254,-5 -77,-11 -71,-962 -63,-1486 34,-2125 42,-4122 42,-6119l0 -5587c0,-722 -297,-1062 -679,-1062l-829 0c-106,0 -149,-43 -149,-128l0 -573c0,-107 43,-149 149,-149 149,0 829,64 2911,64 1189,0 3144,-64 3781,-64 5006,0 6548,1689 6660,3751 133,2443 -965,4182 -5235,4131l0 85c959,342 2535,2779 3051,3569 135,207 1341,2128 1663,2422 401,365 1141,404 1651,404 128,0 170,63 170,148l0 446c0,149 -42,216 -170,216 -170,0 -379,-63 -1738,-63 -1507,0 -2369,84 -3148,-1151 -1024,-1623 -1772,-2838 -2690,-4351 -470,-773 -566,-1455 -1780,-1466l0 -867c48,3 913,-19 961,-19 3314,0 4953,-1451 4861,-3322 -88,-1776 -1077,-2585 -2737,-2962 -1122,-255 -2434,-206 -3048,-206 -340,0 -595,21 -765,127 -170,106 -253,361 -255,616z"/>
     <path class="fil2" d="M35942 51721l0 -2930 389 0 0 404c189,-302 423,-453 703,-453 244,0 437,94 577,282 141,188 211,444 211,769 0,356 -83,644 -249,864 -167,220 -385,330 -654,330 -231,0 -427,-98 -588,-293l0 1027 -389 0zm389 -1319c180,196 358,294 534,294 171,0 304,-76 398,-227 94,-151 142,-362 142,-635 0,-506 -152,-759 -454,-759 -220,0 -426,137 -620,412l0 915zm3920 452c-270,89 -518,133 -743,133 -369,0 -653,-95 -851,-285 -199,-189 -298,-461 -298,-814 0,-334 95,-608 286,-823 191,-215 433,-323 727,-323 297,0 516,90 657,268 140,178 210,455 210,831l0 125 -1463 0c29,486 291,730 786,730 210,0 439,-50 689,-151l0 309zm-1462 -1180l1033 0 0 -55c0,-390 -162,-585 -484,-585 -154,0 -281,56 -377,169 -97,113 -154,270 -172,471zm2656 349l0 916 -389 0 0 -2148 389 0 0 940 85 -2c126,0 213,-20 264,-60 50,-41 115,-144 194,-310l44 -91c95,-199 181,-328 256,-388 77,-59 195,-89 356,-89l0 292c-78,0 -136,18 -175,55 -38,35 -89,120 -152,252l-38 79 -49 109c-59,120 -154,214 -285,281 109,37 191,86 247,146 55,60 131,180 226,360l80 151c92,175 175,316 248,423l-430 0c-37,-74 -79,-153 -125,-236l-108 -188c-138,-245 -252,-409 -344,-492l-294 0zm1700 916l0 -292c106,-7 186,-36 242,-87 54,-52 102,-142 142,-271 95,-318 143,-747 143,-1287l0 -211 1438 0 0 2148 -389 0 0 -1856 -672 0 0 38c0,603 -72,1059 -214,1364 -142,302 -372,454 -690,454zm4055 -261c-236,198 -471,297 -706,297 -196,0 -358,-56 -485,-168 -128,-111 -191,-253 -191,-424 0,-223 98,-402 296,-538 198,-135 459,-203 784,-203l241 0 0 -185c0,-152 -34,-261 -101,-326 -68,-64 -179,-97 -334,-97 -226,0 -459,64 -700,190l0 -334c276,-98 536,-148 777,-148 273,0 466,54 578,162 113,109 169,296 169,560l0 901c0,129 14,218 41,264 28,47 80,71 156,71 25,0 67,-7 123,-20l36 232c-130,42 -229,63 -296,63 -191,0 -321,-99 -388,-297zm-61 -252l0 -541 -117 0c-532,0 -799,144 -799,432 0,104 34,188 102,252 69,62 160,94 273,94 170,0 350,-79 541,-237zm1140 513l0 -2148 429 0 560 1680 525 -1680 452 0 0 2148 -365 0 0 -1711 -494 1565 -339 0 -464 -1395 0 1541 -304 0zm2604 0l0 -2148 389 0 0 871 952 0 0 -871 389 0 0 2148 -389 0 0 -985 -952 0 0 985 -389 0zm3788 -261c-237,198 -472,297 -707,297 -195,0 -358,-56 -485,-168 -127,-111 -191,-253 -191,-424 0,-223 99,-402 297,-538 198,-135 459,-203 783,-203l241 0 0 -185c0,-152 -33,-261 -100,-326 -68,-64 -179,-97 -335,-97 -225,0 -458,64 -699,190l0 -334c276,-98 535,-148 777,-148 273,0 465,54 578,162 112,109 168,296 168,560l0 901c0,129 15,218 42,264 28,47 80,71 156,71 25,0 66,-7 123,-20l36 232c-130,42 -229,63 -296,63 -192,0 -321,-99 -388,-297zm-62 -252l0 -541 -116 0c-533,0 -799,144 -799,432 0,104 34,188 102,252 68,62 160,94 272,94 171,0 351,-79 541,-237zm2531 -355l-419 0c-93,92 -190,223 -289,396l-125 218c-55,96 -102,181 -140,254l-437 0c76,-114 160,-254 251,-420l52 -97 89 -162c76,-134 167,-233 275,-295 -329,-89 -493,-278 -493,-568 0,-243 110,-418 330,-525 114,-54 321,-81 620,-81l675 0 0 2148 -389 0 0 -868zm0 -988l-354 0c-310,0 -464,113 -464,338 0,239 162,359 486,359l332 0 0 -697zm3744 1856l0 -2148 1759 0 0 292 -1370 0 0 1856 -389 0zm2353 782l0 -2930 389 0 0 404c189,-302 423,-453 703,-453 244,0 437,94 577,282 141,188 211,444 211,769 0,356 -83,644 -249,864 -167,220 -384,330 -654,330 -231,0 -427,-98 -588,-293l0 1027 -389 0zm389 -1319c180,196 358,294 534,294 171,0 304,-76 398,-227 94,-151 142,-362 142,-635 0,-506 -152,-759 -454,-759 -220,0 -426,137 -620,412l0 915zm2028 1319l0 -292 159 0c148,0 255,-24 323,-72 66,-47 137,-150 211,-306l97 -207 -903 -2053 403 0 704 1602 710 -1602 351 0 -1084 2423c-85,189 -186,320 -304,395 -117,75 -284,112 -501,112l-166 0zm2600 -782l0 -2148 1657 0 0 2148 -389 0 0 -1856 -879 0 0 1856 -389 0zm2490 0l0 -2148 1657 0 0 2148 -389 0 0 -1856 -879 0 0 1856 -389 0zm3751 -261c-236,198 -471,297 -706,297 -196,0 -358,-56 -485,-168 -128,-111 -191,-253 -191,-424 0,-223 98,-402 296,-538 198,-135 459,-203 784,-203l241 0 0 -185c0,-152 -34,-261 -101,-326 -67,-64 -179,-97 -334,-97 -226,0 -459,64 -700,190l0 -334c276,-98 536,-148 777,-148 273,0 466,54 578,162 113,109 169,296 169,560l0 901c0,129 14,218 42,264 27,47 79,71 156,71 25,0 66,-7 122,-20l36 232c-130,42 -229,63 -295,63 -192,0 -322,-99 -389,-297zm-61 -252l0 -541 -116 0c-533,0 -800,144 -800,432 0,104 34,188 103,252 68,62 159,94 272,94 170,0 350,-79 541,-237z"/>
    </g>
    <path class="fil2" d="M55964 18636c-12804,0 -23221,10417 -23221,23221 0,12804 10417,23222 23221,23222 12805,0 23222,-10418 23222,-23222 0,-12804 -10417,-23221 -23222,-23221zm0 47633c-13461,0 -24412,-10951 -24412,-24412 0,-13461 10951,-24412 24412,-24412 13461,0 24413,10951 24413,24412 0,13461 -10952,24412 -24413,24412z"/>
   </g>
  </g>
 </g>
</svg>
