<svg width="141" height="160" viewBox="0 0 141 160" fill="none" xmlns="http://www.w3.org/2000/svg">
<path d="M66.0177 1.19483C68.777 -0.398276 72.1767 -0.398277 74.936 1.19483L136.495 36.7357C139.254 38.3288 140.954 41.273 140.954 44.4592V115.541C140.954 118.727 139.254 121.671 136.495 123.264L74.936 158.805C72.1767 160.398 68.777 160.398 66.0177 158.805L4.45916 123.264C1.69982 121.671 0 118.727 0 115.541V44.4592C0 41.273 1.69982 38.3288 4.45916 36.7357L66.0177 1.19483Z" fill="#F58220"/>
<path d="M109.999 42.3219C109.987 41.04 108.943 40 107.656 40H69.8438C69.2044 40 68.6119 40.2591 68.182 40.6914C68.1805 40.693 68.1789 40.6942 68.1773 40.6956L54.1148 54.9144C53.6941 55.34 53.4375 55.9442 53.4375 56.5625V94.0625C53.4375 94.0648 53.4378 94.067 53.4378 94.0694C53.4417 95.3647 54.5008 96.4064 55.7817 96.4062H93.5938C94.1881 96.4062 94.8011 96.1694 95.2506 95.7202C95.2508 95.72 95.2509 95.72 95.2509 95.7198L109.313 81.6573C109.313 81.6573 109.313 81.6573 109.313 81.6572C109.724 81.2464 109.988 80.6637 109.998 80.035C109.998 80.0233 110 80.0119 110 80V42.3438C110 42.3364 109.999 42.3292 109.999 42.3219ZM67.5 48.0466V54.2188H61.3956L67.5 48.0466ZM58.125 58.9062H67.5V79.0292L58.125 88.4042V58.9062ZM91.25 91.7188H61.4395L70.8145 82.3438H91.25V91.7188ZM91.25 77.6562H72.1875V58.9062H91.25V77.6562ZM92.6153 54.2188H72.1875V44.6875H102.042L92.6153 54.2188ZM95.9375 88.4042V82.3438H101.998L95.9375 88.4042ZM105.312 77.6562H95.9375V57.5258L105.312 48.0466V77.6562Z" fill="white"/>
<path d="M107.656 101.094H48.75V42.3438C48.75 41.0494 47.7006 40 46.4062 40H32.3438C31.0494 40 30 41.0494 30 42.3438V117.656C30 117.658 30.0003 117.66 30.0003 117.663C30.0037 118.97 31.0769 120 32.3438 120H107.656C108.951 120 110 118.951 110 117.656V103.438C110 102.143 108.951 101.094 107.656 101.094ZM34.6875 44.6875H44.0625V49.5312H41.7188C40.4244 49.5312 39.375 50.5806 39.375 51.875C39.375 53.1694 40.4244 54.2188 41.7188 54.2188H44.0625V58.9062H41.7188C40.4244 58.9062 39.375 59.9556 39.375 61.25C39.375 62.5444 40.4244 63.5938 41.7188 63.5938H44.0625V68.2812H41.7188C40.4244 68.2812 39.375 69.3306 39.375 70.625C39.375 71.9194 40.4244 72.9688 41.7188 72.9688H44.0625V77.6562H41.7188C40.4244 77.6562 39.375 78.7056 39.375 80C39.375 81.2944 40.4244 82.3438 41.7188 82.3438H44.0625V87.0312H41.7188C40.4244 87.0312 39.375 88.0806 39.375 89.375C39.375 90.6694 40.4244 91.7188 41.7188 91.7188H44.0625V96.4062H41.7188C40.4244 96.4062 39.375 97.4556 39.375 98.75C39.375 100.044 40.4244 101.094 41.7188 101.094H44.0625V102.474L34.6875 111.953V44.6875ZM105.312 115.312H37.9581L47.3847 105.781H48.75V108.125C48.75 109.419 49.7994 110.469 51.0938 110.469C52.3881 110.469 53.4375 109.419 53.4375 108.125V105.781H58.125V108.125C58.125 109.419 59.1744 110.469 60.4688 110.469C61.7631 110.469 62.8125 109.419 62.8125 108.125V105.781H67.5V108.125C67.5 109.419 68.5494 110.469 69.8438 110.469C71.1381 110.469 72.1875 109.419 72.1875 108.125V105.781H77.0312V108.125C77.0312 109.419 78.0806 110.469 79.375 110.469C80.6694 110.469 81.7188 109.419 81.7188 108.125V105.781H86.4062V108.125C86.4062 109.419 87.4556 110.469 88.75 110.469C90.0444 110.469 91.0938 109.419 91.0938 108.125V105.781H95.9375V108.125C95.9375 109.419 96.9869 110.469 98.2812 110.469C99.5756 110.469 100.625 109.419 100.625 108.125V105.781H105.312V115.312Z" fill="white"/>
</svg>
