<svg width="141" height="160" viewBox="0 0 141 160" fill="none" xmlns="http://www.w3.org/2000/svg">
<path d="M66.0177 1.19483C68.777 -0.398276 72.1767 -0.398277 74.936 1.19483L136.495 36.7357C139.254 38.3288 140.954 41.273 140.954 44.4592V115.541C140.954 118.727 139.254 121.671 136.495 123.264L74.936 158.805C72.1767 160.398 68.777 160.398 66.0177 158.805L4.45916 123.264C1.69982 121.671 0 118.727 0 115.541V44.4592C0 41.273 1.69982 38.3288 4.45916 36.7357L66.0177 1.19483Z" fill="#F58220"/>
<path d="M60.625 77.6562C61.9194 77.6562 62.9688 76.6069 62.9688 75.3125C62.9688 74.0181 61.9194 72.9688 60.625 72.9688C59.3306 72.9688 58.2812 74.0181 58.2812 75.3125C58.2812 76.6069 59.3306 77.6562 60.625 77.6562Z" fill="white"/>
<path d="M79.375 77.6562C80.6694 77.6562 81.7188 76.6069 81.7188 75.3125C81.7188 74.0181 80.6694 72.9688 79.375 72.9688C78.0806 72.9688 77.0312 74.0181 77.0312 75.3125C77.0312 76.6069 78.0806 77.6562 79.375 77.6562Z" fill="white"/>
<path d="M100.625 91.7188H100.066C100.326 90.9852 100.469 90.1966 100.469 89.375C100.469 86.292 98.4733 83.668 95.7069 82.7217C94.758 70.1961 84.8189 60.1436 72.3438 59.0139V53.6594C75.0717 52.6919 77.0312 50.0867 77.0312 47.0312C77.0312 43.1542 73.877 40 70 40C66.123 40 62.9688 43.1542 62.9688 47.0312C62.9688 50.0867 64.9283 52.6919 67.6562 53.6594V59.0139C55.1811 60.1436 45.242 70.1961 44.2931 82.7217C41.5267 83.668 39.5312 86.292 39.5312 89.375C39.5312 90.1966 39.6742 90.9852 39.9344 91.7188H39.375C34.2056 91.7188 30 95.9244 30 101.094C30 104.556 31.8881 107.584 34.6875 109.208V117.656C34.6875 118.951 35.7369 120 37.0312 120C39.237 120 100.135 120 102.969 120C104.263 120 105.312 118.951 105.312 117.656V109.208C108.112 107.584 110 104.556 110 101.094C110 95.9244 105.794 91.7188 100.625 91.7188ZM70 44.6875C71.2923 44.6875 72.3438 45.7389 72.3438 47.0312C72.3438 48.3236 71.2923 49.375 70 49.375C68.7077 49.375 67.6562 48.3236 67.6562 47.0312C67.6562 45.7389 68.7077 44.6875 70 44.6875ZM70 63.5938C80.8389 63.5938 89.7931 71.8117 90.9628 82.3438H49.0372C50.2069 71.8117 59.1611 63.5938 70 63.5938ZM44.2188 115.312H39.375V110.469H44.2188V115.312ZM44.2188 105.781H39.375C36.7903 105.781 34.6875 103.678 34.6875 101.094C34.6875 98.5091 36.7903 96.4062 39.375 96.4062H44.2188C44.2188 99.1948 44.2188 102.934 44.2188 105.781ZM81.7188 115.312H58.2812V110.469H81.7188V115.312ZM91.0938 115.312H86.4062V108.125C86.4062 106.831 85.3569 105.781 84.0625 105.781H55.9375C54.6431 105.781 53.5938 106.831 53.5938 108.125V115.312H48.9062C48.9062 111.511 48.9062 102.79 48.9062 96.4062H91.0938C91.0938 102.764 91.0938 111.482 91.0938 115.312ZM93.4375 91.7188H46.5625C45.2702 91.7188 44.2188 90.6673 44.2188 89.375C44.2188 88.0827 45.2702 87.0312 46.5625 87.0312H93.4375C94.7298 87.0312 95.7812 88.0827 95.7812 89.375C95.7812 90.6673 94.7298 91.7188 93.4375 91.7188ZM100.625 115.312H95.7812V110.469H100.625V115.312ZM100.625 105.781H95.7812C95.7812 102.933 95.7812 99.1947 95.7812 96.4062H100.625C103.21 96.4062 105.312 98.5091 105.312 101.094C105.312 103.678 103.21 105.781 100.625 105.781Z" fill="white"/>
</svg>
