<svg width="141" height="160" viewBox="0 0 141 160" fill="none" xmlns="http://www.w3.org/2000/svg">
<path d="M66.0177 1.19483C68.777 -0.398276 72.1767 -0.398277 74.936 1.19483L136.495 36.7357C139.254 38.3288 140.954 41.273 140.954 44.4592V115.541C140.954 118.727 139.254 121.671 136.495 123.264L74.936 158.805C72.1767 160.398 68.777 160.398 66.0177 158.805L4.45916 123.264C1.69982 121.671 0 118.727 0 115.541V44.4592C0 41.273 1.69982 38.3288 4.45916 36.7357L66.0177 1.19483Z" fill="#F58220"/>
<path d="M106.543 99.971L89.4962 83.4001C90.7151 80.8264 90.2909 77.6046 88.108 75.4218C87.4758 74.7896 86.7514 74.3051 85.9784 73.9645L88.0805 71.8623C93.992 73.9686 100.687 72.5137 105.194 68.007C110.103 63.0983 111.391 55.5937 108.4 49.3325C108.072 48.6459 107.432 48.1614 106.682 48.0328C105.932 47.9042 105.166 48.1475 104.628 48.6856L96.9075 56.4062L93.5929 53.0917L101.313 45.3713C101.851 44.8333 102.095 44.0677 101.966 43.3178C101.838 42.568 101.353 41.9272 100.667 41.5991C94.4054 38.6081 86.9009 39.8967 81.992 44.8055C77.4802 49.3172 76.0269 56.0222 78.1438 61.9387L69.9364 70.3489L54.531 54.6444V48.9728C54.531 48.0863 54.0307 47.2755 53.2382 46.8778L40.0237 40.2489C39.121 39.7961 38.0296 39.9722 37.3155 40.6866L30.6865 47.3156C29.9724 48.0297 29.796 49.1211 30.2488 50.0239L36.878 63.2384C37.2755 64.0309 38.0862 64.5312 38.9729 64.5312H44.6154L60.0091 80.2795L51.9396 88.1467C46.0227 86.0292 39.3174 87.4826 34.8056 91.9946C29.8967 96.9032 28.6081 104.408 31.599 110.669C31.9271 111.355 32.5677 111.84 33.3176 111.968C34.0673 112.097 34.8332 111.854 35.3712 111.316L43.0916 103.595L46.4063 106.91L38.6859 114.63C38.1479 115.168 37.9045 115.934 38.033 116.684C38.1616 117.434 38.6463 118.074 39.3327 118.403C45.6213 121.406 53.1201 120.083 58.0071 115.196C62.5138 110.689 63.9688 103.994 61.8624 98.0827L63.4471 96.4979C63.7936 97.2801 64.2835 98.0004 64.9066 98.6235C67.111 100.828 70.3605 101.232 72.9366 99.9857L90.0069 116.579C94.555 121.114 101.98 121.154 106.567 116.567C111.136 111.998 111.136 104.563 106.567 99.9943C106.559 99.9865 106.551 99.9787 106.543 99.971ZM82.5781 64.1064C83.2647 63.4029 83.4392 62.3459 83.0156 61.4592C80.8792 56.9872 81.8 51.6267 85.3067 48.1198C87.9575 45.4691 91.6672 44.2956 95.2517 44.8038L88.6212 51.4344C87.7059 52.3495 87.7059 53.8336 88.6212 54.7489L95.2501 61.3781C96.1648 62.2929 97.6497 62.2933 98.5647 61.3781L105.195 54.7475C105.703 58.3322 104.53 62.042 101.879 64.6926C98.3726 68.1993 93.0122 69.12 88.54 66.9839C87.6441 66.5554 86.575 66.7389 85.8723 67.4414L76.3884 76.926L73.2199 73.6961L82.5781 64.1064ZM40.4191 59.8436L35.1973 49.4339L39.4341 45.1972L49.8437 50.4192V54.6311L44.6312 59.8436H40.4191ZM48.8976 62.2061L52.1713 58.9323L73.0739 80.2406L69.7628 83.552L48.8976 62.2061ZM57.4411 95.8749C56.7388 96.5773 56.5554 97.6462 56.9835 98.5424C59.1199 103.014 58.1991 108.375 54.6924 111.882C52.0415 114.533 48.331 115.706 44.7476 115.198L51.3782 108.567C52.2929 107.653 52.2935 106.168 51.3782 105.253L44.749 98.6237C43.8338 97.7084 42.3498 97.7084 41.4344 98.6237L34.8038 105.254C34.2962 101.67 35.4693 97.9598 38.1199 95.3093C41.6266 91.8026 46.9871 90.8818 51.4593 93.0181C52.3461 93.4415 53.4022 93.2671 54.1057 92.5813L63.2857 83.6315L66.4485 86.8671L57.4411 95.8749ZM71.5353 95.309C70.6211 96.223 69.1346 96.2227 68.2206 95.309C67.3046 94.3929 67.3046 92.9107 68.2206 91.9945L81.4788 78.7364C82.3925 77.8226 83.8794 77.8226 84.7934 78.7364C85.7095 79.6525 85.7095 81.1346 84.7934 82.0509L71.5353 95.309ZM103.252 113.252C100.511 115.994 96.0503 115.994 93.3086 113.252C93.3008 113.244 93.2928 113.237 93.285 113.229L76.5306 96.9426L86.4737 86.9995L103.263 103.319C105.994 106.061 105.99 110.514 103.252 113.252Z" fill="white"/>
</svg>
