<svg width="24" height="24" viewBox="0 0 24 24" fill="none" xmlns="http://www.w3.org/2000/svg">
<path d="M23.3216 17.6136L19.9723 14.2643C18.7761 13.0681 16.7426 13.5466 16.2642 15.1016C15.9053 16.1782 14.7092 16.7763 13.6326 16.537C11.2403 15.9389 8.01062 12.8289 7.41254 10.3169C7.05369 9.24034 7.77139 8.04418 8.84794 7.68537C10.403 7.20691 10.8814 5.17342 9.68525 3.97726L6.33599 0.627988C5.37905 -0.209329 3.94365 -0.209329 3.10633 0.627988L0.833617 2.90071C-1.4391 5.29304 1.07285 11.6327 6.69484 17.2547C12.3168 22.8767 18.6565 25.5083 21.0488 23.1159L23.3216 20.8432C24.1589 19.8863 24.1589 18.4509 23.3216 17.6136Z" fill="#F58220"/>
</svg>
