<svg width="62" height="62" viewBox="0 0 62 62" fill="none" xmlns="http://www.w3.org/2000/svg">
<path d="M31.0077 0H30.9923C13.8996 0 0 13.9035 0 31C0 37.7812 2.1855 44.0665 5.90163 49.1699L2.03825 60.6864L13.9539 56.8773C18.8558 60.1245 24.7031 62 31.0077 62C48.1004 62 62 48.0926 62 31C62 13.9074 48.1004 0 31.0077 0Z" fill="#4CAF50"/>
<path d="M45.4638 41.5617C44.8526 43.3143 42.4272 44.7678 40.4925 45.1922C39.1689 45.4784 37.44 45.7068 31.6201 43.2564C24.1758 40.1243 19.3818 32.4419 19.0081 31.9435C18.6503 31.445 16 27.8756 16 24.1839C16 20.4923 17.846 18.6947 18.5902 17.9229C19.2013 17.2894 20.2114 17 21.1803 17C21.4938 17 21.7756 17.0161 22.0289 17.0289C22.773 17.0611 23.1467 17.1061 23.6375 18.2992C24.2486 19.7945 25.7368 23.4861 25.9141 23.8656C26.0946 24.245 26.2751 24.7595 26.0218 25.258C25.7843 25.7725 25.5753 26.0008 25.2017 26.4381C24.828 26.8755 24.4734 27.2099 24.0998 27.6794C23.7578 28.0878 23.3715 28.5251 23.8021 29.2808C24.2328 30.0205 25.721 32.4869 27.9122 34.4678C30.7398 37.0243 33.0323 37.8411 33.8524 38.1884C34.4635 38.4457 35.1918 38.3846 35.6383 37.9022C36.2051 37.2816 36.9049 36.2525 37.6173 35.2396C38.124 34.5128 38.7636 34.4228 39.4349 34.68C40.1188 34.9212 43.7381 36.7381 44.4822 37.1143C45.2263 37.4938 45.7171 37.6739 45.8976 37.9922C46.0749 38.3106 46.0749 39.8059 45.4638 41.5617Z" fill="#FAFAFA"/>
</svg>
