<svg width="250" height="250" viewBox="0 0 250 250" fill="none" xmlns="http://www.w3.org/2000/svg">
<circle cx="125" cy="125" r="125" fill="white"/>
<path d="M142.338 124.649C142.338 134.255 134.621 142.067 125.107 142.067C115.593 142.067 107.876 134.255 107.876 124.649C107.876 115.043 115.593 107.231 125.107 107.231C134.621 107.231 142.338 115.043 142.338 124.649Z" fill="#F58220"/>
<path d="M153.647 163.285L146.036 152.94C145.402 152.095 145.507 150.828 146.353 150.195C153.964 143.861 158.298 134.572 158.298 124.543C158.298 114.515 153.964 105.225 146.353 98.8914C145.507 98.2581 145.402 96.9913 146.036 96.1468L153.647 85.8016C154.387 84.8516 155.655 84.746 156.501 85.4849C168.129 94.9856 175 109.448 175 124.543C175 139.639 168.129 154.101 156.501 163.602C155.655 164.341 154.281 164.129 153.647 163.285Z" fill="#F58220"/>
<path d="M96.3532 163.285C95.6132 164.235 94.3447 164.341 93.499 163.602C81.8711 154.101 75 139.639 75 124.544C75 109.448 81.8711 94.9859 93.499 85.4852C94.3447 84.7463 95.7189 84.9574 96.4589 85.8019L104.07 96.1471C104.704 96.9916 104.598 98.2583 103.753 98.8917C96.1417 105.226 91.8077 114.515 91.8077 124.544C91.8077 134.572 96.1417 143.756 103.753 150.195C104.598 150.829 104.704 152.096 104.07 152.94L96.4589 163.285H96.3532Z" fill="#F58220"/>
</svg>
