<svg width="250" height="250" viewBox="0 0 250 250" fill="none" xmlns="http://www.w3.org/2000/svg">
<circle cx="125" cy="125" r="125" fill="white"/>
<path d="M175 99.4375H75V134.594H81.8787L76.5617 139.911L105.565 168.913L109.708 164.77L117.994 173.056L125.001 166.05C129.015 170.063 130.351 171.4 131.196 172.244C132.8 170.641 136.112 167.322 139.47 163.986L144.397 168.913C145.793 167.517 172.005 141.305 173.399 139.911L168.083 134.594H175V99.4375ZM84.8488 139.911L90.1649 134.594H93.5196C94.1299 135.202 94.973 136.042 95.9892 137.057L88.9915 144.053L84.8488 139.911ZM93.1351 148.197L100.136 141.196C101.426 142.485 102.821 143.879 104.281 145.337L97.2786 152.34L93.1351 148.197ZM105.565 160.626L101.421 156.483L108.425 149.479C109.8 150.853 111.191 152.244 112.569 153.621L105.565 160.626ZM117.994 164.77L113.851 160.626L116.713 157.764C118.165 159.215 119.559 160.609 120.857 161.906L117.994 164.77ZM148.509 131.592L144.366 135.736L156.827 148.197L152.683 152.34L140.223 139.879L136.079 144.022C137.598 145.541 146.946 154.889 148.54 156.483L144.397 160.626L131.937 148.165L127.793 152.308L135.327 159.842C134.331 160.832 133.156 162.001 131.196 163.958C91.7961 124.562 97.702 130.501 95.9335 128.734H80.8594V105.297H110.352V134.594H113.281C120.914 134.594 127.199 128.724 127.868 121.263C129.607 122.285 131.63 122.875 133.789 122.875H148.077L165.113 139.911L160.97 144.053C159.341 142.424 149.947 133.03 148.509 131.592ZM169.141 128.734H162.224L150.505 117.016H133.789C130.558 117.016 127.93 114.387 127.93 111.156H122.07V119.945C122.07 123.765 119.621 127.023 116.211 128.232V105.297H169.141V128.734Z" fill="#F58220"/>
<path d="M122.07 76H127.93V93.5781H122.07V76Z" fill="#F58220"/>
<path d="M146.366 79.7864L150.51 83.9299L138.791 95.6487L134.647 91.5051L146.366 79.7864Z" fill="#F58220"/>
<path d="M103.634 79.7871L115.353 91.5059L111.21 95.6494L99.4912 83.9306L103.634 79.7871Z" fill="#F58220"/>
</svg>
