<svg width="16" height="12" viewBox="0 0 16 12" fill="none" xmlns="http://www.w3.org/2000/svg">
<path d="M7.21569 5.90955C7.63348 6.18808 8.36655 6.18811 8.78443 5.90952C8.78449 5.90948 8.78458 5.90942 8.78464 5.90939L15.9055 1.16213C15.6719 0.486629 15.0299 0 14.276 0H1.72396C0.970052 0 0.328078 0.486629 0.0944824 1.16213L7.21548 5.90942C7.21557 5.90948 7.21563 5.90948 7.21569 5.90955Z" fill="#F58220"/>
<path d="M9.30464 6.68947C9.30454 6.68954 9.30448 6.6896 9.30442 6.68963C8.93873 6.93341 8.46929 7.05532 8 7.05532C7.53062 7.05532 7.06137 6.93344 6.69565 6.6896C6.69558 6.68957 6.69555 6.68954 6.69549 6.68951L0 2.22588V10.2594C0 11.21 0.77335 11.9833 1.72395 11.9833H14.2761C15.2267 11.9833 16 11.21 16 10.2594V2.22588L9.30464 6.68947Z" fill="#F58220"/>
</svg>
