<svg width="16" height="17" viewBox="0 0 16 17" fill="none" xmlns="http://www.w3.org/2000/svg">
<path d="M15.5804 11.7671L13.3429 9.52955C12.5438 8.73042 11.1853 9.05011 10.8656 10.0889C10.6259 10.8082 9.82675 11.2077 9.10754 11.0479C7.50929 10.6483 5.35166 8.5706 4.95209 6.89244C4.71236 6.1732 5.19183 5.37407 5.91104 5.13437C6.9499 4.81472 7.26955 3.45621 6.47043 2.65709L4.23288 0.41954C3.59358 -0.139847 2.63464 -0.139847 2.07525 0.41954L0.556915 1.93787C-0.96142 3.53612 0.71674 7.77148 4.47262 11.5274C8.2285 15.2832 12.4639 17.0413 14.0621 15.4431L15.5804 13.9247C16.1399 13.2854 16.1399 12.3265 15.5804 11.7671Z" fill="#F58220"/>
</svg>
