<svg width="62" height="62" viewBox="0 0 62 62" fill="none" xmlns="http://www.w3.org/2000/svg">
<path d="M31.0077 0H30.9923C13.8996 0 0 13.9035 0 31C0 37.7812 2.1855 44.0665 5.90163 49.1699L2.03825 60.6864L13.9539 56.8773C18.8558 60.1245 24.7031 62 31.0077 62C48.1004 62 62 48.0926 62 31C62 13.9074 48.1004 0 31.0077 0Z" fill="#039BE5"/>
<path d="M17.3969 28.3836L44.002 18.1255C45.2368 17.6794 46.3153 18.4268 45.9152 20.294L45.9175 20.2917L41.3875 41.6333C41.0518 43.1463 40.1527 43.5142 38.8948 42.8014L31.9964 37.7172L28.669 40.9227C28.3011 41.2906 27.9906 41.6011 27.2778 41.6011L27.7676 34.5807L40.5528 23.0304C41.1092 22.5406 40.4286 22.2646 39.6951 22.7521L23.8952 32.6997L17.0841 30.575C15.6056 30.1059 15.5734 29.0964 17.3969 28.3836Z" fill="white"/>
</svg>
